<?xml version="1.0" encoding="UTF-8" standalone="no"?>
<svg xmlns:ffdec="https://www.free-decompiler.com/flash" xmlns:xlink="http://www.w3.org/1999/xlink" ffdec:objectType="frame" height="8.0px" width="8.0px" xmlns="http://www.w3.org/2000/svg">
  <g transform="matrix(1.0, 0.0, 0.0, 1.0, 4.0, 7.6)">
    <use ffdec:characterId="6" height="8.0" transform="matrix(1.0, 0.0, 0.0, 1.0, 0.0, 0.0)" width="8.0" xlink:href="#shape0"/>
  </g>
  <defs>
    <g id="shape0">
      <path d="M2.8 -0.75 Q1.65 0.4 0.0 0.4 -1.65 0.4 -2.85 -0.75 -4.0 -1.9 -4.0 -3.6 -4.0 -5.25 -2.85 -6.45 -1.65 -7.6 0.0 -7.6 1.65 -7.6 2.8 -6.45 4.0 -5.25 4.0 -3.6 4.0 -1.9 2.8 -0.75" fill="#695f01" fill-rule="evenodd" stroke="none"/>
      <path d="M4.0 -3.35 Q3.95 -0.7 -0.05 -0.8 -4.05 -0.95 -4.0 -3.35 L-4.0 -3.6 Q-4.0 -5.25 -2.85 -6.45 -1.65 -7.6 0.0 -7.6 1.65 -7.6 2.8 -6.45 4.0 -5.25 4.0 -3.6 L4.0 -3.35" fill="#c2bd01" fill-rule="evenodd" stroke="none"/>
      <path d="M2.15 -3.0 Q1.25 -2.25 -0.05 -2.25 -1.4 -2.25 -2.3 -3.0 -3.2 -3.75 -3.2 -4.8 -3.2 -5.85 -2.3 -6.6 -1.4 -7.35 -0.05 -7.35 1.25 -7.35 2.15 -6.6 3.1 -5.85 3.1 -4.8 3.1 -3.75 2.15 -3.0" fill="#ffff00" fill-rule="evenodd" stroke="none"/>
    </g>
  </defs>
</svg>
