<?xml version="1.0" encoding="UTF-8" standalone="no"?>
<svg xmlns:ffdec="https://www.free-decompiler.com/flash" xmlns:xlink="http://www.w3.org/1999/xlink" ffdec:objectType="frame" height="600px" width="600px" xmlns="http://www.w3.org/2000/svg">
  <g transform="matrix(1,0,0,1,0,0)">
    <clipPath id="clipPath0">
      <path d="M 0 0 L 0 600 L 600 600 L 600 0 Z"/>
    </clipPath>
    <g clip-path="url(#clipPath0)">
      <use ffdec:characterId="16" height="657.15" transform="matrix(1.0, 0.0, 0.0, 1.0, 0.0, 0.0)" width="865.7" xlink:href="#shape0"/>
      <use ffdec:characterId="17" height="42.0" transform="matrix(1.4393, 0.0, 0.0, 1.4393, 288.05, 506.1)" width="398.65" xlink:href="#sprite0"/>
    </g>
    <use ffdec:characterId="20" height="122.0" transform="matrix(1.0, 0.0, 0.0, 1.0, 0.0, 0.0)" width="252.0" xlink:href="#shape3"/>
    <use ffdec:characterId="21" height="23.9" transform="matrix(1.0, 0.0, 0.0, 1.0, 435.2, 565.95)" width="104.0" xlink:href="#text0"/>
    <use ffdec:characterId="23" height="30.0" transform="matrix(1.0, 0.0, 0.0, 1.0, 180.0, 330.0)" width="229.95" xlink:href="#button0"/>
    <use ffdec:characterId="26" height="30.0" transform="matrix(1.0, 0.0, 0.0, 1.0, 180.0, 360.0)" width="229.95" xlink:href="#button1"/>
    <use ffdec:characterId="27" height="30.0" transform="matrix(1.0, 0.0, 0.0, 1.0, 180.0, 390.0)" width="229.95" xlink:href="#button2"/>
    <use ffdec:characterId="28" height="69.7" transform="matrix(1.0, 0.0, 0.0, 1.0, 4.05, 38.7)" width="367.0" xlink:href="#text1"/>

    <use ffdec:characterId="30" height="25.9" transform="matrix(1.0004, 0.0, 0.0, 1.0014, 289.35, 330.0)" width="114.0" xlink:href="#text3"/>
    <use ffdec:characterId="31" height="25.9" transform="matrix(1.0003, 0.0, 0.0, 1.0014, 289.4, 360.0)" width="114.0" xlink:href="#text4"/>
    <use ffdec:characterId="32" height="25.9" transform="matrix(1.0004, 0.0, 0.0, 0.9998, 289.35, 390.0)" width="92.0" xlink:href="#text5"/>
  </g>
  <defs>
    <g id="shape0">
      <path d="M600.0 390.0 L0.0 390.0 0.0 0.0 600.0 0.0 600.0 390.0" fill="url(#gradient0)" fill-rule="evenodd" stroke="none"/>
      <path d="M14.1 97.9 Q39.0 122.8 39.0 158.0 39.0 193.2 14.1 218.1 -10.8 243.0 -46.0 243.0 -81.2 243.0 -106.1 218.1 -131.0 193.2 -131.0 158.0 -131.0 122.8 -106.1 97.9 -81.2 73.0 -46.0 73.0 -10.8 73.0 14.1 97.9" fill="#ffffff" fill-rule="evenodd" stroke="none"/>
      <path d="M97.95 234.05 Q128.0 264.05 128.0 306.55 128.0 349.0 97.95 379.0 67.95 409.05 25.5 409.05 -16.95 409.05 -46.95 379.0 -77.0 349.0 -77.0 306.55 -77.0 264.05 -46.95 234.05 -16.95 204.0 25.5 204.0 67.95 204.0 97.95 234.05" fill="#ffffff" fill-rule="evenodd" stroke="none"/>
      <path d="M202.05 281.9 Q226.95 306.8 226.95 342.0 226.95 377.2 202.05 402.1 177.15 427.0 141.95 427.0 106.75 427.0 81.85 402.1 56.95 377.2 56.95 342.0 56.95 306.8 81.85 281.9 106.75 257.0 141.95 257.0 177.15 257.0 202.05 281.9" fill="#ffffff" fill-rule="evenodd" stroke="none"/>
      <path d="M614.7 246.7 Q646.95 276.45 646.95 318.5 646.95 360.55 614.7 390.3 582.5 420.05 536.95 420.05 491.4 420.05 459.15 390.3 426.95 360.55 426.95 318.5 426.95 276.45 459.15 246.7 491.4 216.95 536.95 216.95 582.5 216.95 614.7 246.7" fill="#ffffff" fill-rule="evenodd" stroke="none"/>
      <path d="M688.35 76.65 Q712.5 100.85 712.5 135.0 712.5 169.2 688.35 193.35 664.15 217.55 630.0 217.55 595.8 217.55 571.65 193.35 547.45 169.2 547.45 135.0 547.45 100.85 571.65 76.65 595.8 52.5 630.0 52.5 664.15 52.5 688.35 76.65" fill="#ffffff" fill-rule="evenodd" stroke="none"/>
      <path d="M489.1 317.95 Q514.0 342.85 514.0 378.05 514.0 413.25 489.1 438.15 464.2 463.05 429.0 463.05 393.8 463.05 368.9 438.15 344.0 413.25 344.0 378.05 344.0 342.85 368.9 317.95 393.8 293.05 429.0 293.05 464.2 293.05 489.1 317.95" fill="#ffffff" fill-rule="evenodd" stroke="none"/>
      <path d="M63.85 153.05 Q77.05 166.25 77.05 184.9 77.05 203.55 63.85 216.75 50.65 229.95 32.0 229.95 13.35 229.95 0.15 216.75 -13.05 203.55 -13.05 184.9 -13.05 166.25 0.15 153.05 13.35 139.85 32.0 139.85 50.65 139.85 63.85 153.05" fill="#ffffff" fill-rule="evenodd" stroke="none"/>
      <path d="M599.9 183.15 Q613.1 196.35 613.1 215.0 613.1 233.65 599.9 246.85 586.7 260.05 568.05 260.05 549.4 260.05 536.2 246.85 523.0 233.65 523.0 215.0 523.0 196.35 536.2 183.15 549.4 169.95 568.05 169.95 586.7 169.95 599.9 183.15" fill="#ffffff" fill-rule="evenodd" stroke="none"/>
      <path d="M-30.5 223.45 L-30.65 212.4 160.3 324.0 429.65 324.0 431.8 322.8 430.3 327.0 157.2 327.0 -30.5 223.45" fill="#191a1a" fill-rule="evenodd" stroke="none"/>
      <path d="M430.3 327.0 L431.8 322.8 644.0 200.25 644.65 208.95 429.95 327.95 430.3 327.0" fill="#373a34" fill-rule="evenodd" stroke="none"/>
      <path d="M-30.5 223.45 L157.2 327.0 430.3 327.0 429.95 327.95 644.65 208.95 647.7 478.4 -32.8 501.1 -30.5 223.45" fill="#050505" fill-rule="evenodd" stroke="none"/>
      <path d="M453.85 408.85 L615.1 413.45 614.8 478.6 475.7 481.35 453.85 408.85" fill="#034339" fill-rule="evenodd" stroke="none"/>
      <path d="M475.7 481.35 L-30.5 491.4 -28.35 414.25 149.3 407.9 436.2 408.35 453.85 408.85 475.7 481.35" fill="#011f1b" fill-rule="evenodd" stroke="none"/>
      <path d="M607.8 628.25 L-13.95 630.15 -13.55 459.65 162.45 424.55 442.9 423.75 608.6 446.25 607.8 628.25" fill="#9ed400" fill-rule="evenodd" stroke="none"/>
      <path d="M315.65 423.7 L506.35 621.05 448.25 621.3 307.9 423.75 315.65 423.7 M302.8 423.8 L384.95 621.55 326.95 621.8 296.0 423.85 302.8 423.8 M274.9 424.05 L148.75 622.5 85.4 622.75 267.8 424.1 274.9 424.05 M258.65 424.2 L-14.45 565.65 -14.4 541.0 251.8 424.25 258.65 424.2 M261.95 424.15 L20.15 623.0 -14.65 623.1 -14.6 599.9 258.75 424.2 261.95 424.15 M289.85 423.9 L268.2 622.0 211.15 622.25 282.45 423.95 289.85 423.9 M223.6 424.5 L-14.2 498.0 -14.15 486.85 213.65 424.55 223.6 424.5 M203.15 424.65 L-14.15 476.85 -14.1 465.15 181.9 424.85 203.15 424.65 M244.55 424.3 L-14.3 522.0 -14.25 509.1 232.55 424.4 244.55 424.3 M602.25 458.5 L412.8 422.85 432.8 422.7 602.25 451.55 602.25 458.5 M602.3 474.25 L391.95 423.05 399.1 423.0 602.3 466.5 602.3 474.25 M602.5 523.8 L345.55 423.45 360.75 423.3 602.45 511.35 602.5 523.8 M602.7 564.15 L333.55 423.55 339.5 423.5 602.6 540.35 602.7 564.15 M602.4 497.0 L377.85 423.95 378.1 423.15 602.35 484.05 602.4 497.0 M602.9 620.65 L573.9 620.8 322.7 423.65 325.9 423.6 602.8 595.75 602.9 620.65" fill="#b4e001" fill-rule="evenodd" stroke="none"/>
      <path d="M686.15 620.35 L734.2 620.15" fill="none" stroke="#ffffff" stroke-linecap="round" stroke-linejoin="round" stroke-opacity="0.5137255" stroke-width="1.0"/>
      <path d="M421.6 420.75 L458.95 425.85 173.1 427.1 -21.0 469.6 -21.0 446.55 152.5 421.6 421.6 420.75" fill="#183002" fill-rule="evenodd" stroke="none"/>
      <path d="M674.2 523.25 L674.2 527.2 427.35 445.25 407.6 445.25 640.15 539.0 644.2 545.45 404.45 445.25 186.35 445.25 -52.55 545.1 -48.5 538.65 183.2 445.25 163.8 445.25 -54.0 512.9 -54.0 509.4 162.05 444.15 430.15 444.1 674.2 523.25 M295.55 461.1 L302.05 657.15 284.55 655.65 291.05 461.1 295.55 461.1" fill="#ffffff" fill-rule="evenodd" stroke="none"/>
    </g>
    <radialGradient cx="0" cy="0" gradientTransform="matrix(0.5601, 0.0, 0.0, 0.5601, 220.0, -30.0)" gradientUnits="userSpaceOnUse" id="gradient0" r="819.2" spreadMethod="pad">
      <stop offset="0.0" stop-color="#1efdec"/>
      <stop offset="1.0" stop-color="#2105be"/>
      <stop offset="1.0" stop-color="#857521"/>
    </radialGradient>
    <g id="sprite0">
      <use ffdec:characterId="18" height="38.2" transform="matrix(1.0, 0.0, 0.0, 1.0, 0.0, 0.0)" width="391.7" xlink:href="#shape1"/>
      <use ffdec:characterId="19" height="91.0" transform="matrix(0.4538, 0.0, 0.0, 0.4538, -257.0, -80.9)" width="15.35" xlink:href="#shape2"/>
      <use ffdec:characterId="19" height="91.0" transform="matrix(0.4538, 0.0, 0.0, 0.4538, 134.75, -80.15)" width="15.35" xlink:href="#shape2"/>
    </g>
    <g id="shape1">
      <path d="M-187.45 -1.15 L201.25 -1.15" fill="none" stroke="#3f5300" stroke-linecap="round" stroke-linejoin="round" stroke-width="3.0"/>
      <path d="M199.35 -36.5 L199.35 0.1 -184.35 0.1 -184.35 -36.5 Q8.3 -31.95 199.35 -36.5" fill="#000000" fill-opacity="0.5019608" fill-rule="evenodd" stroke="none"/>
      <path d="M89.4 -0.95 Q139.85 -3.15 179.4 -9.55 176.05 -4.85 159.35 -2.0 L89.4 -0.95 M-83.95 -1.5 L-153.9 -2.5 Q-170.6 -5.35 -173.95 -10.05 -134.4 -3.65 -83.95 -1.5" fill="#000000" fill-opacity="0.3137255" fill-rule="evenodd" stroke="none"/>
      <path d="M199.7 -35.5 Q199.35 -35.15 198.9 -35.1 10.1 -30.55 -185.1 -35.1 -185.6 -35.15 -185.95 -35.5 -186.3 -35.95 -186.25 -36.5 L-185.9 -37.45 Q-185.55 -37.9 -185.05 -37.85 10.05 -33.3 198.85 -37.85 199.35 -37.9 199.7 -37.45 L200.1 -36.5 199.7 -35.5" fill="#ffffff" fill-rule="evenodd" stroke="none"/>
      <path d="M31.55 -33.3 Q66.95 -33.45 133.45 -34.75 L200.05 -36.05 200.05 -34.8 199.7 -33.85 Q199.4 -33.5 198.9 -33.4 93.15 -30.85 -14.5 -31.2 -99.2 -31.4 -185.1 -33.4 -185.7 -33.5 -185.95 -33.85 -186.35 -34.25 -186.3 -34.8 -186.35 -35.4 -184.35 -35.5 -150.2 -33.75 -113.8 -33.95 -77.45 -34.15 -14.9 -33.75 -3.85 -33.15 31.55 -33.3" fill="#cccccc" fill-rule="evenodd" stroke="none"/>
    </g>
    <g id="shape2">
      <path d="M147.0 88.0 L147.0 87.3 Q151.7 86.65 155.5 89.15 156.1 91.45 156.0 94.0 L156.0 137.0 Q155.65 147.5 156.0 158.0 L157.0 165.0 157.3 172.0 Q157.9 173.85 157.5 175.8 155.6 177.55 153.0 178.0 L149.0 178.0 Q144.7 177.95 142.15 175.0 142.35 172.5 143.0 170.0 L143.0 163.0 144.0 158.0 Q144.25 149.5 144.0 141.0 L144.0 93.0 Q143.9 89.25 147.0 88.0" fill="#c6b706" fill-rule="evenodd" stroke="none"/>
      <path d="M152.0 128.0 L148.0 128.0 148.0 163.0 152.0 163.0 152.0 128.0 M147.0 88.0 L147.0 87.3 Q151.7 86.65 155.5 89.15 156.1 91.45 156.0 94.0 L156.0 137.0 Q155.65 147.5 156.0 158.0 L157.0 165.0 157.3 172.0 Q157.9 173.85 157.5 175.8 155.6 177.55 153.0 178.0 L149.0 178.0 Q144.7 177.95 142.15 175.0 142.35 172.5 143.0 170.0 L143.0 163.0 144.0 158.0 Q144.25 149.5 144.0 141.0 L144.0 93.0 Q143.9 89.25 147.0 88.0 M146.0 91.0 L145.3 91.3 147.5 96.0 148.0 101.0 148.0 126.0 153.0 126.0 153.0 95.0 Q148.45 94.7 146.0 91.0" fill="#1d2f03" fill-rule="evenodd" stroke="none"/>
      <path d="M146.0 162.0 L145.3 162.3 145.0 177.0 147.0 177.0 146.0 162.0 M152.0 128.0 L148.0 128.0 148.0 163.0 152.0 163.0 152.0 128.0 M147.0 87.0 L148.3 88.3 153.0 87.0 153.0 89.0 155.0 88.0 156.0 89.0 156.0 90.0 154.0 90.0 155.65 91.3 155.0 97.0 155.0 110.0 Q154.75 116.5 155.0 123.0 L156.0 131.0 Q155.55 144.5 156.0 158.0 L157.0 165.0 157.3 172.0 Q157.9 173.9 157.5 175.8 L155.1 176.85 155.65 176.0 155.0 171.0 155.0 162.0 154.0 162.3 154.0 177.0 154.65 177.0 Q151.55 177.95 148.0 177.65 L145.0 177.65 Q143.5 177.0 142.45 175.8 142.05 173.4 142.8 171.0 L143.0 163.0 144.0 156.0 Q143.55 141.4 144.0 127.0 L145.0 122.0 Q145.2 115.5 145.0 109.0 145.2 102.45 145.0 96.0 L144.0 91.0 Q144.2 88.8 146.0 89.0 L146.0 90.0 147.0 90.0 147.0 87.0 M146.0 91.0 L145.3 91.3 147.5 96.0 148.0 101.0 148.0 126.0 153.0 126.0 153.0 95.0 Q148.45 94.7 146.0 91.0" fill="#090e01" fill-rule="evenodd" stroke="none"/>
      <path d="M152.0 128.0 L148.0 128.0 148.0 163.0 152.0 163.0 152.0 128.0 M147.0 88.0 L155.0 89.0 Q154.35 90.5 156.0 91.0 154.85 101.9 155.0 113.0 L155.0 148.0 Q155.2 154.0 155.0 160.0 L153.8 164.0 153.65 176.65 Q149.6 178.5 147.0 175.0 L147.0 167.0 Q146.35 163.8 145.15 161.0 L145.0 111.0 Q145.2 103.45 145.0 96.0 144.3 92.55 145.0 89.0 L147.0 90.0 147.0 88.0 M146.0 91.0 L145.3 91.3 147.5 96.0 148.0 101.0 148.0 126.0 153.0 126.0 153.0 95.0 Q148.45 94.7 146.0 91.0" fill="#a09405" fill-rule="evenodd" stroke="none"/>
      <path d="M153.0 128.0 L147.0 128.0 147.0 163.0 153.0 163.0 153.0 128.0 M145.0 89.0 L149.0 88.3 155.0 89.0 156.0 93.0 154.0 92.0 Q155.1 97.9 155.0 104.0 L155.0 147.0 Q155.25 153.5 155.0 160.0 L153.8 164.0 154.0 175.0 Q151.5 178.5 147.3 176.65 L147.0 174.0 147.0 166.0 145.0 160.0 Q144.65 152.0 145.0 144.0 L145.0 114.0 Q145.1 102.4 144.0 91.0 L145.0 91.0 145.0 93.0 146.0 93.0 145.0 89.0 M147.0 93.0 L146.3 93.3 147.0 98.0 147.0 121.0 Q146.7 124.55 149.0 126.8 153.9 126.4 154.0 121.0 L154.0 94.0 Q150.2 95.2 147.0 93.0" fill="#776f04" fill-rule="evenodd" stroke="none"/>
      <path d="M145.0 89.0 L149.0 88.3 155.0 89.0 156.0 93.0 154.65 92.65 Q153.55 93.9 152.0 94.8 146.7 94.3 145.0 89.0 M145.0 94.0 L145.65 94.3 Q146.15 98.1 146.0 102.0 L146.15 124.0 Q149.85 127.75 155.0 125.0 L155.0 162.0 154.0 162.0 154.0 127.0 146.0 128.0 146.0 156.0 Q145.7 160.3 149.0 162.8 L152.65 163.3 Q154.2 167.3 154.0 172.0 154.0 174.4 153.65 176.65 150.45 178.2 147.3 176.65 146.95 174.4 147.0 172.0 L147.0 166.0 145.15 161.0 145.0 94.0" fill="#e5da08" fill-rule="evenodd" stroke="none"/>
      <path d="M145.0 94.0 L145.65 94.3 Q146.15 98.1 146.0 102.0 L146.15 124.0 Q149.85 127.75 155.0 125.0 L155.0 162.0 154.0 162.0 154.0 127.0 146.0 128.0 146.0 156.0 Q145.7 160.3 149.0 162.8 L152.65 163.3 Q154.2 167.3 154.0 172.0 154.0 174.4 153.65 176.65 150.45 178.2 147.3 176.65 146.95 174.4 147.0 172.0 L147.0 166.0 145.15 161.0 145.0 94.0" fill="#534e03" fill-rule="evenodd" stroke="none"/>
      <path d="M147.0 163.0 L153.0 163.0 Q154.3 168.85 154.0 175.0 150.45 178.9 147.0 175.0 146.7 169.0 147.0 163.0" fill="#074707" fill-rule="evenodd" stroke="none"/>
    </g>
    <g id="shape3">
      <path d="M417.65 317.35 Q420.0 319.7 420.0 323.0 L420.0 427.0 Q420.0 430.3 417.65 432.65 415.3 435.0 412.0 435.0 L178.0 435.0 Q174.7 435.0 172.35 432.65 170.0 430.3 170.0 427.0 L170.0 323.0 Q170.0 319.7 172.35 317.35 174.7 315.0 178.0 315.0 L412.0 315.0 Q415.3 315.0 417.65 317.35" fill="#000000" fill-opacity="0.6" fill-rule="evenodd" stroke="none"/>
      <path d="M417.65 317.35 Q415.3 315.0 412.0 315.0 L178.0 315.0 Q174.7 315.0 172.35 317.35 170.0 319.7 170.0 323.0 L170.0 427.0 Q170.0 430.3 172.35 432.65 174.7 435.0 178.0 435.0 L412.0 435.0 Q415.3 435.0 417.65 432.65 420.0 430.3 420.0 427.0 L420.0 323.0 Q420.0 319.7 417.65 317.35 Z" fill="none" stroke="#ffffff" stroke-linecap="round" stroke-linejoin="round" stroke-width="2.0"/>
    </g>
    <g id="text0">
      <g transform="matrix(1.0, 0.0, 0.0, 1.0, 0.0, 0.0)">
        <use fill="#ffffff" height="23.9" transform="matrix(0.4023, 0.0, 0.0, 0.4023, -1.9, 19.0)" width="104.0" xlink:href="#font_Lithograph_G0"/>
      </g>
      <g transform="matrix(1.0, 0.0, 0.0, 1.0, 0.0, 0.0)">
        <use fill="#ffffff" height="23.9" transform="matrix(0.4023, 0.0, 0.0, 0.4023, 8.1, 19.0)" width="104.0" xlink:href="#font_Lithograph_A0"/>
      </g>
      <g transform="matrix(1.0, 0.0, 0.0, 1.0, 0.0, 0.0)">
        <use fill="#ffffff" height="23.9" transform="matrix(0.4023, 0.0, 0.0, 0.4023, 18.1, 19.0)" width="104.0" xlink:href="#font_Lithograph_M0"/>
      </g>
      <g transform="matrix(1.0, 0.0, 0.0, 1.0, 0.0, 0.0)">
        <use fill="#ffffff" height="23.9" transform="matrix(0.4023, 0.0, 0.0, 0.4023, 28.1, 19.0)" width="104.0" xlink:href="#font_Lithograph_E0"/>
      </g>
      <g transform="matrix(1.0, 0.0, 0.0, 1.0, 0.0, 0.0)">
        <use fill="#ffffff" height="23.9" transform="matrix(0.4023, 0.0, 0.0, 0.4023, 38.1, 19.0)" width="104.0" xlink:href="#font_Lithograph_D0"/>
      </g>
      <g transform="matrix(1.0, 0.0, 0.0, 1.0, 0.0, 0.0)">
        <use fill="#ffffff" height="23.9" transform="matrix(0.4023, 0.0, 0.0, 0.4023, 48.1, 19.0)" width="104.0" xlink:href="#font_Lithograph_E0"/>
      </g>
      <g transform="matrix(1.0, 0.0, 0.0, 1.0, 0.0, 0.0)">
        <use fill="#ffffff" height="23.9" transform="matrix(0.4023, 0.0, 0.0, 0.4023, 58.1, 19.0)" width="104.0" xlink:href="#font_Lithograph_S0"/>
      </g>
      <g transform="matrix(1.0, 0.0, 0.0, 1.0, 0.0, 0.0)">
        <use fill="#ffffff" height="23.9" transform="matrix(0.4023, 0.0, 0.0, 0.4023, 68.1, 19.0)" width="104.0" xlink:href="#font_Lithograph_I0"/>
      </g>
      <g transform="matrix(1.0, 0.0, 0.0, 1.0, 0.0, 0.0)">
        <use fill="#ffffff" height="23.9" transform="matrix(0.4023, 0.0, 0.0, 0.4023, 78.1, 19.0)" width="104.0" xlink:href="#font_Lithograph_G0"/>
      </g>
      <g transform="matrix(1.0, 0.0, 0.0, 1.0, 0.0, 0.0)">
        <use fill="#ffffff" height="23.9" transform="matrix(0.4023, 0.0, 0.0, 0.4023, 88.1, 19.0)" width="104.0" xlink:href="#font_Lithograph_N0"/>
      </g>
    </g>
    <g id="font_Lithograph_G0">
      <path d="M12.55 -32.85 Q15.05 -32.85 16.8 -31.0 18.55 -29.15 19.7 -25.15 L20.85 -25.5 19.3 -34.2 Q18.95 -33.65 18.35 -33.35 17.75 -33.05 17.2 -33.05 16.8 -33.05 15.25 -33.65 13.7 -34.2 12.55 -34.2 7.7 -34.2 4.5 -29.05 1.35 -23.9 1.35 -16.8 1.35 -10.65 4.05 -5.5 6.75 -0.4 12.5 -0.4 14.05 -0.4 15.35 -0.8 16.6 -1.15 17.75 -2.15 18.15 -2.5 18.55 -2.6 L19.3 -2.7 Q19.7 -2.7 20.0 -2.6 L20.65 -2.35 20.65 -12.0 Q20.65 -12.95 21.25 -13.55 21.85 -14.1 22.8 -14.1 L23.8 -14.1 23.8 -15.3 14.05 -15.3 14.05 -14.1 15.25 -14.1 Q16.4 -14.1 17.0 -13.55 17.55 -12.95 17.55 -11.8 L17.55 -5.2 Q17.35 -3.45 16.1 -2.55 14.85 -1.75 12.7 -1.75 8.5 -1.75 6.65 -6.55 4.85 -11.4 4.85 -16.8 4.85 -24.9 7.25 -28.85 9.65 -32.85 12.55 -32.85" fill-rule="evenodd" stroke="none"/>
    </g>
    <g id="font_Lithograph_A0">
      <path d="M11.55 -30.35 L15.4 -14.3 7.4 -14.3 11.4 -30.35 11.55 -30.35 M15.5 -13.15 L17.5 -4.6 Q17.9 -3.25 17.6 -2.55 17.3 -1.95 16.15 -1.95 L15.4 -1.95 15.4 -0.8 23.8 -0.8 23.8 -1.95 23.2 -1.95 Q22.4 -1.95 21.85 -2.4 21.25 -2.85 20.85 -4.05 L13.5 -34.6 10.55 -33.6 3.05 -4.05 Q2.85 -2.85 2.3 -2.4 1.7 -1.95 0.9 -1.95 L0.4 -1.95 0.4 -0.8 7.5 -0.8 7.5 -1.95 6.95 -1.95 Q5.6 -1.95 5.2 -2.95 4.8 -4.05 5.2 -5.75 L7.1 -13.15 15.5 -13.15" fill-rule="evenodd" stroke="none"/>
    </g>
    <g id="font_Lithograph_M0">
      <path d="M21.65 -3.45 L21.65 -31.1 Q21.65 -31.9 22.15 -32.25 22.6 -32.65 23.4 -32.65 L24.15 -32.65 24.15 -33.8 17.9 -33.8 11.85 -8.75 11.45 -8.75 6.0 -33.8 0.6 -33.8 0.6 -32.65 1.25 -32.65 Q2.2 -32.65 2.5 -32.25 2.9 -31.9 2.9 -31.1 L2.9 -3.45 Q2.9 -2.65 2.5 -2.3 2.15 -1.95 1.15 -1.95 L0.6 -1.95 0.6 -0.8 6.4 -0.8 6.4 -1.95 5.8 -1.95 Q5.05 -1.95 4.55 -2.3 4.1 -2.65 4.1 -3.45 L4.1 -28.2 4.4 -28.2 10.45 -0.8 10.45 -0.8 11.55 -0.8 18.15 -28.8 18.55 -28.8 18.55 -3.45 Q18.55 -2.65 18.15 -2.3 17.75 -1.95 16.8 -1.95 L15.8 -1.95 15.8 -0.8 24.15 -0.8 24.15 -1.95 23.4 -1.95 Q22.6 -1.95 22.15 -2.3 21.65 -2.65 21.65 -3.45" fill-rule="evenodd" stroke="none"/>
    </g>
    <g id="font_Lithograph_E0">
      <path d="M1.35 -32.65 L2.4 -32.65 Q3.4 -32.65 3.85 -32.25 4.25 -31.9 4.25 -31.1 L4.25 -3.45 Q4.25 -2.65 3.9 -2.3 3.5 -1.95 2.5 -1.95 L1.35 -1.95 1.35 -0.8 21.05 -0.8 23.2 -8.3 22.25 -8.7 Q21.05 -5.2 19.0 -3.55 17.0 -1.95 14.1 -1.95 L9.05 -1.95 Q8.3 -1.95 7.8 -2.3 7.4 -2.65 7.4 -3.45 L7.4 -17.95 12.95 -17.95 Q14.9 -17.95 15.75 -16.8 16.65 -15.65 16.65 -13.5 L16.65 -12.7 17.8 -12.7 17.8 -24.15 16.65 -24.15 16.65 -23.0 Q16.65 -21.05 15.75 -20.1 14.9 -19.1 12.95 -19.1 L7.4 -19.1 7.4 -31.1 Q7.4 -31.9 7.8 -32.25 8.3 -32.65 9.05 -32.65 L14.5 -32.65 Q16.6 -32.65 18.35 -31.2 20.1 -29.75 21.65 -26.9 L22.6 -27.2 20.45 -33.8 1.35 -33.8 1.35 -32.65" fill-rule="evenodd" stroke="none"/>
    </g>
    <g id="font_Lithograph_D0">
      <path d="M4.1 -31.1 L4.1 -3.45 Q4.1 -2.65 3.7 -2.3 3.35 -1.95 2.45 -1.95 L1.15 -1.95 1.15 -0.8 9.35 -0.8 Q16.05 -0.8 19.5 -4.9 23.0 -9.05 23.0 -17.95 23.0 -26.05 19.4 -29.95 15.8 -33.8 9.85 -33.8 L1.15 -33.8 1.15 -32.65 2.35 -32.65 Q3.3 -32.65 3.7 -32.25 4.1 -31.9 4.1 -31.1 M19.3 -17.55 Q19.3 -8.3 16.4 -5.1 13.5 -1.95 9.25 -1.95 8.3 -1.95 7.7 -2.3 7.2 -2.65 7.2 -3.45 L7.2 -31.1 Q7.2 -31.9 7.8 -32.25 8.5 -32.65 9.85 -32.65 14.25 -32.65 16.8 -29.25 19.3 -25.85 19.3 -17.55" fill-rule="evenodd" stroke="none"/>
    </g>
    <g id="font_Lithograph_S0">
      <path d="M11.55 -16.6 Q15.45 -14.85 17.3 -13.0 19.1 -11.2 19.1 -9.25 19.1 -5.6 17.45 -3.65 15.8 -1.75 12.5 -1.75 9.45 -1.75 7.05 -3.55 4.6 -5.4 3.25 -10.25 L2.15 -9.85 3.65 -0.4 5.0 -1.35 Q5.6 -1.75 6.15 -1.75 7.15 -1.75 8.75 -1.05 10.4 -0.4 12.35 -0.4 17.0 -0.4 19.4 -3.05 21.85 -5.75 21.85 -9.25 21.85 -12.5 19.8 -14.95 17.75 -17.35 13.1 -19.3 7.5 -21.8 6.25 -23.05 5.05 -24.3 5.05 -26.45 5.05 -28.8 6.35 -30.8 7.7 -32.85 11.4 -32.85 14.25 -32.85 16.1 -31.4 17.95 -29.95 19.7 -25.9 L20.65 -26.25 19.9 -34.2 Q19.5 -33.45 19.0 -33.15 18.55 -32.85 17.95 -32.85 17.2 -32.85 15.45 -33.55 13.75 -34.2 11.8 -34.2 7.35 -34.2 4.9 -31.6 2.5 -28.95 2.5 -26.05 2.5 -22.4 4.4 -20.65 6.35 -18.95 11.55 -16.6" fill-rule="evenodd" stroke="none"/>
    </g>
    <g id="font_Lithograph_I0">
      <path d="M4.6 -32.65 L9.05 -32.65 Q10.05 -32.65 10.45 -32.25 10.8 -31.9 10.8 -31.1 L10.8 -3.45 Q10.8 -2.65 10.45 -2.3 10.05 -1.95 9.05 -1.95 L4.6 -1.95 4.6 -0.8 20.15 -0.8 20.15 -1.95 15.65 -1.95 Q14.9 -1.95 14.4 -2.3 13.95 -2.65 13.95 -3.45 L13.95 -31.1 Q13.95 -31.9 14.4 -32.25 14.9 -32.65 15.65 -32.65 L20.15 -32.65 20.15 -33.8 4.6 -33.8 4.6 -32.65" fill-rule="evenodd" stroke="none"/>
    </g>
    <g id="font_Lithograph_N0">
      <path d="M19.55 -8.5 L6.5 -33.8 0.4 -33.8 0.4 -32.65 1.7 -32.65 Q2.75 -32.65 3.2 -32.25 3.7 -31.9 3.7 -31.1 L3.7 -3.45 Q3.7 -2.65 3.3 -2.3 2.9 -1.95 1.95 -1.95 L0.4 -1.95 0.4 -0.8 8.15 -0.8 8.15 -1.95 6.6 -1.95 Q5.8 -1.95 5.35 -2.3 4.85 -2.65 4.85 -3.45 L4.85 -29.55 5.2 -29.55 20.05 -0.8 19.95 -0.8 21.1 -0.8 21.1 -31.1 Q21.1 -31.9 21.6 -32.25 22.1 -32.65 22.85 -32.65 L24.4 -32.65 24.4 -33.8 16.65 -33.8 16.65 -32.65 18.2 -32.65 Q19.15 -32.65 19.55 -32.25 19.95 -31.9 19.95 -31.1 L19.95 -8.5 19.55 -8.5" fill-rule="evenodd" stroke="none"/>
    </g>
    <g id="button0">
      <g class="button" transform="matrix(1.0, 0.0, 0.0, 1.0, 0.0, 0.0)">
        <g class="button-frame button-frame-over" transform="matrix(1.0, 0.0, 0.0, 1.0, 0.0, 0.0)">
          <use ffdec:characterId="5" height="8.0" transform="matrix(2.5375, 0.0, 0.0, 2.5375, 23.1, 24.75)" width="8.0" xlink:href="#sprite1"/>
        </g>
        <g class="button-frame button-frame-down" transform="matrix(1.0, 0.0, 0.0, 1.0, 0.0, 0.0)">
          <use ffdec:characterId="5" height="8.0" transform="matrix(2.9181, 0.0, 0.0, 2.1647, 23.1, 25.25)" width="8.0" xlink:href="#sprite1"/>
        </g>
        <g class="button-frame button-frame-hittest" transform="matrix(1.0, 0.0, 0.0, 1.0, 0.0, 0.0)">
          <use ffdec:characterId="3" height="160.0" transform="matrix(0.3833, 0.0, 0.0, 0.1875, 0.0, -41.25)" width="600.0" xlink:href="#shape5"/>
        </g>
      </g>
    </g>
    <style>
      <![CDATA[
    .button-frame {
      pointer-events: none;
    }

    .button-frame-up,
    .button-frame-over,
    .button-frame-down {
      opacity: 0;
    }

    .button .button-frame-up {
      opacity: 1;
    }

    .button:hover .button-frame-up {
      opacity: 0;
    }
    .button:hover .button-frame-over {
      opacity: 1;
    }

    .button:active .button-frame-over {
      opacity: 0;
    }
    .button:active .button-frame-down {
      opacity: 1;
    }

    .button-frame-hittest {
      opacity: 0;
      pointer-events: all;
      cursor: pointer;
    }
]]>
    </style>
    <g id="sprite1">
      <use ffdec:characterId="6" height="8.0" transform="matrix(1.0, 0.0, 0.0, 1.0, 0.0, 0.0)" width="8.0" xlink:href="#shape4"/>
    </g>
    <g id="shape4">
      <path d="M2.8 -0.75 Q1.65 0.4 0.0 0.4 -1.65 0.4 -2.85 -0.75 -4.0 -1.9 -4.0 -3.6 -4.0 -5.25 -2.85 -6.45 -1.65 -7.6 0.0 -7.6 1.65 -7.6 2.8 -6.45 4.0 -5.25 4.0 -3.6 4.0 -1.9 2.8 -0.75" fill="#695f01" fill-rule="evenodd" stroke="none"/>
      <path d="M4.0 -3.35 Q3.95 -0.7 -0.05 -0.8 -4.05 -0.95 -4.0 -3.35 L-4.0 -3.6 Q-4.0 -5.25 -2.85 -6.45 -1.65 -7.6 0.0 -7.6 1.65 -7.6 2.8 -6.45 4.0 -5.25 4.0 -3.6 L4.0 -3.35" fill="#c2bd01" fill-rule="evenodd" stroke="none"/>
      <path d="M2.15 -3.0 Q1.25 -2.25 -0.05 -2.25 -1.4 -2.25 -2.3 -3.0 -3.2 -3.75 -3.2 -4.8 -3.2 -5.85 -2.3 -6.6 -1.4 -7.35 -0.05 -7.35 1.25 -7.35 2.15 -6.6 3.1 -5.85 3.1 -4.8 3.1 -3.75 2.15 -3.0" fill="#ffff00" fill-rule="evenodd" stroke="none"/>
    </g>
    <g id="shape5">
      <path d="M600.0 380.0 L0.0 380.0 0.0 220.0 600.0 220.0 600.0 380.0" fill="#ff0000" fill-rule="evenodd" stroke="none"/>
    </g>
    <g id="button1">
      <g class="button" transform="matrix(1.0, 0.0, 0.0, 1.0, 0.0, 0.0)">
        <g class="button-frame button-frame-over" transform="matrix(1.0, 0.0, 0.0, 1.0, 0.0, 0.0)">
          <use ffdec:characterId="5" height="8.0" transform="matrix(2.5375, 0.0, 0.0, 2.5375, 23.1, 24.75)" width="8.0" xlink:href="#sprite1"/>
        </g>
        <g class="button-frame button-frame-down" transform="matrix(1.0, 0.0, 0.0, 1.0, 0.0, 0.0)">
          <use ffdec:characterId="5" height="8.0" transform="matrix(2.9181, 0.0, 0.0, 2.1647, 23.1, 25.25)" width="8.0" xlink:href="#sprite1"/>
        </g>
        <g class="button-frame button-frame-hittest" transform="matrix(1.0, 0.0, 0.0, 1.0, 0.0, 0.0)">
          <use ffdec:characterId="3" height="160.0" transform="matrix(0.3833, 0.0, 0.0, 0.1875, 0.0, -41.25)" width="600.0" xlink:href="#shape5"/>
        </g>
      </g>
    </g>
    <g id="button2">
      <g class="button" transform="matrix(1.0, 0.0, 0.0, 1.0, 0.0, 0.0)">
        <g class="button-frame button-frame-over" transform="matrix(1.0, 0.0, 0.0, 1.0, 0.0, 0.0)">
          <use ffdec:characterId="5" height="8.0" transform="matrix(2.5375, 0.0, 0.0, 2.5375, 23.1, 24.75)" width="8.0" xlink:href="#sprite1"/>
        </g>
        <g class="button-frame button-frame-down" transform="matrix(1.0, 0.0, 0.0, 1.0, 0.0, 0.0)">
          <use ffdec:characterId="5" height="8.0" transform="matrix(2.9181, 0.0, 0.0, 2.1647, 23.1, 25.25)" width="8.0" xlink:href="#sprite1"/>
        </g>
        <g class="button-frame button-frame-hittest" transform="matrix(1.0, 0.0, 0.0, 1.0, 0.0, 0.0)">
          <use ffdec:characterId="3" height="160.0" transform="matrix(0.3833, 0.0, 0.0, 0.1875, 0.0, -41.25)" width="600.0" xlink:href="#shape5"/>
        </g>
      </g>
    </g>
    <g id="text1">
      <g transform="matrix(1.0, 0.0, 0.0, 1.0, 0.0, 0.0)">
        <use fill="#ffffff" height="69.7" transform="matrix(1.3281, 0.0, 0.0, 1.3281, 80.0, 69.0)" width="367.0" xlink:href="#font_Vagabond_T0"/>
      </g>
      <g transform="matrix(1.0, 0.0, 0.0, 1.0, 0.0, 0.0)">
        <use fill="#ffffff" height="69.7" transform="matrix(1.3281, 0.0, 0.0, 1.3281, 113.0, 69.0)" width="367.0" xlink:href="#font_Vagabond_E0"/>
      </g>
      <g transform="matrix(1.0, 0.0, 0.0, 1.0, 0.0, 0.0)">
        <use fill="#ffffff" height="69.7" transform="matrix(1.3281, 0.0, 0.0, 1.3281, 146.0, 69.0)" width="367.0" xlink:href="#font_Vagabond_N0"/>
      </g>
      <g transform="matrix(1.0, 0.0, 0.0, 1.0, 0.0, 0.0)">
        <use fill="#ffffff" height="69.7" transform="matrix(1.3281, 0.0, 0.0, 1.3281, 179.0, 69.0)" width="367.0" xlink:href="#font_Vagabond_N0"/>
      </g>
      <g transform="matrix(1.0, 0.0, 0.0, 1.0, 0.0, 0.0)">
        <use fill="#ffffff" height="69.7" transform="matrix(1.3281, 0.0, 0.0, 1.3281, 212.0, 69.0)" width="367.0" xlink:href="#font_Vagabond_I0"/>
      </g>
      <g transform="matrix(1.0, 0.0, 0.0, 1.0, 0.0, 0.0)">
        <use fill="#ffffff" height="69.7" transform="matrix(1.3281, 0.0, 0.0, 1.3281, 245.0, 69.0)" width="367.0" xlink:href="#font_Vagabond_S0"/>
      </g>
      <g transform="matrix(1.0, 0.0, 0.0, 1.0, 0.0, 0.0)">
        <use fill="#ffffff" height="69.7" transform="matrix(1.3281, 0.0, 0.0, 1.3281, 311.0, 69.0)" width="367.0" xlink:href="#font_Vagabond_G0"/>
      </g>
      <g transform="matrix(1.0, 0.0, 0.0, 1.0, 0.0, 0.0)">
        <use fill="#ffffff" height="69.7" transform="matrix(1.3281, 0.0, 0.0, 1.3281, 344.0, 69.0)" width="367.0" xlink:href="#font_Vagabond_A0"/>
      </g>
      <g transform="matrix(1.0, 0.0, 0.0, 1.0, 0.0, 0.0)">
        <use fill="#ffffff" height="69.7" transform="matrix(1.3281, 0.0, 0.0, 1.3281, 377.0, 69.0)" width="367.0" xlink:href="#font_Vagabond_M0"/>
      </g>
      <g transform="matrix(1.0, 0.0, 0.0, 1.0, 0.0, 0.0)">
        <use fill="#ffffff" height="69.7" transform="matrix(1.3281, 0.0, 0.0, 1.3281, 410.0, 69.0)" width="367.0" xlink:href="#font_Vagabond_E0"/>
      </g>
    </g>
    <g id="font_Vagabond_T0">
      <path d="M17.25 -0.8 L17.25 -1.95 15.5 -1.95 Q14.7 -1.95 14.2 -2.3 13.75 -2.65 13.75 -3.45 L13.75 -30.35 Q13.75 -32.1 13.9 -32.25 14.05 -32.45 16.0 -32.45 18.75 -32.45 19.6 -31.4 20.5 -30.35 22.05 -26.3 L23.0 -26.45 21.45 -33.8 3.05 -33.8 1.35 -26.45 2.45 -26.3 Q4.05 -30.5 5.1 -31.5 6.15 -32.45 8.9 -32.45 10.25 -32.45 10.45 -32.25 10.65 -32.1 10.65 -30.5 L10.65 -3.45 Q10.65 -2.65 10.25 -2.3 9.85 -1.95 8.9 -1.95 L7.15 -1.95 7.15 -0.8 17.25 -0.8" fill-rule="evenodd" stroke="none"/>
    </g>
    <g id="font_Vagabond_E0">
      <path d="M1.35 -32.65 L2.4 -32.65 Q3.4 -32.65 3.85 -32.25 4.25 -31.9 4.25 -31.1 L4.25 -3.45 Q4.25 -2.65 3.9 -2.3 3.5 -1.95 2.5 -1.95 L1.35 -1.95 1.35 -0.8 21.05 -0.8 23.2 -8.3 22.25 -8.7 Q21.05 -5.2 19.0 -3.55 17.0 -1.95 14.1 -1.95 L9.05 -1.95 Q8.3 -1.95 7.8 -2.3 7.4 -2.65 7.4 -3.45 L7.4 -17.95 12.95 -17.95 Q14.9 -17.95 15.75 -16.8 16.65 -15.65 16.65 -13.5 L16.65 -12.7 17.8 -12.7 17.8 -24.15 16.65 -24.15 16.65 -23.0 Q16.65 -21.05 15.75 -20.1 14.9 -19.1 12.95 -19.1 L7.4 -19.1 7.4 -31.1 Q7.4 -31.9 7.8 -32.25 8.3 -32.65 9.05 -32.65 L14.5 -32.65 Q16.6 -32.65 18.35 -31.2 20.1 -29.75 21.65 -26.9 L22.6 -27.2 20.45 -33.8 1.35 -33.8 1.35 -32.65" fill-rule="evenodd" stroke="none"/>
    </g>
    <g id="font_Vagabond_N0">
      <path d="M19.55 -8.5 L6.5 -33.8 0.4 -33.8 0.4 -32.65 1.7 -32.65 Q2.75 -32.65 3.2 -32.25 3.7 -31.9 3.7 -31.1 L3.7 -3.45 Q3.7 -2.65 3.3 -2.3 2.9 -1.95 1.95 -1.95 L0.4 -1.95 0.4 -0.8 8.15 -0.8 8.15 -1.95 6.6 -1.95 Q5.8 -1.95 5.35 -2.3 4.85 -2.65 4.85 -3.45 L4.85 -29.55 5.2 -29.55 20.05 -0.8 19.95 -0.8 21.1 -0.8 21.1 -31.1 Q21.1 -31.9 21.6 -32.25 22.1 -32.65 22.85 -32.65 L24.4 -32.65 24.4 -33.8 16.65 -33.8 16.65 -32.65 18.2 -32.65 Q19.15 -32.65 19.55 -32.25 19.95 -31.9 19.95 -31.1 L19.95 -8.5 19.55 -8.5" fill-rule="evenodd" stroke="none"/>
    </g>
    <g id="font_Vagabond_I0">
      <path d="M4.6 -32.65 L9.05 -32.65 Q10.05 -32.65 10.45 -32.25 10.8 -31.9 10.8 -31.1 L10.8 -3.45 Q10.8 -2.65 10.45 -2.3 10.05 -1.95 9.05 -1.95 L4.6 -1.95 4.6 -0.8 20.15 -0.8 20.15 -1.95 15.65 -1.95 Q14.9 -1.95 14.4 -2.3 13.95 -2.65 13.95 -3.45 L13.95 -31.1 Q13.95 -31.9 14.4 -32.25 14.9 -32.65 15.65 -32.65 L20.15 -32.65 20.15 -33.8 4.6 -33.8 4.6 -32.65" fill-rule="evenodd" stroke="none"/>
    </g>
    <g id="font_Vagabond_S0">
      <path d="M11.55 -16.6 Q15.45 -14.85 17.3 -13.0 19.1 -11.2 19.1 -9.25 19.1 -5.6 17.45 -3.65 15.8 -1.75 12.5 -1.75 9.45 -1.75 7.05 -3.55 4.6 -5.4 3.25 -10.25 L2.15 -9.85 3.65 -0.4 5.0 -1.35 Q5.6 -1.75 6.15 -1.75 7.15 -1.75 8.75 -1.05 10.4 -0.4 12.35 -0.4 17.0 -0.4 19.4 -3.05 21.85 -5.75 21.85 -9.25 21.85 -12.5 19.8 -14.95 17.75 -17.35 13.1 -19.3 7.5 -21.8 6.25 -23.05 5.05 -24.3 5.05 -26.45 5.05 -28.8 6.35 -30.8 7.7 -32.85 11.4 -32.85 14.25 -32.85 16.1 -31.4 17.95 -29.95 19.7 -25.9 L20.65 -26.25 19.9 -34.2 Q19.5 -33.45 19.0 -33.15 18.55 -32.85 17.95 -32.85 17.2 -32.85 15.45 -33.55 13.75 -34.2 11.8 -34.2 7.35 -34.2 4.9 -31.6 2.5 -28.95 2.5 -26.05 2.5 -22.4 4.4 -20.65 6.35 -18.95 11.55 -16.6" fill-rule="evenodd" stroke="none"/>
    </g>
    <g id="font_Vagabond_G0">
      <path d="M12.55 -32.85 Q15.05 -32.85 16.8 -31.0 18.55 -29.15 19.7 -25.15 L20.85 -25.5 19.3 -34.2 Q18.95 -33.65 18.35 -33.35 17.75 -33.05 17.2 -33.05 16.8 -33.05 15.25 -33.65 13.7 -34.2 12.55 -34.2 7.7 -34.2 4.5 -29.05 1.35 -23.9 1.35 -16.8 1.35 -10.65 4.05 -5.5 6.75 -0.4 12.5 -0.4 14.05 -0.4 15.35 -0.8 16.6 -1.15 17.75 -2.15 18.15 -2.5 18.55 -2.6 L19.3 -2.7 Q19.7 -2.7 20.0 -2.6 L20.65 -2.35 20.65 -12.0 Q20.65 -12.95 21.25 -13.55 21.85 -14.1 22.8 -14.1 L23.8 -14.1 23.8 -15.3 14.05 -15.3 14.05 -14.1 15.25 -14.1 Q16.4 -14.1 17.0 -13.55 17.55 -12.95 17.55 -11.8 L17.55 -5.2 Q17.35 -3.45 16.1 -2.55 14.85 -1.75 12.7 -1.75 8.5 -1.75 6.65 -6.55 4.85 -11.4 4.85 -16.8 4.85 -24.9 7.25 -28.85 9.65 -32.85 12.55 -32.85" fill-rule="evenodd" stroke="none"/>
    </g>
    <g id="font_Vagabond_A0">
      <path d="M11.55 -30.35 L15.4 -14.3 7.4 -14.3 11.4 -30.35 11.55 -30.35 M15.5 -13.15 L17.5 -4.6 Q17.9 -3.25 17.6 -2.55 17.3 -1.95 16.15 -1.95 L15.4 -1.95 15.4 -0.8 23.8 -0.8 23.8 -1.95 23.2 -1.95 Q22.4 -1.95 21.85 -2.4 21.25 -2.85 20.85 -4.05 L13.5 -34.6 10.55 -33.6 3.05 -4.05 Q2.85 -2.85 2.3 -2.4 1.7 -1.95 0.9 -1.95 L0.4 -1.95 0.4 -0.8 7.5 -0.8 7.5 -1.95 6.95 -1.95 Q5.6 -1.95 5.2 -2.95 4.8 -4.05 5.2 -5.75 L7.1 -13.15 15.5 -13.15" fill-rule="evenodd" stroke="none"/>
    </g>
    <g id="font_Vagabond_M0">
      <path d="M21.65 -3.45 L21.65 -31.1 Q21.65 -31.9 22.15 -32.25 22.6 -32.65 23.4 -32.65 L24.15 -32.65 24.15 -33.8 17.9 -33.8 11.85 -8.75 11.45 -8.75 6.0 -33.8 0.6 -33.8 0.6 -32.65 1.25 -32.65 Q2.2 -32.65 2.5 -32.25 2.9 -31.9 2.9 -31.1 L2.9 -3.45 Q2.9 -2.65 2.5 -2.3 2.15 -1.95 1.15 -1.95 L0.6 -1.95 0.6 -0.8 6.4 -0.8 6.4 -1.95 5.8 -1.95 Q5.05 -1.95 4.55 -2.3 4.1 -2.65 4.1 -3.45 L4.1 -28.2 4.4 -28.2 10.45 -0.8 10.45 -0.8 11.55 -0.8 18.15 -28.8 18.55 -28.8 18.55 -3.45 Q18.55 -2.65 18.15 -2.3 17.75 -1.95 16.8 -1.95 L15.8 -1.95 15.8 -0.8 24.15 -0.8 24.15 -1.95 23.4 -1.95 Q22.6 -1.95 22.15 -2.3 21.65 -2.65 21.65 -3.45" fill-rule="evenodd" stroke="none"/>
    </g>
    <g id="text2">
      <g transform="matrix(1.0, 0.0, 0.0, 1.0, 0.0, 0.0)">
        <use fill="#ffffff" height="83.5" transform="matrix(0.3223, 0.0, 0.0, 0.3223, 0.0, 17.0)" width="388.0" xlink:href="#font_Vagabond_K0"/>
      </g>
      <g transform="matrix(1.0, 0.0, 0.0, 1.0, 0.0, 0.0)">
        <use fill="#ffffff" height="83.5" transform="matrix(0.3223, 0.0, 0.0, 0.3223, 8.0, 17.0)" width="388.0" xlink:href="#font_Vagabond_e0"/>
      </g>
      <g transform="matrix(1.0, 0.0, 0.0, 1.0, 0.0, 0.0)">
        <use fill="#ffffff" height="83.5" transform="matrix(0.3223, 0.0, 0.0, 0.3223, 16.0, 17.0)" width="388.0" xlink:href="#font_Vagabond_y0"/>
      </g>
      <g transform="matrix(1.0, 0.0, 0.0, 1.0, 0.0, 0.0)">
        <use fill="#ffffff" height="83.5" transform="matrix(0.3223, 0.0, 0.0, 0.3223, 32.0, 17.0)" width="388.0" xlink:href="#font_Vagabond_O0"/>
      </g>
      <g transform="matrix(1.0, 0.0, 0.0, 1.0, 0.0, 0.0)">
        <use fill="#ffffff" height="83.5" transform="matrix(0.3223, 0.0, 0.0, 0.3223, 40.0, 17.0)" width="388.0" xlink:href="#font_Vagabond_p0"/>
      </g>
      <g transform="matrix(1.0, 0.0, 0.0, 1.0, 0.0, 0.0)">
        <use fill="#ffffff" height="83.5" transform="matrix(0.3223, 0.0, 0.0, 0.3223, 48.0, 17.0)" width="388.0" xlink:href="#font_Vagabond_e0"/>
      </g>
      <g transform="matrix(1.0, 0.0, 0.0, 1.0, 0.0, 0.0)">
        <use fill="#ffffff" height="83.5" transform="matrix(0.3223, 0.0, 0.0, 0.3223, 56.0, 17.0)" width="388.0" xlink:href="#font_Vagabond_r0"/>
      </g>
      <g transform="matrix(1.0, 0.0, 0.0, 1.0, 0.0, 0.0)">
        <use fill="#ffffff" height="83.5" transform="matrix(0.3223, 0.0, 0.0, 0.3223, 64.0, 17.0)" width="388.0" xlink:href="#font_Vagabond_a0"/>
      </g>
      <g transform="matrix(1.0, 0.0, 0.0, 1.0, 0.0, 0.0)">
        <use fill="#ffffff" height="83.5" transform="matrix(0.3223, 0.0, 0.0, 0.3223, 72.0, 17.0)" width="388.0" xlink:href="#font_Vagabond_t0"/>
      </g>
      <g transform="matrix(1.0, 0.0, 0.0, 1.0, 0.0, 0.0)">
        <use fill="#ffffff" height="83.5" transform="matrix(0.3223, 0.0, 0.0, 0.3223, 80.0, 17.0)" width="388.0" xlink:href="#font_Vagabond_i0"/>
      </g>
      <g transform="matrix(1.0, 0.0, 0.0, 1.0, 0.0, 0.0)">
        <use fill="#ffffff" height="83.5" transform="matrix(0.3223, 0.0, 0.0, 0.3223, 88.0, 17.0)" width="388.0" xlink:href="#font_Vagabond_o0"/>
      </g>
      <g transform="matrix(1.0, 0.0, 0.0, 1.0, 0.0, 0.0)">
        <use fill="#ffffff" height="83.5" transform="matrix(0.3223, 0.0, 0.0, 0.3223, 96.0, 17.0)" width="388.0" xlink:href="#font_Vagabond_n0"/>
      </g>
      <g transform="matrix(1.0, 0.0, 0.0, 1.0, 0.0, 0.0)">
        <use fill="#ffffff" height="83.5" transform="matrix(0.3223, 0.0, 0.0, 0.3223, 104.0, 17.0)" width="388.0" xlink:href="#font_Vagabond_:0"/>
      </g>
      <g transform="matrix(1.0, 0.0, 0.0, 1.0, 0.0, 0.0)">
        <use fill="#ffffff" height="83.5" transform="matrix(0.3223, 0.0, 0.0, 0.3223, 0.0, 32.9)" width="388.0" xlink:href="#font_Vagabond_S0"/>
      </g>
      <g transform="matrix(1.0, 0.0, 0.0, 1.0, 0.0, 0.0)">
        <use fill="#ffffff" height="83.5" transform="matrix(0.3223, 0.0, 0.0, 0.3223, 8.0, 32.9)" width="388.0" xlink:href="#font_Vagabond_p0"/>
      </g>
      <g transform="matrix(1.0, 0.0, 0.0, 1.0, 0.0, 0.0)">
        <use fill="#ffffff" height="83.5" transform="matrix(0.3223, 0.0, 0.0, 0.3223, 16.0, 32.9)" width="388.0" xlink:href="#font_Vagabond_a0"/>
      </g>
      <g transform="matrix(1.0, 0.0, 0.0, 1.0, 0.0, 0.0)">
        <use fill="#ffffff" height="83.5" transform="matrix(0.3223, 0.0, 0.0, 0.3223, 24.0, 32.9)" width="388.0" xlink:href="#font_Vagabond_c0"/>
      </g>
      <g transform="matrix(1.0, 0.0, 0.0, 1.0, 0.0, 0.0)">
        <use fill="#ffffff" height="83.5" transform="matrix(0.3223, 0.0, 0.0, 0.3223, 32.0, 32.9)" width="388.0" xlink:href="#font_Vagabond_e0"/>
      </g>
      <g transform="matrix(1.0, 0.0, 0.0, 1.0, 0.0, 0.0)">
        <use fill="#ffffff" height="83.5" transform="matrix(0.3223, 0.0, 0.0, 0.3223, 48.0, 32.9)" width="388.0" xlink:href="#font_Vagabond_k0"/>
      </g>
      <g transform="matrix(1.0, 0.0, 0.0, 1.0, 0.0, 0.0)">
        <use fill="#ffffff" height="83.5" transform="matrix(0.3223, 0.0, 0.0, 0.3223, 56.0, 32.9)" width="388.0" xlink:href="#font_Vagabond_e0"/>
      </g>
      <g transform="matrix(1.0, 0.0, 0.0, 1.0, 0.0, 0.0)">
        <use fill="#ffffff" height="83.5" transform="matrix(0.3223, 0.0, 0.0, 0.3223, 64.0, 32.9)" width="388.0" xlink:href="#font_Vagabond_y0"/>
      </g>
      <g transform="matrix(1.0, 0.0, 0.0, 1.0, 0.0, 0.0)">
        <use fill="#ffffff" height="83.5" transform="matrix(0.3223, 0.0, 0.0, 0.3223, 80.0, 32.9)" width="388.0" xlink:href="#font_Vagabond_t0"/>
      </g>
      <g transform="matrix(1.0, 0.0, 0.0, 1.0, 0.0, 0.0)">
        <use fill="#ffffff" height="83.5" transform="matrix(0.3223, 0.0, 0.0, 0.3223, 88.0, 32.9)" width="388.0" xlink:href="#font_Vagabond_o0"/>
      </g>
      <g transform="matrix(1.0, 0.0, 0.0, 1.0, 0.0, 0.0)">
        <use fill="#ffffff" height="83.5" transform="matrix(0.3223, 0.0, 0.0, 0.3223, 104.0, 32.9)" width="388.0" xlink:href="#font_Vagabond_h0"/>
      </g>
      <g transform="matrix(1.0, 0.0, 0.0, 1.0, 0.0, 0.0)">
        <use fill="#ffffff" height="83.5" transform="matrix(0.3223, 0.0, 0.0, 0.3223, 112.0, 32.9)" width="388.0" xlink:href="#font_Vagabond_i0"/>
      </g>
      <g transform="matrix(1.0, 0.0, 0.0, 1.0, 0.0, 0.0)">
        <use fill="#ffffff" height="83.5" transform="matrix(0.3223, 0.0, 0.0, 0.3223, 120.0, 32.9)" width="388.0" xlink:href="#font_Vagabond_t0"/>
      </g>
      <g transform="matrix(1.0, 0.0, 0.0, 1.0, 0.0, 0.0)">
        <use fill="#ffffff" height="83.5" transform="matrix(0.3223, 0.0, 0.0, 0.3223, 136.0, 32.9)" width="388.0" xlink:href="#font_Vagabond_t0"/>
      </g>
      <g transform="matrix(1.0, 0.0, 0.0, 1.0, 0.0, 0.0)">
        <use fill="#ffffff" height="83.5" transform="matrix(0.3223, 0.0, 0.0, 0.3223, 144.0, 32.9)" width="388.0" xlink:href="#font_Vagabond_h0"/>
      </g>
      <g transform="matrix(1.0, 0.0, 0.0, 1.0, 0.0, 0.0)">
        <use fill="#ffffff" height="83.5" transform="matrix(0.3223, 0.0, 0.0, 0.3223, 152.0, 32.9)" width="388.0" xlink:href="#font_Vagabond_e0"/>
      </g>
      <g transform="matrix(1.0, 0.0, 0.0, 1.0, 0.0, 0.0)">
        <use fill="#ffffff" height="83.5" transform="matrix(0.3223, 0.0, 0.0, 0.3223, 168.0, 32.9)" width="388.0" xlink:href="#font_Vagabond_b0"/>
      </g>
      <g transform="matrix(1.0, 0.0, 0.0, 1.0, 0.0, 0.0)">
        <use fill="#ffffff" height="83.5" transform="matrix(0.3223, 0.0, 0.0, 0.3223, 176.0, 32.9)" width="388.0" xlink:href="#font_Vagabond_a0"/>
      </g>
      <g transform="matrix(1.0, 0.0, 0.0, 1.0, 0.0, 0.0)">
        <use fill="#ffffff" height="83.5" transform="matrix(0.3223, 0.0, 0.0, 0.3223, 184.0, 32.9)" width="388.0" xlink:href="#font_Vagabond_l0"/>
      </g>
      <g transform="matrix(1.0, 0.0, 0.0, 1.0, 0.0, 0.0)">
        <use fill="#ffffff" height="83.5" transform="matrix(0.3223, 0.0, 0.0, 0.3223, 192.0, 32.9)" width="388.0" xlink:href="#font_Vagabond_l0"/>
      </g>
      <g transform="matrix(1.0, 0.0, 0.0, 1.0, 0.0, 0.0)">
        <use fill="#ffffff" height="83.5" transform="matrix(0.3223, 0.0, 0.0, 0.3223, 200.0, 32.9)" width="388.0" xlink:href="#font_Vagabond_.0"/>
      </g>
      <g transform="matrix(1.0, 0.0, 0.0, 1.0, 0.0, 0.0)">
        <use fill="#ffffff" height="83.5" transform="matrix(0.3223, 0.0, 0.0, 0.3223, 0.0, 48.8)" width="388.0" xlink:href="#font_Vagabond_A0"/>
      </g>
      <g transform="matrix(1.0, 0.0, 0.0, 1.0, 0.0, 0.0)">
        <use fill="#ffffff" height="83.5" transform="matrix(0.3223, 0.0, 0.0, 0.3223, 8.0, 48.8)" width="388.0" xlink:href="#font_Vagabond_r0"/>
      </g>
      <g transform="matrix(1.0, 0.0, 0.0, 1.0, 0.0, 0.0)">
        <use fill="#ffffff" height="83.5" transform="matrix(0.3223, 0.0, 0.0, 0.3223, 16.0, 48.8)" width="388.0" xlink:href="#font_Vagabond_r0"/>
      </g>
      <g transform="matrix(1.0, 0.0, 0.0, 1.0, 0.0, 0.0)">
        <use fill="#ffffff" height="83.5" transform="matrix(0.3223, 0.0, 0.0, 0.3223, 24.0, 48.8)" width="388.0" xlink:href="#font_Vagabond_o0"/>
      </g>
      <g transform="matrix(1.0, 0.0, 0.0, 1.0, 0.0, 0.0)">
        <use fill="#ffffff" height="83.5" transform="matrix(0.3223, 0.0, 0.0, 0.3223, 32.0, 48.8)" width="388.0" xlink:href="#font_Vagabond_w0"/>
      </g>
      <g transform="matrix(1.0, 0.0, 0.0, 1.0, 0.0, 0.0)">
        <use fill="#ffffff" height="83.5" transform="matrix(0.3223, 0.0, 0.0, 0.3223, 48.0, 48.8)" width="388.0" xlink:href="#font_Vagabond_k0"/>
      </g>
      <g transform="matrix(1.0, 0.0, 0.0, 1.0, 0.0, 0.0)">
        <use fill="#ffffff" height="83.5" transform="matrix(0.3223, 0.0, 0.0, 0.3223, 56.0, 48.8)" width="388.0" xlink:href="#font_Vagabond_e0"/>
      </g>
      <g transform="matrix(1.0, 0.0, 0.0, 1.0, 0.0, 0.0)">
        <use fill="#ffffff" height="83.5" transform="matrix(0.3223, 0.0, 0.0, 0.3223, 64.0, 48.8)" width="388.0" xlink:href="#font_Vagabond_y0"/>
      </g>
      <g transform="matrix(1.0, 0.0, 0.0, 1.0, 0.0, 0.0)">
        <use fill="#ffffff" height="83.5" transform="matrix(0.3223, 0.0, 0.0, 0.3223, 80.0, 48.8)" width="388.0" xlink:href="#font_Vagabond_t0"/>
      </g>
      <g transform="matrix(1.0, 0.0, 0.0, 1.0, 0.0, 0.0)">
        <use fill="#ffffff" height="83.5" transform="matrix(0.3223, 0.0, 0.0, 0.3223, 88.0, 48.8)" width="388.0" xlink:href="#font_Vagabond_o0"/>
      </g>
      <g transform="matrix(1.0, 0.0, 0.0, 1.0, 0.0, 0.0)">
        <use fill="#ffffff" height="83.5" transform="matrix(0.3223, 0.0, 0.0, 0.3223, 104.0, 48.8)" width="388.0" xlink:href="#font_Vagabond_m0"/>
      </g>
      <g transform="matrix(1.0, 0.0, 0.0, 1.0, 0.0, 0.0)">
        <use fill="#ffffff" height="83.5" transform="matrix(0.3223, 0.0, 0.0, 0.3223, 112.0, 48.8)" width="388.0" xlink:href="#font_Vagabond_o0"/>
      </g>
      <g transform="matrix(1.0, 0.0, 0.0, 1.0, 0.0, 0.0)">
        <use fill="#ffffff" height="83.5" transform="matrix(0.3223, 0.0, 0.0, 0.3223, 120.0, 48.8)" width="388.0" xlink:href="#font_Vagabond_v0"/>
      </g>
      <g transform="matrix(1.0, 0.0, 0.0, 1.0, 0.0, 0.0)">
        <use fill="#ffffff" height="83.5" transform="matrix(0.3223, 0.0, 0.0, 0.3223, 128.0, 48.8)" width="388.0" xlink:href="#font_Vagabond_e0"/>
      </g>
      <g transform="matrix(1.0, 0.0, 0.0, 1.0, 0.0, 0.0)">
        <use fill="#ffffff" height="83.5" transform="matrix(0.3223, 0.0, 0.0, 0.3223, 144.0, 48.8)" width="388.0" xlink:href="#font_Vagabond_o0"/>
      </g>
      <g transform="matrix(1.0, 0.0, 0.0, 1.0, 0.0, 0.0)">
        <use fill="#ffffff" height="83.5" transform="matrix(0.3223, 0.0, 0.0, 0.3223, 152.0, 48.8)" width="388.0" xlink:href="#font_Vagabond_r0"/>
      </g>
      <g transform="matrix(1.0, 0.0, 0.0, 1.0, 0.0, 0.0)">
        <use fill="#ffffff" height="83.5" transform="matrix(0.3223, 0.0, 0.0, 0.3223, 176.0, 48.8)" width="388.0" xlink:href="#font_Vagabond_t0"/>
      </g>
      <g transform="matrix(1.0, 0.0, 0.0, 1.0, 0.0, 0.0)">
        <use fill="#ffffff" height="83.5" transform="matrix(0.3223, 0.0, 0.0, 0.3223, 184.0, 48.8)" width="388.0" xlink:href="#font_Vagabond_o0"/>
      </g>
      <g transform="matrix(1.0, 0.0, 0.0, 1.0, 0.0, 0.0)">
        <use fill="#ffffff" height="83.5" transform="matrix(0.3223, 0.0, 0.0, 0.3223, 200.0, 48.8)" width="388.0" xlink:href="#font_Vagabond_a0"/>
      </g>
      <g transform="matrix(1.0, 0.0, 0.0, 1.0, 0.0, 0.0)">
        <use fill="#ffffff" height="83.5" transform="matrix(0.3223, 0.0, 0.0, 0.3223, 208.0, 48.8)" width="388.0" xlink:href="#font_Vagabond_i0"/>
      </g>
      <g transform="matrix(1.0, 0.0, 0.0, 1.0, 0.0, 0.0)">
        <use fill="#ffffff" height="83.5" transform="matrix(0.3223, 0.0, 0.0, 0.3223, 216.0, 48.8)" width="388.0" xlink:href="#font_Vagabond_m0"/>
      </g>
      <g transform="matrix(1.0, 0.0, 0.0, 1.0, 0.0, 0.0)">
        <use fill="#ffffff" height="83.5" transform="matrix(0.3223, 0.0, 0.0, 0.3223, 232.0, 48.8)" width="388.0" xlink:href="#font_Vagabond_t0"/>
      </g>
      <g transform="matrix(1.0, 0.0, 0.0, 1.0, 0.0, 0.0)">
        <use fill="#ffffff" height="83.5" transform="matrix(0.3223, 0.0, 0.0, 0.3223, 240.0, 48.8)" width="388.0" xlink:href="#font_Vagabond_h0"/>
      </g>
      <g transform="matrix(1.0, 0.0, 0.0, 1.0, 0.0, 0.0)">
        <use fill="#ffffff" height="83.5" transform="matrix(0.3223, 0.0, 0.0, 0.3223, 248.0, 48.8)" width="388.0" xlink:href="#font_Vagabond_e0"/>
      </g>
      <g transform="matrix(1.0, 0.0, 0.0, 1.0, 0.0, 0.0)">
        <use fill="#ffffff" height="83.5" transform="matrix(0.3223, 0.0, 0.0, 0.3223, 264.0, 48.8)" width="388.0" xlink:href="#font_Vagabond_b0"/>
      </g>
      <g transform="matrix(1.0, 0.0, 0.0, 1.0, 0.0, 0.0)">
        <use fill="#ffffff" height="83.5" transform="matrix(0.3223, 0.0, 0.0, 0.3223, 272.0, 48.8)" width="388.0" xlink:href="#font_Vagabond_a0"/>
      </g>
      <g transform="matrix(1.0, 0.0, 0.0, 1.0, 0.0, 0.0)">
        <use fill="#ffffff" height="83.5" transform="matrix(0.3223, 0.0, 0.0, 0.3223, 280.0, 48.8)" width="388.0" xlink:href="#font_Vagabond_l0"/>
      </g>
      <g transform="matrix(1.0, 0.0, 0.0, 1.0, 0.0, 0.0)">
        <use fill="#ffffff" height="83.5" transform="matrix(0.3223, 0.0, 0.0, 0.3223, 288.0, 48.8)" width="388.0" xlink:href="#font_Vagabond_l0"/>
      </g>
      <g transform="matrix(1.0, 0.0, 0.0, 1.0, 0.0, 0.0)">
        <use fill="#ffffff" height="83.5" transform="matrix(0.3223, 0.0, 0.0, 0.3223, 304.0, 48.8)" width="388.0" xlink:href="#font_Vagabond_d0"/>
      </g>
      <g transform="matrix(1.0, 0.0, 0.0, 1.0, 0.0, 0.0)">
        <use fill="#ffffff" height="83.5" transform="matrix(0.3223, 0.0, 0.0, 0.3223, 312.0, 48.8)" width="388.0" xlink:href="#font_Vagabond_i0"/>
      </g>
      <g transform="matrix(1.0, 0.0, 0.0, 1.0, 0.0, 0.0)">
        <use fill="#ffffff" height="83.5" transform="matrix(0.3223, 0.0, 0.0, 0.3223, 320.0, 48.8)" width="388.0" xlink:href="#font_Vagabond_r0"/>
      </g>
      <g transform="matrix(1.0, 0.0, 0.0, 1.0, 0.0, 0.0)">
        <use fill="#ffffff" height="83.5" transform="matrix(0.3223, 0.0, 0.0, 0.3223, 328.0, 48.8)" width="388.0" xlink:href="#font_Vagabond_e0"/>
      </g>
      <g transform="matrix(1.0, 0.0, 0.0, 1.0, 0.0, 0.0)">
        <use fill="#ffffff" height="83.5" transform="matrix(0.3223, 0.0, 0.0, 0.3223, 336.0, 48.8)" width="388.0" xlink:href="#font_Vagabond_c0"/>
      </g>
      <g transform="matrix(1.0, 0.0, 0.0, 1.0, 0.0, 0.0)">
        <use fill="#ffffff" height="83.5" transform="matrix(0.3223, 0.0, 0.0, 0.3223, 344.0, 48.8)" width="388.0" xlink:href="#font_Vagabond_t0"/>
      </g>
      <g transform="matrix(1.0, 0.0, 0.0, 1.0, 0.0, 0.0)">
        <use fill="#ffffff" height="83.5" transform="matrix(0.3223, 0.0, 0.0, 0.3223, 352.0, 48.8)" width="388.0" xlink:href="#font_Vagabond_i0"/>
      </g>
      <g transform="matrix(1.0, 0.0, 0.0, 1.0, 0.0, 0.0)">
        <use fill="#ffffff" height="83.5" transform="matrix(0.3223, 0.0, 0.0, 0.3223, 360.0, 48.8)" width="388.0" xlink:href="#font_Vagabond_o0"/>
      </g>
      <g transform="matrix(1.0, 0.0, 0.0, 1.0, 0.0, 0.0)">
        <use fill="#ffffff" height="83.5" transform="matrix(0.3223, 0.0, 0.0, 0.3223, 368.0, 48.8)" width="388.0" xlink:href="#font_Vagabond_n0"/>
      </g>
      <g transform="matrix(1.0, 0.0, 0.0, 1.0, 0.0, 0.0)">
        <use fill="#ffffff" height="83.5" transform="matrix(0.3223, 0.0, 0.0, 0.3223, 0.0, 64.7)" width="388.0" xlink:href="#font_Vagabond_a0"/>
      </g>
      <g transform="matrix(1.0, 0.0, 0.0, 1.0, 0.0, 0.0)">
        <use fill="#ffffff" height="83.5" transform="matrix(0.3223, 0.0, 0.0, 0.3223, 8.0, 64.7)" width="388.0" xlink:href="#font_Vagabond_t0"/>
      </g>
      <g transform="matrix(1.0, 0.0, 0.0, 1.0, 0.0, 0.0)">
        <use fill="#ffffff" height="83.5" transform="matrix(0.3223, 0.0, 0.0, 0.3223, 24.0, 64.7)" width="388.0" xlink:href="#font_Vagabond_t0"/>
      </g>
      <g transform="matrix(1.0, 0.0, 0.0, 1.0, 0.0, 0.0)">
        <use fill="#ffffff" height="83.5" transform="matrix(0.3223, 0.0, 0.0, 0.3223, 32.0, 64.7)" width="388.0" xlink:href="#font_Vagabond_h0"/>
      </g>
      <g transform="matrix(1.0, 0.0, 0.0, 1.0, 0.0, 0.0)">
        <use fill="#ffffff" height="83.5" transform="matrix(0.3223, 0.0, 0.0, 0.3223, 40.0, 64.7)" width="388.0" xlink:href="#font_Vagabond_e0"/>
      </g>
      <g transform="matrix(1.0, 0.0, 0.0, 1.0, 0.0, 0.0)">
        <use fill="#ffffff" height="83.5" transform="matrix(0.3223, 0.0, 0.0, 0.3223, 56.0, 64.7)" width="388.0" xlink:href="#font_Vagabond_m0"/>
      </g>
      <g transform="matrix(1.0, 0.0, 0.0, 1.0, 0.0, 0.0)">
        <use fill="#ffffff" height="83.5" transform="matrix(0.3223, 0.0, 0.0, 0.3223, 64.0, 64.7)" width="388.0" xlink:href="#font_Vagabond_o0"/>
      </g>
      <g transform="matrix(1.0, 0.0, 0.0, 1.0, 0.0, 0.0)">
        <use fill="#ffffff" height="83.5" transform="matrix(0.3223, 0.0, 0.0, 0.3223, 72.0, 64.7)" width="388.0" xlink:href="#font_Vagabond_m0"/>
      </g>
      <g transform="matrix(1.0, 0.0, 0.0, 1.0, 0.0, 0.0)">
        <use fill="#ffffff" height="83.5" transform="matrix(0.3223, 0.0, 0.0, 0.3223, 80.0, 64.7)" width="388.0" xlink:href="#font_Vagabond_e0"/>
      </g>
      <g transform="matrix(1.0, 0.0, 0.0, 1.0, 0.0, 0.0)">
        <use fill="#ffffff" height="83.5" transform="matrix(0.3223, 0.0, 0.0, 0.3223, 88.0, 64.7)" width="388.0" xlink:href="#font_Vagabond_n0"/>
      </g>
      <g transform="matrix(1.0, 0.0, 0.0, 1.0, 0.0, 0.0)">
        <use fill="#ffffff" height="83.5" transform="matrix(0.3223, 0.0, 0.0, 0.3223, 96.0, 64.7)" width="388.0" xlink:href="#font_Vagabond_t0"/>
      </g>
      <g transform="matrix(1.0, 0.0, 0.0, 1.0, 0.0, 0.0)">
        <use fill="#ffffff" height="83.5" transform="matrix(0.3223, 0.0, 0.0, 0.3223, 112.0, 64.7)" width="388.0" xlink:href="#font_Vagabond_o0"/>
      </g>
      <g transform="matrix(1.0, 0.0, 0.0, 1.0, 0.0, 0.0)">
        <use fill="#ffffff" height="83.5" transform="matrix(0.3223, 0.0, 0.0, 0.3223, 120.0, 64.7)" width="388.0" xlink:href="#font_Vagabond_f0"/>
      </g>
      <g transform="matrix(1.0, 0.0, 0.0, 1.0, 0.0, 0.0)">
        <use fill="#ffffff" height="83.5" transform="matrix(0.3223, 0.0, 0.0, 0.3223, 136.0, 64.7)" width="388.0" xlink:href="#font_Vagabond_s0"/>
      </g>
      <g transform="matrix(1.0, 0.0, 0.0, 1.0, 0.0, 0.0)">
        <use fill="#ffffff" height="83.5" transform="matrix(0.3223, 0.0, 0.0, 0.3223, 144.0, 64.7)" width="388.0" xlink:href="#font_Vagabond_t0"/>
      </g>
      <g transform="matrix(1.0, 0.0, 0.0, 1.0, 0.0, 0.0)">
        <use fill="#ffffff" height="83.5" transform="matrix(0.3223, 0.0, 0.0, 0.3223, 152.0, 64.7)" width="388.0" xlink:href="#font_Vagabond_r0"/>
      </g>
      <g transform="matrix(1.0, 0.0, 0.0, 1.0, 0.0, 0.0)">
        <use fill="#ffffff" height="83.5" transform="matrix(0.3223, 0.0, 0.0, 0.3223, 160.0, 64.7)" width="388.0" xlink:href="#font_Vagabond_o0"/>
      </g>
      <g transform="matrix(1.0, 0.0, 0.0, 1.0, 0.0, 0.0)">
        <use fill="#ffffff" height="83.5" transform="matrix(0.3223, 0.0, 0.0, 0.3223, 168.0, 64.7)" width="388.0" xlink:href="#font_Vagabond_k0"/>
      </g>
      <g transform="matrix(1.0, 0.0, 0.0, 1.0, 0.0, 0.0)">
        <use fill="#ffffff" height="83.5" transform="matrix(0.3223, 0.0, 0.0, 0.3223, 176.0, 64.7)" width="388.0" xlink:href="#font_Vagabond_e0"/>
      </g>
      <g transform="matrix(1.0, 0.0, 0.0, 1.0, 0.0, 0.0)">
        <use fill="#ffffff" height="83.5" transform="matrix(0.3223, 0.0, 0.0, 0.3223, 184.0, 64.7)" width="388.0" xlink:href="#font_Vagabond_.0"/>
      </g>
      <g transform="matrix(1.0, 0.0, 0.0, 1.0, 0.0, 0.0)">
        <use fill="#ffffff" height="83.5" transform="matrix(0.3223, 0.0, 0.0, 0.3223, 0.0, 80.6)" width="388.0" xlink:href="#font_Vagabond_G0"/>
      </g>
      <g transform="matrix(1.0, 0.0, 0.0, 1.0, 0.0, 0.0)">
        <use fill="#ffffff" height="83.5" transform="matrix(0.3223, 0.0, 0.0, 0.3223, 8.0, 80.6)" width="388.0" xlink:href="#font_Vagabond_e0"/>
      </g>
      <g transform="matrix(1.0, 0.0, 0.0, 1.0, 0.0, 0.0)">
        <use fill="#ffffff" height="83.5" transform="matrix(0.3223, 0.0, 0.0, 0.3223, 16.0, 80.6)" width="388.0" xlink:href="#font_Vagabond_t0"/>
      </g>
      <g transform="matrix(1.0, 0.0, 0.0, 1.0, 0.0, 0.0)">
        <use fill="#ffffff" height="83.5" transform="matrix(0.3223, 0.0, 0.0, 0.3223, 24.0, 80.6)" width="388.0" xlink:href="#font_Vagabond_t0"/>
      </g>
      <g transform="matrix(1.0, 0.0, 0.0, 1.0, 0.0, 0.0)">
        <use fill="#ffffff" height="83.5" transform="matrix(0.3223, 0.0, 0.0, 0.3223, 32.0, 80.6)" width="388.0" xlink:href="#font_Vagabond_i0"/>
      </g>
      <g transform="matrix(1.0, 0.0, 0.0, 1.0, 0.0, 0.0)">
        <use fill="#ffffff" height="83.5" transform="matrix(0.3223, 0.0, 0.0, 0.3223, 40.0, 80.6)" width="388.0" xlink:href="#font_Vagabond_n0"/>
      </g>
      <g transform="matrix(1.0, 0.0, 0.0, 1.0, 0.0, 0.0)">
        <use fill="#ffffff" height="83.5" transform="matrix(0.3223, 0.0, 0.0, 0.3223, 48.0, 80.6)" width="388.0" xlink:href="#font_Vagabond_g0"/>
      </g>
      <g transform="matrix(1.0, 0.0, 0.0, 1.0, 0.0, 0.0)">
        <use fill="#ffffff" height="83.5" transform="matrix(0.3223, 0.0, 0.0, 0.3223, 64.0, 80.6)" width="388.0" xlink:href="#font_Vagabond_30"/>
      </g>
      <g transform="matrix(1.0, 0.0, 0.0, 1.0, 0.0, 0.0)">
        <use fill="#ffffff" height="83.5" transform="matrix(0.3223, 0.0, 0.0, 0.3223, 80.0, 80.6)" width="388.0" xlink:href="#font_Vagabond_g0"/>
      </g>
      <g transform="matrix(1.0, 0.0, 0.0, 1.0, 0.0, 0.0)">
        <use fill="#ffffff" height="83.5" transform="matrix(0.3223, 0.0, 0.0, 0.3223, 88.0, 80.6)" width="388.0" xlink:href="#font_Vagabond_a0"/>
      </g>
      <g transform="matrix(1.0, 0.0, 0.0, 1.0, 0.0, 0.0)">
        <use fill="#ffffff" height="83.5" transform="matrix(0.3223, 0.0, 0.0, 0.3223, 96.0, 80.6)" width="388.0" xlink:href="#font_Vagabond_m0"/>
      </g>
      <g transform="matrix(1.0, 0.0, 0.0, 1.0, 0.0, 0.0)">
        <use fill="#ffffff" height="83.5" transform="matrix(0.3223, 0.0, 0.0, 0.3223, 104.0, 80.6)" width="388.0" xlink:href="#font_Vagabond_e0"/>
      </g>
      <g transform="matrix(1.0, 0.0, 0.0, 1.0, 0.0, 0.0)">
        <use fill="#ffffff" height="83.5" transform="matrix(0.3223, 0.0, 0.0, 0.3223, 112.0, 80.6)" width="388.0" xlink:href="#font_Vagabond_s0"/>
      </g>
      <g transform="matrix(1.0, 0.0, 0.0, 1.0, 0.0, 0.0)">
        <use fill="#ffffff" height="83.5" transform="matrix(0.3223, 0.0, 0.0, 0.3223, 128.0, 80.6)" width="388.0" xlink:href="#font_Vagabond_f0"/>
      </g>
      <g transform="matrix(1.0, 0.0, 0.0, 1.0, 0.0, 0.0)">
        <use fill="#ffffff" height="83.5" transform="matrix(0.3223, 0.0, 0.0, 0.3223, 136.0, 80.6)" width="388.0" xlink:href="#font_Vagabond_i0"/>
      </g>
      <g transform="matrix(1.0, 0.0, 0.0, 1.0, 0.0, 0.0)">
        <use fill="#ffffff" height="83.5" transform="matrix(0.3223, 0.0, 0.0, 0.3223, 144.0, 80.6)" width="388.0" xlink:href="#font_Vagabond_r0"/>
      </g>
      <g transform="matrix(1.0, 0.0, 0.0, 1.0, 0.0, 0.0)">
        <use fill="#ffffff" height="83.5" transform="matrix(0.3223, 0.0, 0.0, 0.3223, 152.0, 80.6)" width="388.0" xlink:href="#font_Vagabond_s0"/>
      </g>
      <g transform="matrix(1.0, 0.0, 0.0, 1.0, 0.0, 0.0)">
        <use fill="#ffffff" height="83.5" transform="matrix(0.3223, 0.0, 0.0, 0.3223, 160.0, 80.6)" width="388.0" xlink:href="#font_Vagabond_t0"/>
      </g>
      <g transform="matrix(1.0, 0.0, 0.0, 1.0, 0.0, 0.0)">
        <use fill="#ffffff" height="83.5" transform="matrix(0.3223, 0.0, 0.0, 0.3223, 184.0, 80.6)" width="388.0" xlink:href="#font_Vagabond_t0"/>
      </g>
      <g transform="matrix(1.0, 0.0, 0.0, 1.0, 0.0, 0.0)">
        <use fill="#ffffff" height="83.5" transform="matrix(0.3223, 0.0, 0.0, 0.3223, 192.0, 80.6)" width="388.0" xlink:href="#font_Vagabond_o0"/>
      </g>
      <g transform="matrix(1.0, 0.0, 0.0, 1.0, 0.0, 0.0)">
        <use fill="#ffffff" height="83.5" transform="matrix(0.3223, 0.0, 0.0, 0.3223, 208.0, 80.6)" width="388.0" xlink:href="#font_Vagabond_w0"/>
      </g>
      <g transform="matrix(1.0, 0.0, 0.0, 1.0, 0.0, 0.0)">
        <use fill="#ffffff" height="83.5" transform="matrix(0.3223, 0.0, 0.0, 0.3223, 216.0, 80.6)" width="388.0" xlink:href="#font_Vagabond_i0"/>
      </g>
      <g transform="matrix(1.0, 0.0, 0.0, 1.0, 0.0, 0.0)">
        <use fill="#ffffff" height="83.5" transform="matrix(0.3223, 0.0, 0.0, 0.3223, 224.0, 80.6)" width="388.0" xlink:href="#font_Vagabond_n0"/>
      </g>
      <g transform="matrix(1.0, 0.0, 0.0, 1.0, 0.0, 0.0)">
        <use fill="#ffffff" height="83.5" transform="matrix(0.3223, 0.0, 0.0, 0.3223, 232.0, 80.6)" width="388.0" xlink:href="#font_Vagabond_.0"/>
      </g>
    </g>
    <g id="font_Vagabond_K0">
      <path d="M23.8 -0.8 L23.8 -1.95 22.8 -1.95 Q22.4 -1.95 21.75 -2.4 21.05 -2.85 20.5 -4.05 L12.25 -21.7 18.35 -30.35 Q19.3 -31.5 20.3 -32.1 21.25 -32.65 22.25 -32.65 L22.6 -32.65 22.6 -33.8 14.2 -33.8 14.2 -32.65 15.0 -32.65 Q16.35 -32.65 16.75 -32.0 17.15 -31.3 16.15 -29.95 L7.2 -17.0 7.2 -31.1 Q7.2 -31.9 7.65 -32.25 8.15 -32.65 8.95 -32.65 L10.1 -32.65 10.1 -33.8 1.15 -33.8 1.15 -32.65 2.35 -32.65 Q3.3 -32.65 3.7 -32.25 4.1 -31.9 4.1 -31.1 L4.1 -3.45 Q4.1 -2.65 3.7 -2.3 3.3 -1.95 2.35 -1.95 L1.15 -1.95 1.15 -0.8 10.1 -0.8 10.1 -1.95 8.95 -1.95 Q8.15 -1.95 7.65 -2.3 7.2 -2.65 7.2 -3.45 L7.2 -14.45 10.3 -18.9 16.8 -4.8 Q17.55 -3.45 17.35 -2.65 17.2 -1.95 16.0 -1.95 L15.45 -1.95 15.45 -0.8 23.8 -0.8" fill-rule="evenodd" stroke="none"/>
    </g>
    <g id="font_Vagabond_e0">
      <path d="M6.2 -11.6 L21.85 -11.6 Q21.85 -17.75 19.1 -20.3 16.4 -22.8 12.7 -22.8 8.7 -22.8 5.85 -19.6 3.1 -16.4 3.1 -11.6 3.1 -6.15 5.85 -3.25 8.7 -0.4 13.1 -0.4 16.6 -0.4 18.65 -2.4 20.65 -4.4 21.25 -6.55 L20.3 -6.95 Q19.5 -4.8 17.75 -3.35 16.0 -1.95 13.55 -1.95 10.25 -1.95 8.2 -4.1 6.2 -6.35 6.2 -11.6 M18.55 -12.75 L6.2 -12.75 Q6.2 -16.8 8.0 -19.1 9.85 -21.45 12.7 -21.45 15.45 -21.45 17.05 -19.2 18.7 -17.0 18.55 -12.75" fill-rule="evenodd" stroke="none"/>
    </g>
    <g id="font_Vagabond_y0">
      <path d="M12.9 -5.75 L8.1 -19.3 Q7.9 -20.3 8.3 -20.75 8.7 -21.25 9.45 -21.25 L10.2 -21.25 10.2 -22.4 2.15 -22.4 2.15 -21.25 2.85 -21.25 Q3.65 -21.25 4.3 -20.75 5.0 -20.3 5.2 -19.5 L11.8 -2.45 Q11.4 -0.8 10.85 0.75 10.35 2.3 9.8 3.3 9.6 3.65 9.15 3.75 8.8 3.9 8.2 3.9 7.8 3.9 7.0 3.2 6.2 2.5 5.45 2.5 4.45 2.5 4.0 3.1 3.5 3.7 3.5 4.25 3.5 5.25 4.2 5.75 5.0 6.2 6.35 6.2 8.7 6.2 10.15 4.55 11.6 2.95 12.55 0.05 L19.1 -19.1 Q19.5 -20.1 20.3 -20.65 21.05 -21.25 21.85 -21.25 L23.0 -21.25 23.0 -22.4 14.85 -22.4 14.85 -21.25 16.0 -21.25 Q16.8 -21.25 17.3 -20.65 17.75 -20.1 17.35 -19.1 L13.1 -6.35 12.9 -5.75" fill-rule="evenodd" stroke="none"/>
    </g>
    <g id="font_Vagabond_O0">
      <path d="M23.4 -17.35 Q23.4 -24.3 20.5 -29.25 17.55 -34.2 12.55 -34.2 7.7 -34.2 4.7 -29.55 1.75 -24.9 1.75 -17.35 1.75 -9.65 4.9 -5.0 8.1 -0.4 12.55 -0.4 17.2 -0.4 20.3 -4.9 23.4 -9.45 23.4 -17.35 M5.45 -17.35 Q5.45 -25.1 7.35 -28.95 9.25 -32.85 12.55 -32.85 16.4 -32.85 18.05 -28.6 19.7 -24.3 19.7 -17.35 19.7 -8.7 17.75 -5.1 15.8 -1.55 12.55 -1.55 9.45 -1.55 7.4 -5.3 5.45 -9.05 5.45 -17.35" fill-rule="evenodd" stroke="none"/>
    </g>
    <g id="font_Vagabond_p0">
      <path d="M7.0 -5.75 L7.0 -16.6 Q8.3 -18.95 10.05 -20.0 11.8 -21.05 13.55 -21.05 16.45 -21.05 17.9 -18.75 19.35 -16.4 19.35 -11.75 19.35 -6.75 17.4 -4.3 15.5 -1.95 12.75 -1.95 10.8 -1.95 9.35 -2.85 7.9 -3.85 7.0 -5.75 M8.95 5.2 Q8.15 5.2 7.55 4.8 7.0 4.45 7.0 3.5 L7.0 -3.25 Q8.3 -1.9 9.75 -1.2 11.2 -0.6 13.35 -0.6 17.05 -0.6 19.75 -3.45 22.45 -6.35 22.45 -11.75 22.45 -17.35 19.95 -20.0 17.4 -22.6 13.55 -22.6 11.6 -22.6 9.95 -21.65 8.3 -20.65 7.0 -18.75 L7.0 -23.2 6.6 -23.2 Q5.8 -22.6 4.95 -22.4 4.1 -22.25 3.1 -22.25 L1.35 -22.25 1.35 -21.05 2.5 -21.05 Q3.5 -21.05 3.9 -20.6 4.25 -20.1 4.25 -19.3 L4.25 3.5 Q4.25 4.45 3.9 4.8 3.5 5.2 2.5 5.2 L1.35 5.2 1.35 6.35 10.3 6.35 10.3 5.2 8.95 5.2" fill-rule="evenodd" stroke="none"/>
    </g>
    <g id="font_Vagabond_r0">
      <path d="M9.85 -16.4 L9.85 -23.4 9.2 -23.4 Q8.25 -23.0 6.35 -22.7 4.45 -22.4 3.05 -22.4 L1.5 -22.4 1.5 -21.25 5.3 -21.25 Q6.3 -21.25 6.7 -20.75 7.15 -20.3 7.15 -19.5 L7.15 -3.45 Q7.15 -2.65 6.75 -2.3 6.35 -1.95 5.4 -1.95 L1.5 -1.95 1.5 -0.8 15.85 -0.8 15.85 -1.95 11.6 -1.95 Q10.8 -1.95 10.35 -2.3 9.85 -2.65 9.85 -3.45 L9.85 -13.9 Q11.55 -17.35 13.8 -19.3 16.0 -21.25 17.55 -21.25 18.55 -21.25 18.75 -20.85 18.95 -20.5 18.95 -19.9 18.75 -18.95 19.2 -18.35 19.7 -17.75 20.65 -17.75 21.65 -17.75 22.15 -18.35 22.6 -18.95 22.6 -19.9 22.6 -21.05 21.55 -21.95 20.5 -22.8 18.55 -22.8 16.2 -22.8 14.0 -21.15 11.75 -19.5 9.85 -16.4" fill-rule="evenodd" stroke="none"/>
    </g>
    <g id="font_Vagabond_a0">
      <path d="M5.45 -6.55 Q5.45 -9.25 7.9 -11.1 10.45 -12.95 17.05 -13.75 L17.05 -4.6 Q15.1 -3.25 13.35 -2.55 11.6 -1.95 9.85 -1.95 7.5 -1.95 6.45 -3.35 5.45 -4.8 5.45 -6.55 M9.45 -0.6 Q11.8 -0.6 13.45 -1.2 15.1 -1.9 17.05 -3.25 17.4 -1.9 18.2 -1.3 18.95 -0.8 20.35 -0.8 21.9 -0.8 22.85 -1.85 23.85 -2.9 23.85 -5.65 L22.85 -5.65 Q22.85 -4.1 22.45 -3.2 22.1 -2.35 21.1 -2.35 20.35 -2.35 20.05 -2.55 19.75 -2.85 19.75 -4.4 L19.75 -17.2 Q19.75 -19.9 17.8 -21.35 15.85 -22.8 12.0 -22.8 8.3 -22.8 5.75 -21.25 3.3 -19.7 3.3 -17.95 3.3 -17.0 3.8 -16.5 4.25 -16.05 5.05 -16.05 6.2 -16.05 6.55 -16.8 6.95 -17.55 6.6 -18.35 6.2 -19.5 7.5 -20.6 8.9 -21.65 12.2 -21.65 15.3 -21.65 16.15 -20.4 17.05 -19.1 17.05 -17.2 L17.05 -14.9 Q8.1 -13.95 5.1 -11.7 2.15 -9.45 2.15 -5.95 2.15 -3.85 4.05 -2.2 5.95 -0.6 9.45 -0.6" fill-rule="evenodd" stroke="none"/>
    </g>
    <g id="font_Vagabond_t0">
      <path d="M11.6 -6.95 L11.6 -21.25 19.3 -21.25 19.3 -22.4 11.6 -22.4 11.6 -29.95 10.45 -29.95 10.25 -28.4 Q9.85 -25.3 8.4 -23.85 6.95 -22.4 4.6 -22.4 L3.05 -22.4 3.05 -21.25 8.9 -21.25 8.9 -7.7 Q8.9 -4.05 10.3 -2.3 11.75 -0.6 14.65 -0.6 17.35 -0.6 19.0 -2.3 20.65 -4.05 21.05 -6.75 L20.1 -7.15 Q19.7 -4.8 18.55 -3.55 17.35 -2.35 15.45 -2.35 13.5 -2.35 12.5 -3.25 11.6 -4.2 11.6 -6.95" fill-rule="evenodd" stroke="none"/>
    </g>
    <g id="font_Vagabond_i0">
      <path d="M12.55 -34.2 Q11.6 -34.2 10.8 -33.55 10.05 -32.85 10.05 -31.9 10.05 -30.9 10.8 -30.15 11.6 -29.35 12.55 -29.35 13.55 -29.35 14.3 -30.15 15.1 -30.9 15.1 -31.9 15.1 -32.85 14.3 -33.55 13.55 -34.2 12.55 -34.2 M11.0 -19.5 L11.0 -3.45 Q11.0 -2.65 10.65 -2.3 10.25 -1.95 9.25 -1.95 L5.2 -1.95 5.2 -0.8 19.55 -0.8 19.55 -1.95 15.5 -1.95 Q14.7 -1.95 14.2 -2.3 13.75 -2.65 13.75 -3.45 L13.75 -23.8 13.35 -23.8 Q12.0 -23.0 10.45 -22.7 8.9 -22.4 7.15 -22.4 L5.2 -22.4 5.2 -21.25 9.25 -21.25 Q10.25 -21.25 10.65 -20.75 11.0 -20.3 11.0 -19.5" fill-rule="evenodd" stroke="none"/>
    </g>
    <g id="font_Vagabond_o0">
      <path d="M5.45 -11.4 Q5.45 -16.4 7.5 -19.0 9.65 -21.65 12.35 -21.65 15.3 -21.65 17.3 -19.0 19.35 -16.4 19.35 -11.4 19.35 -6.75 17.5 -4.1 15.65 -1.55 12.35 -1.55 9.45 -1.55 7.4 -3.95 5.45 -6.35 5.45 -11.4 M22.45 -11.6 Q22.45 -15.8 19.75 -19.3 17.05 -22.8 12.35 -22.8 7.9 -22.8 5.1 -19.3 2.35 -15.8 2.35 -11.6 2.35 -6.95 5.1 -3.65 7.9 -0.4 12.35 -0.4 16.65 -0.4 19.55 -3.55 22.45 -6.75 22.45 -11.6" fill-rule="evenodd" stroke="none"/>
    </g>
    <g id="font_Vagabond_n0">
      <path d="M1.55 -0.8 L9.7 -0.8 9.7 -1.95 8.75 -1.95 Q7.95 -1.95 7.45 -2.3 7.0 -2.65 7.0 -3.45 L7.0 -16.8 Q8.5 -18.95 10.35 -20.1 12.2 -21.25 13.95 -21.25 15.85 -21.25 16.85 -20.0 17.8 -18.75 17.8 -16.4 L17.8 -3.45 Q17.8 -2.65 17.4 -2.3 17.05 -1.95 16.05 -1.95 L15.1 -1.95 15.1 -0.8 23.25 -0.8 23.25 -1.95 22.25 -1.95 Q21.5 -1.95 21.0 -2.3 20.55 -2.65 20.55 -3.45 L20.55 -15.8 Q20.55 -19.3 18.95 -21.05 17.4 -22.8 14.1 -22.8 12.2 -22.8 10.45 -21.85 8.7 -20.85 7.0 -18.95 L7.0 -23.4 6.55 -23.4 Q5.75 -22.8 4.85 -22.6 3.95 -22.4 2.95 -22.4 L1.55 -22.4 1.55 -21.25 3.2 -21.25 Q3.85 -21.25 4.05 -20.95 4.25 -20.65 4.25 -20.1 L4.25 -3.45 Q4.25 -2.65 3.9 -2.3 3.5 -1.95 2.5 -1.95 L1.55 -1.95 1.55 -0.8" fill-rule="evenodd" stroke="none"/>
    </g>
    <g id="font_Vagabond_:0">
      <path d="M14.7 -2.9 Q14.7 -4.1 13.95 -4.85 13.15 -5.65 12.0 -5.65 10.8 -5.65 10.05 -4.85 9.25 -4.1 9.25 -2.9 9.25 -1.75 10.05 -0.95 10.8 -0.2 12.0 -0.2 13.15 -0.2 13.95 -0.95 14.7 -1.75 14.7 -2.9 M14.7 -21.05 Q14.7 -22.25 13.95 -23.0 13.15 -23.8 12.0 -23.8 10.8 -23.8 10.05 -23.0 9.25 -22.25 9.25 -21.05 9.25 -19.9 10.05 -19.1 10.8 -18.35 12.0 -18.35 13.15 -18.35 13.95 -19.1 14.7 -19.9 14.7 -21.05" fill-rule="evenodd" stroke="none"/>
    </g>
    <g id="font_Vagabond_c0">
      <path d="M16.6 -17.2 Q16.6 -16.4 17.1 -15.9 17.55 -15.5 18.35 -15.5 19.3 -15.5 19.8 -15.9 20.3 -16.4 20.3 -17.55 20.3 -19.3 18.45 -21.05 16.6 -22.8 13.3 -22.8 8.7 -22.8 5.75 -19.6 2.9 -16.4 2.9 -11.6 2.9 -6.15 5.6 -3.25 8.3 -0.4 12.9 -0.4 16.6 -0.4 18.75 -2.4 20.85 -4.4 21.65 -7.35 L20.65 -7.7 Q19.9 -5.4 18.05 -3.65 16.2 -1.95 13.55 -1.95 9.45 -1.95 7.7 -4.5 6.0 -7.15 6.0 -11.4 6.0 -16.0 8.0 -18.85 10.05 -21.65 12.9 -21.65 15.25 -21.65 16.2 -20.6 17.2 -19.5 17.0 -18.75 L16.7 -17.95 Q16.6 -17.75 16.6 -17.2" fill-rule="evenodd" stroke="none"/>
    </g>
    <g id="font_Vagabond_k0">
      <path d="M12.95 -14.6 L17.45 -20.0 Q18.25 -20.7 19.1 -20.95 20.05 -21.25 20.6 -21.25 L21.65 -21.25 21.65 -22.4 13.5 -22.4 13.5 -21.25 14.65 -21.25 Q15.45 -21.25 15.55 -20.75 15.65 -20.3 15.25 -19.5 L7.2 -10.8 7.2 -35.4 6.8 -35.4 Q6.2 -34.6 5.35 -34.2 4.5 -33.8 3.4 -33.8 L1.75 -33.8 1.75 -32.65 2.8 -32.65 Q3.75 -32.65 4.1 -32.25 4.45 -31.9 4.45 -31.1 L4.45 -3.45 Q4.45 -2.65 4.1 -2.3 3.7 -1.95 2.7 -1.95 L1.75 -1.95 1.75 -0.8 9.9 -0.8 9.9 -1.95 8.95 -1.95 Q8.15 -1.95 7.65 -2.3 7.2 -2.65 7.2 -3.45 L7.2 -8.7 11.2 -12.7 17.05 -3.3 Q17.6 -2.5 17.25 -2.25 16.85 -1.95 15.85 -1.95 L15.3 -1.95 15.3 -0.8 23.2 -0.8 23.2 -1.95 22.4 -1.95 Q21.85 -1.95 21.35 -2.2 20.85 -2.45 20.3 -3.25 L12.95 -14.6" fill-rule="evenodd" stroke="none"/>
    </g>
    <g id="font_Vagabond_h0">
      <path d="M1.55 -0.8 L9.7 -0.8 9.7 -1.95 8.75 -1.95 Q7.95 -1.95 7.45 -2.3 7.0 -2.65 7.0 -3.45 L7.0 -16.8 Q8.7 -19.1 10.55 -20.1 12.35 -21.05 13.95 -21.05 15.65 -21.05 16.75 -20.0 17.8 -18.95 17.8 -15.65 L17.8 -3.45 Q17.8 -2.65 17.4 -2.3 17.05 -1.95 16.05 -1.95 L15.1 -1.95 15.1 -0.8 23.25 -0.8 23.25 -1.95 22.25 -1.95 Q21.5 -1.95 21.0 -2.3 20.55 -2.65 20.55 -3.45 L20.55 -16.0 Q20.55 -19.5 18.95 -21.15 17.4 -22.8 14.5 -22.8 12.35 -22.8 10.55 -21.95 8.7 -21.05 7.0 -18.95 L7.0 -35.4 6.6 -35.4 Q5.8 -34.6 5.05 -34.2 4.3 -33.8 3.6 -33.8 L1.55 -33.8 1.55 -32.65 2.6 -32.65 Q3.55 -32.65 3.9 -32.25 4.25 -31.9 4.25 -31.1 L4.25 -3.45 Q4.25 -2.65 3.9 -2.3 3.5 -1.95 2.5 -1.95 L1.55 -1.95 1.55 -0.8" fill-rule="evenodd" stroke="none"/>
    </g>
    <g id="font_Vagabond_b0">
      <path d="M6.8 -7.15 L6.8 -14.85 Q7.9 -18.35 9.65 -19.7 11.4 -21.05 13.75 -21.05 16.45 -21.05 17.7 -18.65 18.95 -16.2 18.95 -11.55 18.95 -6.75 17.5 -4.3 16.05 -1.95 12.55 -1.95 9.65 -1.95 8.2 -3.45 6.8 -5.0 6.8 -7.15 M6.8 -17.95 L6.8 -35.4 Q5.8 -34.6 4.85 -34.2 3.9 -33.8 2.9 -33.8 L1.15 -33.8 1.15 -32.65 2.35 -32.65 Q3.3 -32.65 3.7 -32.25 4.1 -31.9 4.1 -31.1 L4.1 -0.8 4.8 -0.8 6.55 -3.05 Q7.7 -1.9 9.35 -1.2 11.0 -0.6 12.95 -0.6 16.85 -0.6 19.45 -3.35 22.1 -6.15 22.1 -11.6 22.1 -17.0 20.05 -19.8 18.0 -22.6 13.95 -22.6 12.0 -22.6 9.85 -21.35 7.7 -20.1 6.8 -17.95" fill-rule="evenodd" stroke="none"/>
    </g>
    <g id="font_Vagabond_l0">
      <path d="M6.95 -33.8 L4.8 -33.8 4.8 -32.65 9.15 -32.65 Q10.2 -32.65 10.6 -32.25 11.0 -31.9 11.0 -31.1 L11.0 -3.45 Q11.0 -2.65 10.65 -2.3 10.25 -1.95 9.25 -1.95 L4.8 -1.95 4.8 -0.8 19.95 -0.8 19.95 -1.95 15.5 -1.95 Q14.7 -1.95 14.2 -2.3 13.75 -2.65 13.75 -3.45 L13.75 -35.4 13.3 -35.4 Q11.95 -34.6 10.35 -34.2 8.75 -33.8 6.95 -33.8" fill-rule="evenodd" stroke="none"/>
    </g>
    <g id="font_Vagabond_.0">
      <path d="M6.2 -0.2 Q7.4 -0.2 8.25 -0.95 9.1 -1.75 9.1 -3.1 9.1 -4.25 8.25 -5.15 7.4 -6.0 6.2 -6.0 5.05 -6.0 4.15 -5.25 3.3 -4.45 3.3 -3.1 3.3 -1.75 4.15 -0.95 5.05 -0.2 6.2 -0.2" fill-rule="evenodd" stroke="none"/>
    </g>
    <g id="font_Vagabond_w0">
      <path d="M17.95 -22.4 L17.95 -21.25 18.95 -21.25 Q19.7 -21.25 20.1 -20.85 20.5 -20.5 20.3 -19.7 L17.0 -6.2 16.8 -6.2 13.9 -18.75 Q13.7 -19.9 13.9 -20.6 14.05 -21.25 14.85 -21.25 L15.45 -21.25 15.45 -22.4 8.9 -22.4 8.9 -21.25 9.45 -21.25 Q10.25 -21.25 10.8 -20.35 11.4 -19.45 11.6 -17.7 L8.7 -6.1 8.25 -6.1 5.4 -18.75 Q5.2 -19.9 5.4 -20.6 5.6 -21.25 6.35 -21.25 L7.15 -21.25 7.15 -22.4 0.2 -22.4 0.2 -21.25 0.9 -21.25 Q1.5 -21.25 2.1 -20.5 2.65 -19.7 2.85 -18.35 L7.35 -0.6 8.5 -0.6 12.15 -15.25 15.65 -0.6 16.8 -0.6 21.45 -18.75 Q21.85 -20.1 22.4 -20.65 23.0 -21.25 23.8 -21.25 L24.55 -21.25 24.55 -22.4 17.95 -22.4" fill-rule="evenodd" stroke="none"/>
    </g>
    <g id="font_Vagabond_m0">
      <path d="M1.15 -22.4 L0.6 -22.4 0.6 -21.25 1.4 -21.25 Q2.1 -21.25 2.3 -20.95 2.5 -20.65 2.5 -20.1 L2.5 -3.25 Q2.5 -2.45 2.15 -2.2 1.75 -1.95 0.95 -1.95 L0.6 -1.95 0.6 -0.8 7.2 -0.8 7.2 -1.95 6.8 -1.95 Q6.0 -1.95 5.65 -2.2 5.25 -2.45 5.25 -3.25 L5.25 -17.35 Q5.75 -19.3 6.85 -20.3 7.9 -21.25 9.25 -21.25 10.45 -21.25 10.8 -20.4 11.2 -19.5 11.2 -17.75 L11.2 -3.25 Q11.2 -2.45 10.8 -2.2 10.45 -1.95 9.65 -1.95 L9.25 -1.95 9.25 -0.8 15.85 -0.8 15.85 -1.95 15.5 -1.95 Q14.7 -1.95 14.3 -2.2 13.95 -2.45 13.95 -3.25 L13.95 -17.55 Q14.45 -19.3 15.55 -20.3 16.6 -21.25 17.95 -21.25 18.95 -21.25 19.4 -20.6 19.9 -19.9 19.9 -17.75 L19.9 -3.25 Q19.9 -2.45 19.5 -2.2 19.1 -1.95 18.35 -1.95 L17.95 -1.95 17.95 -0.8 24.55 -0.8 24.55 -1.95 24.15 -1.95 Q23.4 -1.95 23.0 -2.2 22.6 -2.45 22.6 -3.25 L22.6 -17.95 Q22.6 -20.1 21.75 -21.45 20.85 -22.8 18.55 -22.8 17.2 -22.8 15.9 -22.15 14.65 -21.45 13.75 -19.9 13.55 -21.45 12.55 -22.15 11.6 -22.8 9.85 -22.8 8.5 -22.8 7.35 -22.15 6.15 -21.45 5.25 -19.9 L5.25 -23.2 4.8 -23.2 Q4.2 -22.8 3.2 -22.6 2.2 -22.4 1.15 -22.4" fill-rule="evenodd" stroke="none"/>
    </g>
    <g id="font_Vagabond_v0">
      <path d="M12.55 -0.6 L19.1 -18.55 Q19.7 -19.9 20.4 -20.6 21.05 -21.25 22.25 -21.25 L22.6 -21.25 22.6 -22.4 15.65 -22.4 15.65 -21.25 16.0 -21.25 Q17.2 -21.25 17.65 -20.6 18.15 -19.9 17.55 -18.55 L12.75 -5.75 12.35 -5.75 7.95 -18.75 Q7.55 -20.1 7.85 -20.65 8.15 -21.25 9.3 -21.25 L10.1 -21.25 10.1 -22.4 1.75 -22.4 1.75 -21.25 2.65 -21.25 Q3.45 -21.25 4.05 -20.75 4.6 -20.3 4.8 -19.5 L11.4 -0.6 12.55 -0.6" fill-rule="evenodd" stroke="none"/>
    </g>
    <g id="font_Vagabond_d0">
      <path d="M11.4 -0.6 Q13.55 -0.6 15.2 -1.6 16.85 -2.65 17.8 -4.4 L17.8 -0.8 18.2 -0.8 Q19.35 -1.35 20.45 -1.65 21.5 -1.95 22.25 -1.95 L23.45 -1.95 23.45 -3.1 22.1 -3.1 Q21.3 -3.1 20.9 -3.45 20.55 -3.85 20.55 -4.8 L20.55 -35.4 Q19.55 -34.6 18.6 -34.2 17.6 -33.8 16.65 -33.8 L14.5 -33.8 14.5 -32.65 16.05 -32.65 Q17.05 -32.65 17.4 -32.1 17.8 -31.5 17.8 -30.35 L17.8 -19.9 Q16.85 -21.25 15.2 -21.95 13.55 -22.6 12.0 -22.6 8.3 -22.6 5.6 -19.6 2.9 -16.6 2.9 -11.6 2.9 -6.15 5.4 -3.35 7.9 -0.6 11.4 -0.6 M17.8 -18.15 L17.8 -7.5 Q17.05 -4.8 15.6 -3.45 14.1 -2.15 12.0 -2.15 9.05 -2.15 7.5 -4.3 6.0 -6.55 6.0 -11.2 6.0 -15.65 7.6 -18.35 9.25 -21.05 12.2 -21.05 13.75 -21.05 15.3 -20.4 16.85 -19.7 17.8 -18.15" fill-rule="evenodd" stroke="none"/>
    </g>
    <g id="font_Vagabond_f0">
      <path d="M8.7 -25.65 L8.7 -22.4 2.65 -22.4 2.65 -21.25 8.7 -21.25 8.7 -3.45 Q8.7 -2.65 8.3 -2.3 7.9 -1.95 6.95 -1.95 L3.65 -1.95 3.65 -0.8 17.75 -0.8 17.75 -1.95 13.1 -1.95 Q12.35 -1.95 11.85 -2.3 11.4 -2.65 11.4 -3.45 L11.4 -21.25 19.5 -21.25 19.5 -22.4 11.4 -22.4 11.4 -26.25 Q11.4 -29.75 12.8 -31.2 14.25 -32.65 16.6 -32.65 18.75 -32.65 19.25 -32.15 19.85 -31.7 19.85 -30.9 L19.75 -30.35 19.7 -29.75 Q19.7 -28.8 20.2 -28.4 20.65 -28.0 21.45 -28.0 22.6 -28.0 23.0 -28.6 23.4 -29.15 23.4 -29.95 23.4 -31.5 21.75 -32.65 20.1 -33.8 16.8 -33.8 13.7 -33.8 11.15 -31.8 8.7 -29.75 8.7 -25.65" fill-rule="evenodd" stroke="none"/>
    </g>
    <g id="font_Vagabond_s0">
      <path d="M4.85 -16.8 Q4.85 -15.45 5.6 -14.25 6.35 -13.1 8.1 -12.35 L12.2 -10.7 16.45 -9.05 Q17.25 -8.7 18.0 -7.8 18.8 -6.95 18.8 -5.6 18.8 -3.65 17.3 -2.65 15.85 -1.75 13.15 -1.75 9.65 -1.75 7.7 -3.25 5.75 -4.8 5.2 -7.9 L4.1 -7.7 4.6 -0.6 6.05 -1.2 Q6.75 -1.5 7.35 -1.5 8.1 -1.5 9.35 -1.0 10.65 -0.6 13.15 -0.6 17.05 -0.6 19.05 -2.2 21.1 -3.85 21.1 -6.75 21.1 -8.3 20.05 -9.55 18.95 -10.8 17.4 -11.6 15.65 -12.35 13.65 -13.0 11.6 -13.7 10.25 -14.25 8.5 -14.65 7.8 -15.55 7.2 -16.4 7.2 -17.95 7.2 -19.7 8.6 -20.65 10.05 -21.65 12.55 -21.65 14.9 -21.65 16.75 -20.2 18.6 -18.75 19.35 -16.25 L20.55 -16.4 19.75 -22.8 Q19.15 -22.25 18.8 -22.05 18.4 -21.85 17.8 -21.85 17.25 -21.85 15.65 -22.3 14.1 -22.8 12.35 -22.8 9.25 -22.8 7.05 -21.25 4.85 -19.7 4.85 -16.8" fill-rule="evenodd" stroke="none"/>
    </g>
    <g id="font_Vagabond_g0">
      <path d="M8.3 -3.25 L13.15 -2.55 Q15.5 -2.3 17.4 -1.9 18.4 -1.7 18.9 -0.9 19.35 -0.2 19.35 1.15 19.35 3.3 17.4 4.3 15.5 5.4 12.2 5.4 8.7 5.4 6.95 4.05 5.25 2.7 5.25 1.15 5.25 -0.4 5.85 -1.4 6.55 -2.45 8.3 -3.25 M16.25 -4.8 L12.65 -5.3 8.1 -5.95 Q7.35 -5.95 6.95 -6.35 6.6 -6.75 6.6 -7.5 6.6 -7.9 6.95 -8.45 7.35 -9.05 8.1 -9.4 8.7 -9.05 9.65 -8.75 10.65 -8.5 11.8 -8.5 15.85 -8.5 17.7 -10.7 19.55 -12.9 19.55 -15.25 19.55 -16.6 19.15 -17.95 18.8 -19.3 18.0 -20.1 18.8 -20.65 19.45 -20.75 20.15 -20.85 20.35 -20.3 20.55 -19.7 20.9 -19.4 21.3 -19.1 21.9 -19.1 22.65 -19.1 22.95 -19.6 23.25 -20.1 23.25 -20.85 23.25 -21.45 22.85 -22.15 22.45 -22.8 21.5 -22.8 20.7 -22.8 19.65 -22.3 18.6 -21.85 17.25 -20.85 16.25 -21.85 14.8 -22.25 13.35 -22.6 11.8 -22.6 8.1 -22.6 6.05 -20.4 4.1 -18.15 4.1 -15.25 4.1 -13.7 4.9 -12.35 5.75 -10.95 6.95 -10.0 5.75 -9.4 5.0 -8.55 4.25 -7.7 4.25 -6.55 4.25 -5.6 4.9 -4.9 5.6 -4.2 6.75 -3.65 4.6 -2.85 3.65 -1.5 2.7 -0.2 2.7 1.15 2.7 3.3 5.2 4.9 7.7 6.55 11.8 6.55 17.05 6.55 19.45 4.8 21.9 3.1 21.9 0.2 21.9 -1.9 20.55 -3.15 19.15 -4.4 16.25 -4.8 M6.8 -15.25 Q6.8 -18.55 8.2 -20.0 9.65 -21.45 11.8 -21.45 13.95 -21.45 15.4 -20.0 16.85 -18.55 16.85 -15.25 16.85 -12.5 15.6 -11.05 14.3 -9.65 11.8 -9.65 9.45 -9.65 8.1 -11.25 6.8 -12.9 6.8 -15.25" fill-rule="evenodd" stroke="none"/>
    </g>
    <g id="font_Vagabond_30">
      <path d="M21.65 -9.6 Q21.65 -12.15 20.1 -14.65 18.55 -17.2 14.25 -18.75 17.35 -19.65 18.85 -21.7 20.3 -23.75 20.3 -26.65 20.3 -29.35 17.95 -31.8 15.65 -34.2 11.8 -34.2 8.5 -34.2 5.95 -32.35 3.5 -30.5 3.5 -27.6 3.5 -26.05 4.15 -25.5 4.85 -24.95 5.65 -24.95 6.6 -24.95 7.0 -25.5 7.4 -26.05 7.4 -27.05 7.4 -27.6 7.0 -28.0 6.6 -28.4 6.6 -29.95 6.6 -31.5 8.1 -32.15 9.65 -32.85 11.0 -32.85 14.05 -32.85 15.55 -30.8 17.0 -28.8 17.0 -26.05 17.0 -22.75 15.15 -20.9 13.3 -19.1 9.45 -19.1 L9.45 -17.75 Q14.45 -17.75 16.3 -15.65 18.15 -13.5 18.15 -10.0 18.15 -5.75 16.4 -3.75 14.65 -1.75 11.2 -1.75 9.45 -1.75 8.0 -2.45 6.6 -3.25 6.6 -4.4 6.6 -5.0 7.0 -5.7 7.4 -6.35 7.4 -7.35 7.4 -7.9 6.9 -8.8 6.4 -9.65 5.25 -9.65 4.45 -9.65 3.7 -8.8 2.9 -7.9 2.9 -6.75 2.9 -4.2 5.4 -2.3 7.9 -0.4 11.4 -0.4 16.2 -0.4 18.95 -3.15 21.65 -5.95 21.65 -9.6" fill-rule="evenodd" stroke="none"/>
    </g>
    <g id="text3">
      <g transform="matrix(1.0, 0.0, 0.0, 1.0, 0.0, 0.0)">
        <use fill="#ffffff" height="25.9" transform="matrix(0.4424, 0.0, 0.0, 0.4424, -70.3, 23.0)" width="114.0" xlink:href="#font_Vagabond_E0"/>
      </g>
      <g transform="matrix(1.0, 0.0, 0.0, 1.0, 0.0, 0.0)">
        <use fill="#ffffff" height="25.9" transform="matrix(0.4424, 0.0, 0.0, 0.4424, -59.3, 23.0)" width="114.0" xlink:href="#font_Vagabond_X0"/>
      </g>
      <g transform="matrix(1.0, 0.0, 0.0, 1.0, 0.0, 0.0)">
        <use fill="#ffffff" height="25.9" transform="matrix(0.4424, 0.0, 0.0, 0.4424, -48.3, 23.0)" width="114.0" xlink:href="#font_Vagabond_H0"/>
      </g>
      <g transform="matrix(1.0, 0.0, 0.0, 1.0, 0.0, 0.0)">
        <use fill="#ffffff" height="25.9" transform="matrix(0.4424, 0.0, 0.0, 0.4424, -37.3, 23.0)" width="114.0" xlink:href="#font_Vagabond_I0"/>
      </g>
      <g transform="matrix(1.0, 0.0, 0.0, 1.0, 0.0, 0.0)">
        <use fill="#ffffff" height="25.9" transform="matrix(0.4424, 0.0, 0.0, 0.4424, -26.3, 23.0)" width="114.0" xlink:href="#font_Vagabond_B0"/>
      </g>
      <g transform="matrix(1.0, 0.0, 0.0, 1.0, 0.0, 0.0)">
        <use fill="#ffffff" height="25.9" transform="matrix(0.4424, 0.0, 0.0, 0.4424, -15.3, 23.0)" width="114.0" xlink:href="#font_Vagabond_I0"/>
      </g>
      <g transform="matrix(1.0, 0.0, 0.0, 1.0, 0.0, 0.0)">
        <use fill="#ffffff" height="25.9" transform="matrix(0.4424, 0.0, 0.0, 0.4424, -4.3, 23.0)" width="114.0" xlink:href="#font_Vagabond_T0"/>
      </g>
      <g transform="matrix(1.0, 0.0, 0.0, 1.0, 0.0, 0.0)">
        <use fill="#ffffff" height="25.9" transform="matrix(0.4424, 0.0, 0.0, 0.4424, 6.7, 23.0)" width="114.0" xlink:href="#font_Vagabond_I0"/>
      </g>
      <g transform="matrix(1.0, 0.0, 0.0, 1.0, 0.0, 0.0)">
        <use fill="#ffffff" height="25.9" transform="matrix(0.4424, 0.0, 0.0, 0.4424, 17.7, 23.0)" width="114.0" xlink:href="#font_Vagabond_O0"/>
      </g>
      <g transform="matrix(1.0, 0.0, 0.0, 1.0, 0.0, 0.0)">
        <use fill="#ffffff" height="25.9" transform="matrix(0.4424, 0.0, 0.0, 0.4424, 28.7, 23.0)" width="114.0" xlink:href="#font_Vagabond_N0"/>
      </g>
    </g>
    <g id="font_Vagabond_X0">
      <path d="M13.7 -18.7 L19.5 -31.1 Q20.1 -31.9 20.65 -32.25 21.25 -32.65 21.65 -32.65 L22.8 -32.65 22.8 -33.8 15.15 -33.8 15.15 -32.65 16.25 -32.65 Q17.4 -32.65 17.6 -32.0 17.85 -31.3 17.25 -29.95 L12.85 -20.6 8.45 -30.35 Q8.05 -31.5 8.25 -32.1 8.45 -32.65 9.6 -32.65 L10.2 -32.65 10.2 -33.8 1.95 -33.8 1.95 -32.65 2.65 -32.65 Q3.45 -32.65 3.95 -32.25 4.4 -31.9 4.6 -31.3 L11.15 -16.95 5.0 -3.85 Q4.6 -3.05 3.85 -2.45 3.05 -1.95 2.1 -1.95 L1.35 -1.95 1.35 -0.8 8.6 -0.8 8.6 -1.95 8.2 -1.95 Q7.4 -1.95 6.95 -2.2 6.45 -2.45 6.45 -3.25 6.45 -3.45 6.75 -4.1 L7.4 -5.75 12.0 -15.1 17.2 -3.65 Q17.55 -2.85 17.3 -2.4 17.05 -1.95 16.05 -1.95 L15.3 -1.95 15.3 -0.8 23.6 -0.8 23.6 -1.95 23.0 -1.95 Q22.25 -1.95 21.55 -2.4 20.85 -2.85 20.3 -4.05 L13.7 -18.7" fill-rule="evenodd" stroke="none"/>
    </g>
    <g id="font_Vagabond_H0">
      <path d="M21.1 -3.45 L21.1 -31.1 Q21.1 -31.9 21.6 -32.25 22.1 -32.65 22.85 -32.65 L23.65 -32.65 23.65 -33.8 15.5 -33.8 15.5 -32.65 16.25 -32.65 Q17.25 -32.65 17.6 -32.25 18.0 -31.9 18.0 -31.1 L18.0 -18.75 6.6 -18.75 6.6 -31.1 Q6.6 -31.9 7.1 -32.25 7.6 -32.65 8.45 -32.65 L9.3 -32.65 9.3 -33.8 0.95 -33.8 0.95 -32.65 1.75 -32.65 Q2.7 -32.65 3.1 -32.25 3.5 -31.9 3.5 -31.1 L3.5 -3.45 Q3.5 -2.65 3.1 -2.3 2.75 -1.95 1.85 -1.95 L0.95 -1.95 0.95 -0.8 9.3 -0.8 9.3 -1.95 8.35 -1.95 Q7.55 -1.95 7.1 -2.3 6.6 -2.65 6.6 -3.45 L6.6 -17.55 18.0 -17.55 18.0 -3.45 Q18.0 -2.65 17.6 -2.3 17.3 -1.95 16.35 -1.95 L15.5 -1.95 15.5 -0.8 23.65 -0.8 23.65 -1.95 22.7 -1.95 Q22.0 -1.95 21.55 -2.3 21.1 -2.65 21.1 -3.45" fill-rule="evenodd" stroke="none"/>
    </g>
    <g id="font_Vagabond_B0">
      <path d="M18.15 -26.25 Q18.15 -22.55 16.2 -20.8 14.25 -19.1 12.2 -19.1 L7.2 -19.1 7.2 -31.1 Q7.2 -31.9 7.6 -32.25 8.1 -32.65 8.9 -32.65 L11.2 -32.65 Q14.25 -32.65 16.2 -31.2 18.15 -29.75 18.15 -26.25 M12.35 -1.95 L8.9 -1.95 Q8.1 -1.95 7.6 -2.3 7.2 -2.65 7.2 -3.45 L7.2 -17.95 11.6 -17.95 Q15.45 -17.95 17.35 -15.9 19.3 -13.9 19.3 -9.65 19.3 -5.95 17.45 -3.95 15.65 -1.95 12.35 -1.95 M0.8 -0.8 L12.9 -0.8 Q17.55 -0.8 20.3 -3.05 23.0 -5.4 23.0 -9.25 23.0 -12.35 21.45 -14.85 19.9 -17.35 15.45 -18.75 19.1 -20.05 20.3 -21.8 21.45 -23.55 21.45 -26.25 21.45 -30.15 19.15 -32.0 16.9 -33.8 12.2 -33.8 L0.8 -33.8 0.8 -32.65 2.1 -32.65 Q3.15 -32.65 3.6 -32.25 4.1 -31.9 4.1 -31.1 L4.1 -3.45 Q4.1 -2.65 3.7 -2.3 3.3 -1.95 2.35 -1.95 L0.8 -1.95 0.8 -0.8" fill-rule="evenodd" stroke="none"/>
    </g>
    <g id="text4">
      <g transform="matrix(1.0, 0.0, 0.0, 1.0, 0.0, 0.0)">
        <use fill="#ffffff" height="25.9" transform="matrix(0.4424, 0.0, 0.0, 0.4424, -70.3, 23.0)" width="114.0" xlink:href="#font_Vagabond_T0"/>
      </g>
      <g transform="matrix(1.0, 0.0, 0.0, 1.0, 0.0, 0.0)">
        <use fill="#ffffff" height="25.9" transform="matrix(0.4424, 0.0, 0.0, 0.4424, -59.3, 23.0)" width="114.0" xlink:href="#font_Vagabond_O0"/>
      </g>
      <g transform="matrix(1.0, 0.0, 0.0, 1.0, 0.0, 0.0)">
        <use fill="#ffffff" height="25.9" transform="matrix(0.4424, 0.0, 0.0, 0.4424, -48.3, 23.0)" width="114.0" xlink:href="#font_Vagabond_U0"/>
      </g>
      <g transform="matrix(1.0, 0.0, 0.0, 1.0, 0.0, 0.0)">
        <use fill="#ffffff" height="25.9" transform="matrix(0.4424, 0.0, 0.0, 0.4424, -37.3, 23.0)" width="114.0" xlink:href="#font_Vagabond_R0"/>
      </g>
      <g transform="matrix(1.0, 0.0, 0.0, 1.0, 0.0, 0.0)">
        <use fill="#ffffff" height="25.9" transform="matrix(0.4424, 0.0, 0.0, 0.4424, -26.3, 23.0)" width="114.0" xlink:href="#font_Vagabond_N0"/>
      </g>
      <g transform="matrix(1.0, 0.0, 0.0, 1.0, 0.0, 0.0)">
        <use fill="#ffffff" height="25.9" transform="matrix(0.4424, 0.0, 0.0, 0.4424, -15.3, 23.0)" width="114.0" xlink:href="#font_Vagabond_A0"/>
      </g>
      <g transform="matrix(1.0, 0.0, 0.0, 1.0, 0.0, 0.0)">
        <use fill="#ffffff" height="25.9" transform="matrix(0.4424, 0.0, 0.0, 0.4424, -4.3, 23.0)" width="114.0" xlink:href="#font_Vagabond_M0"/>
      </g>
      <g transform="matrix(1.0, 0.0, 0.0, 1.0, 0.0, 0.0)">
        <use fill="#ffffff" height="25.9" transform="matrix(0.4424, 0.0, 0.0, 0.4424, 6.7, 23.0)" width="114.0" xlink:href="#font_Vagabond_E0"/>
      </g>
      <g transform="matrix(1.0, 0.0, 0.0, 1.0, 0.0, 0.0)">
        <use fill="#ffffff" height="25.9" transform="matrix(0.4424, 0.0, 0.0, 0.4424, 17.7, 23.0)" width="114.0" xlink:href="#font_Vagabond_N0"/>
      </g>
      <g transform="matrix(1.0, 0.0, 0.0, 1.0, 0.0, 0.0)">
        <use fill="#ffffff" height="25.9" transform="matrix(0.4424, 0.0, 0.0, 0.4424, 28.7, 23.0)" width="114.0" xlink:href="#font_Vagabond_T0"/>
      </g>
    </g>
    <g id="font_Vagabond_U0">
      <path d="M12.55 -1.95 Q9.85 -1.95 8.2 -3.25 6.6 -4.6 6.6 -8.5 L6.6 -31.1 Q6.6 -31.9 7.1 -32.25 7.55 -32.65 8.35 -32.65 L9.3 -32.65 9.3 -33.8 0.8 -33.8 0.8 -32.65 1.75 -32.65 Q2.7 -32.65 3.1 -32.25 3.5 -31.9 3.5 -31.1 L3.5 -8.5 Q3.5 -4.2 6.05 -2.3 8.7 -0.4 12.2 -0.4 15.5 -0.4 18.1 -2.55 20.7 -4.8 20.7 -8.7 L20.7 -31.1 Q20.7 -31.9 21.2 -32.25 21.7 -32.65 22.45 -32.65 L23.65 -32.65 23.65 -33.8 16.65 -33.8 16.65 -32.65 17.8 -32.65 Q18.8 -32.65 19.15 -32.25 19.55 -31.9 19.55 -31.1 L19.55 -8.7 Q19.55 -5.75 17.5 -3.85 15.5 -1.95 12.55 -1.95" fill-rule="evenodd" stroke="none"/>
    </g>
    <g id="font_Vagabond_R0">
      <path d="M7.55 -18.55 L7.55 -31.1 Q7.55 -31.9 8.0 -32.25 8.5 -32.65 9.25 -32.65 L11.4 -32.65 Q15.1 -32.65 16.85 -30.8 18.6 -28.95 18.6 -25.65 18.6 -22.0 16.65 -20.25 14.7 -18.55 11.8 -18.55 L7.55 -18.55 M21.9 -26.05 Q21.9 -29.95 19.45 -31.9 17.05 -33.8 12.55 -33.8 L1.55 -33.8 1.55 -32.65 2.7 -32.65 Q3.7 -32.65 4.1 -32.25 4.45 -31.9 4.45 -31.1 L4.45 -3.45 Q4.45 -2.65 4.1 -2.3 3.7 -1.95 2.7 -1.95 L1.55 -1.95 1.55 -0.8 10.5 -0.8 10.5 -1.95 9.3 -1.95 Q8.55 -1.95 8.05 -2.3 7.55 -2.65 7.55 -3.45 L7.55 -17.35 11.65 -17.35 18.4 -0.8 23.85 -0.8 23.85 -1.95 22.65 -1.95 Q22.1 -1.95 21.6 -2.2 21.1 -2.45 20.7 -3.25 L14.9 -17.55 Q17.6 -17.9 19.75 -20.05 21.9 -22.2 21.9 -26.05" fill-rule="evenodd" stroke="none"/>
    </g>
    <g id="text5">
      <g transform="matrix(1.0, 0.0, 0.0, 1.0, 0.0, 0.0)">
        <use fill="#ffffff" height="25.9" transform="matrix(0.4424, 0.0, 0.0, 0.4424, -70.3, 23.0)" width="92.0" xlink:href="#font_Vagabond_T0"/>
      </g>
      <g transform="matrix(1.0, 0.0, 0.0, 1.0, 0.0, 0.0)">
        <use fill="#ffffff" height="25.9" transform="matrix(0.4424, 0.0, 0.0, 0.4424, -59.3, 23.0)" width="92.0" xlink:href="#font_Vagabond_O0"/>
      </g>
      <g transform="matrix(1.0, 0.0, 0.0, 1.0, 0.0, 0.0)">
        <use fill="#ffffff" height="25.9" transform="matrix(0.4424, 0.0, 0.0, 0.4424, -48.3, 23.0)" width="92.0" xlink:href="#font_Vagabond_P0"/>
      </g>
      <g transform="matrix(1.0, 0.0, 0.0, 1.0, 0.0, 0.0)">
        <use fill="#ffffff" height="25.9" transform="matrix(0.4424, 0.0, 0.0, 0.4424, -26.3, 23.0)" width="92.0" xlink:href="#font_Vagabond_P0"/>
      </g>
      <g transform="matrix(1.0, 0.0, 0.0, 1.0, 0.0, 0.0)">
        <use fill="#ffffff" height="25.9" transform="matrix(0.4424, 0.0, 0.0, 0.4424, -15.3, 23.0)" width="92.0" xlink:href="#font_Vagabond_A0"/>
      </g>
      <g transform="matrix(1.0, 0.0, 0.0, 1.0, 0.0, 0.0)">
        <use fill="#ffffff" height="25.9" transform="matrix(0.4424, 0.0, 0.0, 0.4424, -4.3, 23.0)" width="92.0" xlink:href="#font_Vagabond_G0"/>
      </g>
      <g transform="matrix(1.0, 0.0, 0.0, 1.0, 0.0, 0.0)">
        <use fill="#ffffff" height="25.9" transform="matrix(0.4424, 0.0, 0.0, 0.4424, 6.7, 23.0)" width="92.0" xlink:href="#font_Vagabond_E0"/>
      </g>
    </g>
    <g id="font_Vagabond_P0">
      <path d="M12.2 -17.4 L7.4 -17.4 7.4 -31.1 Q7.4 -31.9 7.8 -32.25 8.3 -32.65 9.05 -32.65 L11.8 -32.65 Q15.85 -32.65 17.7 -30.8 19.55 -28.95 19.55 -25.1 19.55 -20.85 17.3 -19.1 15.1 -17.4 12.2 -17.4 M7.4 -16.25 L13.35 -16.25 Q17.25 -16.25 20.05 -18.55 22.85 -20.85 22.85 -25.3 22.85 -28.95 20.2 -31.4 17.55 -33.8 12.65 -33.8 L1.15 -33.8 1.15 -32.65 2.4 -32.65 Q3.4 -32.65 3.85 -32.25 4.25 -31.9 4.25 -31.1 L4.25 -3.45 Q4.25 -2.65 3.9 -2.3 3.5 -1.95 2.5 -1.95 L1.15 -1.95 1.15 -0.8 10.5 -0.8 10.5 -1.95 9.1 -1.95 Q8.35 -1.95 7.85 -2.3 7.4 -2.65 7.4 -3.45 L7.4 -16.25" fill-rule="evenodd" stroke="none"/>
    </g>
  </defs>
</svg>
