<?xml version="1.0" encoding="UTF-8" standalone="no"?>
<svg xmlns:ffdec="https://www.free-decompiler.com/flash" xmlns:xlink="http://www.w3.org/1999/xlink" ffdec:objectType="frame" height="165.85px" width="175.85px" xmlns="http://www.w3.org/2000/svg">
  <g transform="matrix(1.0, 0.0, 0.0, 1.0, -86.15, -48.15)">
    <use ffdec:characterId="202" height="94.0" transform="matrix(1.0, 0.0, 0.0, 1.0, 0.0, 0.0)" width="49.65" xlink:href="#shape0"/>
  </g>
  <defs>
    <g id="shape0">
      <path d="M146.0 135.0 L145.3 135.3 Q147.55 140.3 153.0 142.0 L153.0 136.0 146.0 135.0 M175.0 124.0 Q174.95 126.6 174.0 129.0 L169.0 131.0 179.0 132.15 Q180.45 132.5 181.65 133.3 182.15 136.05 180.0 137.8 175.45 138.05 171.0 137.0 L170.65 144.0 Q169.85 146.4 169.8 149.0 171.55 152.5 173.65 156.0 174.1 160.35 174.0 165.0 172.85 168.6 171.0 172.0 L168.65 178.0 166.45 181.0 165.65 186.0 163.65 193.0 Q165.35 200.05 162.0 205.65 L159.0 206.0 155.3 205.65 Q153.65 202.0 154.65 198.0 L157.65 191.0 159.3 181.0 Q160.4 177.45 160.5 174.15 157.2 171.5 153.15 172.15 151.05 179.7 148.8 186.5 146.35 186.9 144.0 186.0 141.25 184.9 139.15 183.0 137.35 178.15 141.0 174.45 L146.0 174.0 Q146.4 168.9 147.65 164.0 149.5 156.35 154.0 150.0 150.25 149.0 147.0 147.0 L143.8 144.45 137.15 143.5 Q135.65 140.15 136.3 136.3 L138.0 135.0 132.0 134.0 132.0 129.0 136.0 128.65 141.0 127.0 148.0 128.0 154.0 128.0 Q154.55 119.05 160.0 112.45 170.65 113.25 175.0 124.0" fill="#f5f5ea" fill-rule="evenodd" stroke="none"/>
      <path d="M157.15 198.45 Q155.2 203.15 159.8 203.8 160.8 202.55 161.3 201.0 L162.0 198.0 157.15 198.45 M160.3 181.3 L160.0 187.0 Q164.0 184.5 165.0 180.0 L160.3 181.3 M143.0 184.0 L146.0 184.8 Q150.05 183.15 148.0 179.45 146.45 179.0 145.0 179.45 L143.45 181.0 Q142.95 182.4 143.0 184.0 M146.3 143.3 L146.0 144.0 Q150.6 146.8 156.0 147.0 L155.65 145.3 Q151.3 142.8 146.3 143.3 M169.8 114.3 Q172.3 117.75 173.3 122.0 174.3 124.9 174.65 128.0 L174.0 129.0 169.0 131.0 175.0 132.0 180.0 132.3 Q182.5 134.55 180.8 137.5 L178.0 138.0 169.0 137.0 162.0 137.0 157.0 136.0 154.0 136.5 Q149.4 136.15 145.0 135.0 147.6 139.6 152.65 141.0 L153.0 140.0 154.0 140.0 154.0 141.0 Q157.15 142.3 161.0 141.0 163.5 141.15 166.0 142.0 L167.0 138.0 168.0 138.0 166.0 147.0 Q169.1 144.75 170.0 141.0 L171.0 141.0 Q169.75 147.1 169.8 153.0 L172.65 157.0 Q174.15 160.8 174.0 165.0 172.85 168.6 171.0 172.0 L168.65 178.0 166.45 181.0 165.15 188.0 Q163.8 191.9 163.65 196.0 164.85 199.35 164.65 203.0 162.1 205.95 158.0 206.0 L155.3 205.65 Q153.65 201.55 154.8 197.0 L157.65 191.0 159.3 181.0 Q160.6 177.1 160.0 173.3 L159.0 173.0 159.0 172.0 Q165.05 171.65 170.0 167.8 L172.3 165.65 171.0 163.0 Q167.6 158.75 163.0 156.3 160.8 156.4 159.0 157.65 L152.0 162.15 Q150.7 163.3 150.65 165.0 153.45 168.8 158.0 171.0 L158.0 172.0 154.0 171.65 Q150.85 176.15 151.0 182.0 150.45 185.1 148.0 186.8 145.95 186.7 144.0 186.0 141.25 184.9 139.15 183.0 137.35 178.15 141.0 174.45 L146.0 174.0 Q146.4 168.9 147.65 164.0 149.5 156.35 154.0 150.0 150.25 149.0 147.0 147.0 L143.8 144.45 138.0 143.8 Q135.4 139.85 138.0 135.0 L132.0 134.0 132.0 129.0 141.0 127.0 141.0 128.0 139.0 128.0 139.0 129.0 143.0 129.0 147.0 128.3 151.0 129.8 155.0 130.0 Q153.95 126.55 154.15 123.0 154.85 119.85 156.15 117.0 157.6 114.3 160.0 112.45 165.2 111.55 169.8 114.3" fill="#8b601c" fill-rule="evenodd" stroke="none"/>
      <path d="M157.15 198.45 Q155.2 203.15 159.8 203.8 160.8 202.55 161.3 201.0 L162.0 198.0 157.15 198.45 M158.0 206.0 L155.3 205.65 Q153.6 199.95 156.0 194.0 159.3 195.9 163.0 195.0 164.85 198.8 164.65 203.0 162.1 205.95 158.0 206.0 M150.0 166.0 L158.0 171.0 158.0 172.0 Q152.4 170.85 150.0 166.0 M159.0 120.0 L158.3 120.3 161.0 123.0 159.0 120.0 M159.15 115.0 Q158.15 116.4 158.0 118.0 L163.9 114.55 Q161.7 114.2 159.15 115.0 M165.0 181.0 L165.65 181.3 164.0 191.0 158.0 191.0 159.0 182.0 160.0 182.0 160.0 187.0 165.0 181.0 M167.0 138.0 L167.65 138.3 166.0 147.0 Q169.1 144.75 170.0 141.0 L171.0 141.0 Q169.75 147.1 169.8 153.0 172.1 156.1 174.0 161.0 L174.0 165.0 Q168.9 172.55 159.0 173.0 L159.0 172.0 Q165.05 171.65 170.0 167.8 L172.3 165.65 171.0 163.0 Q167.6 158.75 163.0 156.3 160.25 156.6 158.0 158.3 L149.0 164.0 Q149.55 156.2 154.0 150.0 148.7 147.95 145.0 144.0 L152.0 146.65 157.0 146.0 157.3 147.0 Q164.95 146.15 167.0 138.0 M169.65 119.0 L170.0 120.0 171.0 120.0 Q168.9 116.4 166.0 115.15 L166.0 116.0 163.0 117.0 163.0 118.0 Q166.65 116.85 169.65 119.0 M164.0 112.0 Q166.05 112.05 168.0 113.0 173.05 118.9 175.0 127.0 L169.0 131.0 175.0 132.0 180.0 132.3 Q182.7 135.1 180.0 137.8 L168.0 137.0 162.0 137.0 157.0 136.0 153.0 136.5 144.0 135.0 139.0 135.65 135.0 134.15 132.0 134.0 132.0 129.0 141.0 127.0 141.0 128.0 139.0 128.0 139.0 129.0 143.0 129.0 147.0 128.3 151.0 129.8 159.0 130.0 159.0 129.0 155.0 129.0 Q153.95 119.65 160.0 112.45 L164.0 112.0 M144.15 184.3 Q145.1 184.7 146.1 184.7 150.05 183.1 148.0 179.45 146.45 179.0 145.0 179.45 L143.45 181.0 Q142.95 182.4 143.0 184.0 140.05 182.5 138.15 178.0 139.35 175.35 142.0 174.15 L146.0 174.0 146.0 177.0 151.0 177.0 151.0 181.0 150.65 184.0 Q148.2 185.0 146.1 184.7 146.1 184.8 146.0 184.8 L144.15 184.3" fill="#383640" fill-rule="evenodd" stroke="none"/>
      <path d="M159.0 206.0 Q156.3 205.45 154.0 204.0 L155.0 200.0 156.0 200.0 156.15 202.0 Q156.7 203.35 157.65 204.3 160.45 202.45 162.0 199.0 163.05 199.75 163.65 201.0 162.75 204.8 159.0 206.0 M149.0 182.0 L149.65 182.3 Q147.35 186.95 142.0 184.0 L142.0 183.0 147.8 183.8 149.0 182.0 M138.0 178.0 L141.0 174.0 141.65 174.3 138.0 178.0 M150.0 166.0 L158.0 171.0 158.0 172.0 Q152.4 170.85 150.0 166.0 M135.0 134.15 L132.0 134.0 132.0 129.0 134.8 130.3 139.0 133.65 144.0 134.0 144.0 135.0 139.0 135.65 135.0 134.15 M137.0 128.0 L140.65 127.3 141.0 128.0 137.0 129.0 137.0 128.0 M160.0 112.0 L160.65 112.3 158.05 117.95 Q157.9 115.15 160.0 112.0 M165.0 181.0 L165.65 181.3 164.0 191.0 158.0 191.0 159.0 182.0 160.0 182.0 160.0 187.0 165.0 181.0 M167.0 138.0 L167.65 138.3 166.0 147.0 Q169.1 144.75 170.0 141.0 L171.0 141.0 Q169.75 147.1 169.8 153.0 172.1 156.1 174.0 161.0 L174.0 165.0 Q168.9 172.55 159.0 173.0 L159.0 172.0 Q165.05 171.65 170.0 167.8 L172.3 165.65 171.0 163.0 Q167.6 158.75 163.0 156.3 160.25 156.6 158.0 158.3 L149.0 164.0 Q149.55 156.2 154.0 150.0 148.7 147.95 145.0 144.0 L152.0 146.65 157.0 146.0 157.3 147.0 Q164.95 146.15 167.0 138.0 M166.0 114.0 L163.0 119.0 170.0 118.0 166.0 114.0 M167.3 113.0 L170.5 115.15 171.0 121.0 172.0 119.0 173.0 119.0 175.0 127.0 166.0 131.0 166.0 132.0 170.0 132.0 167.0 136.0 Q173.9 136.15 179.0 132.0 L180.0 132.0 181.65 133.3 Q182.1 136.75 179.0 138.0 L170.0 137.0 160.0 137.0 161.0 135.0 154.3 136.0 154.0 137.0 147.0 136.0 147.0 135.0 150.0 135.0 150.0 134.0 145.0 133.65 140.0 131.0 140.0 130.0 149.0 130.65 154.0 130.0 165.0 132.0 165.0 131.0 161.0 130.65 155.0 129.0 Q153.85 123.9 155.0 119.0 L156.0 119.0 Q155.9 121.55 156.45 124.0 158.95 126.5 162.0 128.5 166.4 128.55 169.3 125.0 169.5 123.45 169.0 122.0 166.3 124.7 163.0 124.0 L163.0 123.0 161.0 124.0 161.0 122.0 160.0 122.65 Q158.15 120.45 158.05 118.0 160.9 114.8 165.0 114.0 L165.0 113.0 162.0 113.0 162.0 112.0 167.0 112.0 167.3 113.0" fill="#b1b1b3" fill-rule="evenodd" stroke="none"/>
      <path d="M157.0 206.0 L157.0 205.0 Q160.2 203.95 162.0 201.0 L164.0 201.0 Q162.05 205.6 157.0 206.0 M155.0 200.0 L155.65 200.3 156.0 205.0 155.0 205.0 155.0 200.0 M152.0 146.65 L157.0 146.0 157.3 147.0 161.0 147.0 161.0 148.0 158.0 149.65 Q150.3 149.4 145.0 144.0 L152.0 146.65 M135.0 134.15 L132.0 134.0 132.0 129.0 134.8 130.3 139.0 133.65 144.0 134.0 144.0 135.0 139.0 135.65 135.0 134.15 M137.0 128.0 L140.65 127.3 141.0 128.0 137.0 129.0 137.0 128.0 M160.0 112.0 L160.65 112.3 158.05 117.95 Q157.9 115.15 160.0 112.0 M165.0 181.0 L165.65 181.3 164.0 191.0 158.0 191.0 159.0 182.0 160.0 182.0 160.0 187.0 165.0 181.0 M167.0 138.0 L167.65 138.3 166.65 142.65 165.0 143.0 167.0 138.0 M166.0 114.0 L163.0 119.0 170.0 118.0 166.0 114.0 M167.3 113.0 L170.5 115.15 171.0 121.0 172.0 119.0 173.0 119.0 175.0 127.0 166.0 131.0 166.0 132.0 170.0 132.0 167.0 136.0 Q173.9 136.15 179.0 132.0 L180.0 132.0 181.65 133.3 Q182.1 136.75 179.0 138.0 L170.0 137.0 160.0 137.0 161.0 135.0 147.0 136.0 147.0 135.0 150.0 135.0 150.0 134.0 145.0 133.65 140.0 131.0 140.0 130.0 149.0 130.65 154.0 130.0 165.0 132.0 165.0 131.0 161.0 130.65 155.0 129.0 Q153.85 123.9 155.0 119.0 L156.0 119.0 Q155.9 121.55 156.45 124.0 158.95 126.5 162.0 128.5 166.4 128.55 169.3 125.0 169.5 123.45 169.0 122.0 166.3 124.7 163.0 124.0 L163.0 123.0 161.0 124.0 161.0 122.0 160.0 122.65 Q158.15 120.45 158.05 118.0 160.9 114.8 165.0 114.0 L165.0 113.0 162.0 113.0 162.0 112.0 167.0 112.0 167.3 113.0" fill="#1f1b24" fill-rule="evenodd" stroke="none"/>
      <path d="M157.0 206.0 L157.0 205.0 Q160.2 203.95 162.0 201.0 L164.0 201.0 Q162.05 205.6 157.0 206.0 M155.0 200.0 L155.65 200.3 156.0 205.0 155.0 205.0 155.0 200.0 M145.0 144.0 L152.0 146.65 157.0 146.0 157.3 147.0 161.0 147.0 161.0 148.0 158.0 149.65 Q150.3 149.4 145.0 144.0 M137.0 128.0 L140.65 127.3 141.0 128.0 137.0 129.0 137.0 128.0 M154.0 122.0 L156.0 122.0 156.0 129.0 155.0 129.0 154.0 122.0 M165.0 181.0 L165.65 181.3 164.0 191.0 158.0 191.0 159.0 182.0 160.0 182.0 160.0 187.0 165.0 181.0 M167.0 138.0 L167.65 138.3 166.65 142.65 165.0 143.0 167.0 138.0 M162.0 131.8 L165.0 131.45 170.0 132.0 Q169.25 133.5 168.0 134.8 162.15 136.1 156.0 135.0 150.4 134.85 145.0 133.65 L140.0 131.0 140.0 130.0 149.0 130.65 154.0 130.0 162.0 131.8 M175.0 127.0 L172.0 128.0 173.0 123.0 175.0 127.0 M166.0 114.0 L163.0 117.0 163.0 119.0 166.0 120.0 167.0 117.0 170.0 118.0 166.0 114.0 M162.0 113.0 L162.0 112.0 Q166.9 112.75 170.5 116.0 L171.0 121.0 Q169.3 121.15 170.0 123.0 L169.0 122.0 168.0 122.0 168.0 124.0 166.65 123.65 Q164.95 125.2 163.0 124.0 L163.0 123.0 161.0 124.0 161.0 122.0 160.0 122.65 Q156.85 120.7 157.15 117.0 158.45 114.35 161.0 113.0 L158.0 118.0 Q160.9 114.8 165.0 114.0 L165.0 113.0 162.0 113.0" fill="#5864c5" fill-rule="evenodd" stroke="none"/>
      <path d="M157.0 206.0 L157.0 205.0 Q160.2 203.95 162.0 201.0 L164.0 201.0 Q162.05 205.6 157.0 206.0 M155.0 200.0 L155.65 200.3 156.0 205.0 155.0 205.0 155.0 200.0 M145.0 144.0 L152.0 146.65 157.0 146.0 157.3 147.0 161.0 147.0 161.0 148.0 158.0 149.65 Q150.3 149.4 145.0 144.0 M137.0 128.0 L140.65 127.3 141.0 128.0 137.0 129.0 137.0 128.0 M154.0 122.0 L156.0 122.0 156.0 129.0 155.0 129.0 154.0 122.0 M165.0 181.0 L165.65 181.3 164.0 191.0 158.0 191.0 159.0 182.0 160.0 182.0 160.0 187.0 165.0 181.0 M167.0 138.0 L167.65 138.3 166.65 142.65 165.0 143.0 167.0 138.0 M175.0 127.0 L172.0 128.0 173.0 123.0 175.0 127.0 M166.0 114.0 L163.0 117.0 163.0 119.0 166.0 120.0 167.0 117.0 170.0 118.0 166.0 114.0 M162.0 113.0 L162.0 112.0 Q166.9 112.75 170.5 116.0 L171.0 121.0 Q169.3 121.15 170.0 123.0 L169.0 122.0 168.0 122.0 168.0 124.0 166.65 123.65 Q164.95 125.2 163.0 124.0 L163.0 123.0 161.0 124.0 161.0 122.0 160.0 122.65 Q156.85 120.7 157.15 117.0 158.45 114.35 161.0 113.0 L158.0 118.0 Q160.9 114.8 165.0 114.0 L165.0 113.0 162.0 113.0" fill="#ffe76a" fill-rule="evenodd" stroke="none"/>
      <path d="M157.0 206.0 L157.0 205.0 Q160.2 203.95 162.0 201.0 L164.0 201.0 Q162.05 205.6 157.0 206.0 M155.0 200.0 L155.65 200.3 156.0 205.0 155.0 205.0 155.0 200.0 M145.0 144.0 L152.0 147.8 157.0 148.3 158.0 149.0 158.0 150.0 Q150.3 149.2 145.0 144.0 M165.0 114.0 L165.0 113.0 162.0 113.0 162.0 112.0 Q166.9 112.75 170.5 116.0 L171.0 121.0 Q169.3 121.15 170.0 123.0 L169.0 122.0 168.0 122.0 167.0 117.0 170.0 118.0 166.0 114.0 163.0 117.0 165.0 119.0 165.0 120.0 161.0 120.0 161.0 121.0 168.0 122.0 168.0 124.0 166.65 123.65 Q164.95 125.2 163.0 124.0 L163.0 123.0 161.0 124.0 161.0 122.0 160.0 122.65 Q156.85 120.7 157.15 117.0 158.45 114.35 161.0 113.0 L158.0 118.0 Q160.9 114.8 165.0 114.0" fill="#deac46" fill-rule="evenodd" stroke="none"/>
      <path d="M157.0 206.0 L157.0 205.0 Q160.2 203.95 162.0 201.0 L164.0 201.0 Q162.05 205.6 157.0 206.0 M155.0 200.0 L155.65 200.3 156.0 205.0 155.0 205.0 155.0 200.0 M162.0 113.0 L162.0 112.0 Q166.9 112.75 170.5 116.0 L171.0 121.0 167.0 119.0 167.0 117.0 169.0 116.0 165.0 114.0 165.0 113.0 162.0 113.0 M165.0 117.0 L162.65 116.65 Q160.2 119.9 162.0 124.0 L161.0 124.0 160.65 122.65 Q158.8 122.4 157.45 121.0 156.85 116.0 161.0 113.0 L158.0 118.0 Q160.9 114.8 165.0 114.0 166.55 115.45 165.0 117.0" fill="#6d5b32" fill-rule="evenodd" stroke="none"/>
      <path d="M162.0 201.0 L162.65 201.3 160.0 205.0 162.0 201.0 M167.0 117.0 L168.0 117.0 170.0 121.0 169.0 121.0 167.0 117.0 M164.0 114.15 Q165.4 114.7 166.0 116.0 L165.0 116.65 162.65 116.65 Q160.05 119.5 162.0 123.0 159.85 121.9 158.45 120.0 159.5 115.55 164.0 114.15" fill="#a98d35" fill-rule="evenodd" stroke="none"/>
    </g>
  </defs>
</svg>
