<?xml version="1.0" encoding="UTF-8" standalone="no"?>
<svg xmlns:ffdec="https://www.free-decompiler.com/flash" xmlns:xlink="http://www.w3.org/1999/xlink" ffdec:objectType="frame" height="133.8px" width="138.65px" xmlns="http://www.w3.org/2000/svg">
  <g transform="matrix(1.0, 0.0, 0.0, 1.0, -109.0, -100.0)">
    <use ffdec:characterId="173" height="114.35" transform="matrix(1.0, 0.0, 0.0, 1.0, 0.0, 0.0)" width="79.5" xlink:href="#shape0"/>
  </g>
  <defs>
    <g id="shape0">
      <path d="M141.0 153.0 L142.0 153.0 145.0 148.0 Q141.7 149.5 141.0 153.0 M154.0 182.0 L147.0 180.0 147.0 188.0 148.0 188.0 154.0 182.0 M168.0 185.0 L169.0 193.0 176.0 194.15 Q180.95 196.15 181.5 201.0 179.3 203.65 176.0 204.8 169.6 206.35 164.15 203.0 162.8 198.05 163.65 193.0 L161.0 185.0 Q156.75 185.95 153.0 188.15 146.15 198.95 148.3 212.0 156.05 224.9 171.0 227.0 174.65 226.15 178.0 224.3 187.7 217.0 189.0 205.0 183.05 190.35 168.0 185.0 M166.0 118.3 Q168.85 123.4 171.0 128.3 L182.0 133.15 Q183.9 135.25 183.5 138.0 181.15 140.1 178.0 139.8 172.85 136.55 168.0 134.8 164.35 136.95 163.3 141.0 163.15 144.55 161.65 148.0 L158.45 152.0 Q158.3 154.45 159.0 157.0 L159.0 162.0 Q158.85 164.5 159.45 167.0 L162.8 171.0 Q166.0 175.0 167.0 180.0 171.8 180.5 176.0 182.65 182.95 185.9 188.65 191.3 L190.15 195.0 Q191.85 197.8 193.0 201.0 L193.5 210.0 Q190.65 219.45 184.0 226.65 L179.0 229.15 Q176.6 230.35 174.0 231.0 L170.0 231.0 165.0 231.65 161.0 230.3 Q154.95 228.05 150.0 224.0 147.45 220.7 145.8 217.0 142.25 206.8 142.0 196.0 L143.0 184.0 Q142.8 180.8 140.8 178.45 L136.0 178.0 127.0 178.0 126.65 183.0 125.65 186.0 Q123.65 189.05 120.0 188.8 117.15 187.05 115.8 184.0 112.9 176.2 118.0 171.3 122.0 171.5 126.0 172.5 L133.0 172.0 Q130.5 167.65 130.15 163.0 132.25 160.2 134.0 157.0 134.2 150.65 137.15 145.0 139.75 142.7 143.0 141.3 144.9 140.85 146.65 139.8 L148.3 137.0 151.3 133.65 Q150.8 130.05 148.0 128.0 150.75 120.2 159.0 117.65 162.55 116.8 166.0 118.3" fill="#f6f6e8" fill-rule="evenodd" stroke="none"/>
      <path d="M154.0 182.0 L147.0 180.0 147.0 188.0 148.0 188.0 154.0 182.0 M168.0 185.0 Q169.25 190.15 167.0 194.65 L164.0 196.0 Q164.35 199.6 166.3 202.65 L170.0 203.8 Q175.7 204.05 181.0 202.0 L181.0 203.0 Q171.45 206.8 163.45 202.0 162.95 197.45 163.65 193.0 L161.0 185.0 Q156.75 185.95 153.0 188.15 146.15 198.95 148.3 212.0 156.05 224.9 171.0 227.0 174.65 226.15 178.0 224.3 187.7 217.0 189.0 205.0 183.05 190.35 168.0 185.0 M168.0 134.8 Q164.35 136.95 163.3 141.0 163.15 144.55 161.65 148.0 L158.45 152.0 Q158.3 154.45 159.0 157.0 L159.0 162.0 Q158.85 164.5 159.45 167.0 L162.8 171.0 Q166.0 175.0 167.0 180.0 171.8 180.5 176.0 182.65 182.95 185.9 188.65 191.3 L190.15 195.0 Q191.85 197.8 193.0 201.0 L193.5 210.0 Q190.65 219.45 184.0 226.65 L179.0 229.15 Q176.6 230.35 174.0 231.0 L170.0 231.0 165.0 231.65 161.0 230.3 Q154.95 228.05 150.0 224.0 147.45 220.7 145.8 217.0 142.25 206.8 142.0 196.0 L143.0 184.0 Q142.8 180.8 140.8 178.45 L136.0 178.0 127.0 178.0 Q126.6 186.35 120.0 188.8 117.15 187.05 115.8 184.0 113.95 179.1 114.0 174.0 L115.0 174.0 Q114.75 177.7 117.0 180.65 121.55 182.45 125.3 179.3 L124.0 176.0 129.0 176.5 135.0 176.0 136.0 171.0 135.0 171.0 135.0 172.0 133.0 172.0 Q130.5 167.65 130.15 163.0 131.7 160.45 133.5 158.8 134.15 155.05 134.0 151.0 L135.0 151.0 Q135.15 155.6 134.5 160.0 L131.65 164.0 Q132.3 166.75 135.0 168.0 138.15 167.05 141.0 165.0 L146.0 171.0 153.0 172.45 157.0 174.8 165.0 176.0 Q160.75 171.55 157.45 167.0 158.0 163.25 156.8 159.0 155.1 157.45 153.0 156.65 L149.0 155.65 Q143.1 158.05 141.0 164.0 L140.0 164.0 139.0 159.0 140.0 152.0 141.0 152.0 141.0 153.0 Q143.95 151.35 145.0 148.0 L142.0 151.0 141.0 151.0 141.0 147.0 154.0 143.0 150.0 151.0 159.0 147.8 161.0 145.0 158.0 141.8 150.0 136.0 150.0 135.0 151.3 133.65 Q150.8 130.0 148.0 128.0 151.25 120.7 159.0 117.65 L164.0 117.3 Q169.4 122.05 168.65 129.65 L167.0 131.0 172.0 133.3 177.0 137.3 183.0 136.0 180.0 132.0 Q182.05 133.05 183.5 135.0 183.45 135.6 183.0 136.0 182.45 139.8 178.0 139.8 172.85 136.55 168.0 134.8" fill="#929adc" fill-rule="evenodd" stroke="none"/>
      <path d="M140.0 152.0 L140.65 152.3 140.0 161.0 139.0 161.0 140.0 152.0 M158.0 167.0 L157.0 167.0 158.0 161.0 Q159.45 163.85 158.0 167.0 M154.0 150.0 L154.0 151.0 150.0 152.0 150.0 151.0 154.0 150.0 M153.0 143.0 L153.65 143.3 Q152.85 145.9 150.0 146.65 145.35 147.95 142.0 151.0 L141.0 151.0 141.0 147.0 153.0 143.0 M160.0 147.0 L160.65 147.3 157.0 150.0 157.0 149.0 160.0 147.0 M166.0 181.3 L171.0 183.0 Q183.05 187.9 189.65 199.0 190.85 204.4 191.0 210.0 L190.0 210.0 189.2 212.85 191.0 210.0 192.0 210.0 191.0 198.0 192.0 198.0 Q193.1 202.8 193.3 208.0 193.2 211.55 192.0 215.0 186.5 225.4 176.0 230.65 L165.0 231.65 Q159.2 230.0 154.0 227.15 145.2 218.25 142.8 206.0 141.9 200.55 142.0 195.0 142.9 189.05 143.0 183.0 141.35 177.9 136.0 178.0 L127.0 178.0 Q126.7 186.35 120.0 188.8 117.95 187.85 117.0 186.0 L121.0 187.3 Q123.85 186.0 125.0 183.0 123.15 184.6 121.0 185.65 115.5 183.75 114.0 178.0 L115.0 178.0 Q115.7 179.45 117.0 180.65 121.75 182.6 125.0 179.0 L124.0 176.0 129.0 176.5 135.0 176.0 136.0 171.0 135.0 171.0 135.0 172.0 133.0 172.0 Q130.5 167.65 130.15 163.0 131.7 160.45 133.5 158.8 134.15 155.05 134.0 151.0 135.45 155.15 134.5 160.0 L131.65 164.0 Q132.3 166.75 135.0 168.0 138.15 167.05 141.0 165.0 143.15 168.95 147.0 171.0 L146.65 172.3 154.0 173.45 159.0 175.65 165.0 176.0 159.0 168.0 Q164.95 172.65 167.0 180.0 L155.0 177.8 150.0 176.0 150.0 175.0 149.0 175.65 143.0 173.0 Q151.05 178.75 161.0 180.0 L161.0 181.0 155.0 182.5 147.0 180.0 147.0 188.0 148.0 188.0 Q149.2 184.2 153.0 183.0 L153.0 184.0 149.0 189.0 146.0 191.0 Q146.45 181.95 143.0 174.0 L142.3 174.3 Q144.05 180.0 145.0 186.0 L144.0 194.0 144.0 202.0 145.0 207.0 145.3 211.0 Q149.0 219.5 156.0 225.65 169.65 228.15 179.35 222.35 L185.35 217.55 187.45 215.2 Q188.65 209.7 189.0 204.0 188.35 201.35 187.15 199.0 L184.65 194.0 Q177.25 187.6 168.0 185.0 169.25 190.15 167.0 194.65 L164.0 196.0 161.0 185.0 Q157.9 185.65 155.0 187.0 147.55 194.25 147.0 205.0 L148.0 212.0 147.0 212.0 145.65 204.3 146.0 197.0 145.0 192.0 146.0 192.0 146.0 194.0 147.0 194.0 149.0 189.0 150.0 189.0 Q150.7 186.9 152.15 185.3 L156.0 183.65 Q160.85 181.75 166.0 181.3 M169.0 134.8 Q166.2 135.65 164.0 137.3 L160.0 137.0 155.0 136.65 Q151.45 134.05 150.5 130.0 149.4 128.65 148.0 128.0 151.25 120.7 159.0 117.65 L164.0 117.3 Q169.4 122.05 168.65 129.65 L167.0 131.0 172.0 133.3 177.0 137.3 183.0 136.0 180.0 132.0 Q182.05 133.05 183.5 135.0 183.45 135.6 183.0 136.0 182.45 139.8 178.0 139.8 173.2 136.95 169.0 134.8 M148.0 212.0 L151.3 217.0 158.0 225.0 Q151.05 219.85 148.0 212.0 M174.0 205.0 L174.0 206.0 Q168.1 206.1 163.45 203.0 162.9 201.05 163.0 199.0 L165.0 199.0 164.0 202.0 166.0 201.0 166.0 204.0 169.0 203.0 169.3 204.0 174.0 205.0 M175.0 205.0 L175.0 204.0 181.0 201.0 181.65 201.3 Q179.15 204.6 175.0 205.0" fill="#211f2a" fill-rule="evenodd" stroke="none"/>
      <path d="M165.0 201.0 L166.0 203.95 Q165.0 203.35 164.3 202.0 L165.0 201.0 M169.0 203.0 L169.0 204.0 Q167.3 204.65 166.1 204.0 L169.0 203.0 M143.0 175.0 L145.0 187.0 144.0 193.0 144.3 203.3 146.0 203.0 Q144.6 209.3 147.8 215.0 L150.3 220.0 Q157.55 226.4 167.0 229.0 172.75 228.65 178.0 226.15 187.2 220.2 191.0 210.0 L192.0 210.0 192.0 205.0 193.0 205.0 Q192.75 207.6 192.0 210.0 191.1 215.2 188.8 220.0 181.55 227.1 172.0 230.0 169.45 229.9 167.0 229.0 157.3 227.9 149.3 221.8 L144.3 212.0 143.8 207.0 Q142.7 198.55 143.0 190.0 L143.65 185.0 Q142.75 179.85 141.0 175.0 142.05 174.9 143.0 175.0 M156.0 179.65 L160.65 180.3 161.0 181.0 157.0 181.5 145.0 179.0 144.05 175.1 Q146.1 175.45 148.0 176.8 151.85 178.5 156.0 179.65 M141.0 178.0 L124.0 177.0 124.0 176.0 129.0 176.5 135.0 176.0 136.0 172.0 141.0 178.0 M135.0 168.0 L138.8 166.5 140.0 165.0 141.0 165.0 Q138.15 169.75 133.0 172.0 L130.0 164.0 135.0 168.0 M140.0 152.0 L140.65 152.3 140.0 161.0 139.0 161.0 140.0 152.0 M134.65 151.3 L135.0 159.0 134.0 159.0 134.0 151.0 134.65 151.3 M150.0 152.0 L150.0 151.0 154.0 150.0 154.0 151.0 150.0 152.0 M158.0 161.0 Q159.45 163.85 158.0 167.0 L157.0 167.0 158.0 161.0 M115.0 180.0 L121.0 182.0 126.0 180.0 Q125.95 184.0 123.8 187.5 L122.0 188.0 122.0 187.0 125.0 183.0 Q123.15 184.6 121.0 185.65 116.55 184.35 115.0 180.0 M150.5 127.5 L148.0 128.0 150.0 123.0 150.5 127.5 M153.0 143.0 L153.65 143.3 Q152.85 145.9 150.0 146.65 145.35 147.95 142.0 151.0 L141.0 151.0 141.0 147.0 153.0 143.0 M160.0 147.0 L160.65 147.3 157.0 150.0 157.0 149.0 160.0 147.0 M158.0 122.0 L157.3 122.3 Q157.2 124.8 160.0 125.0 L158.0 122.0 M166.65 179.0 L166.0 180.0 162.3 178.65 158.0 178.65 150.0 177.0 150.0 175.0 149.0 175.65 145.0 174.0 145.0 173.0 152.0 173.65 159.0 175.65 165.0 176.0 159.0 168.0 Q164.65 172.25 166.65 179.0 M168.0 184.0 L163.0 183.0 Q158.35 184.25 154.0 186.3 150.1 190.25 147.3 195.0 L146.0 202.0 145.0 202.0 145.8 197.0 145.0 192.0 146.0 192.0 147.0 194.0 148.0 191.0 148.0 190.0 146.0 191.0 146.0 185.0 147.0 185.0 148.0 188.0 150.0 184.0 151.0 184.0 149.0 189.0 150.0 189.0 Q150.7 186.9 152.15 185.3 L156.0 183.65 Q160.85 181.75 166.0 181.3 L171.0 183.0 Q183.05 187.9 189.65 199.0 190.85 204.4 191.0 210.0 L190.0 210.0 Q187.95 217.3 182.0 222.0 187.35 215.15 189.65 207.0 184.15 190.4 168.0 184.0 M168.0 185.0 Q169.3 189.95 167.8 194.65 L165.0 196.0 161.0 185.0 168.0 185.0 M166.0 119.15 Q169.0 124.35 165.0 128.65 159.3 130.2 154.15 127.8 152.2 122.15 157.0 119.0 L157.0 118.3 Q161.65 117.6 166.0 119.15 M165.0 132.0 Q169.3 131.4 173.0 134.15 174.85 136.0 177.0 137.3 L183.0 136.0 180.0 132.0 Q182.05 133.05 183.5 135.0 183.45 135.6 183.0 136.0 182.45 139.8 178.0 139.8 173.2 136.95 169.0 134.8 166.25 135.55 164.0 137.3 L160.0 137.0 160.0 136.0 165.0 136.0 164.3 135.0 165.3 133.65 165.0 132.0" fill="#5c69cd" fill-rule="evenodd" stroke="none"/>
      <path d="M165.0 201.0 L166.0 204.0 169.0 203.0 169.0 204.0 168.0 204.65 Q166.85 204.6 166.0 204.0 164.85 203.45 164.3 202.0 L165.0 201.0 M155.0 177.65 L146.0 174.0 146.0 173.0 152.0 173.65 159.0 175.65 165.0 176.0 159.0 168.0 Q164.55 172.3 167.0 179.0 L155.0 177.65 M141.0 178.0 L124.0 177.0 124.0 176.0 129.0 176.5 135.0 176.0 136.0 172.0 141.0 178.0 M135.0 168.0 L138.8 166.5 140.0 165.0 141.0 165.0 Q138.15 169.75 133.0 172.0 L130.0 164.0 135.0 168.0 M140.0 152.0 L140.65 152.3 140.0 161.0 139.0 161.0 140.0 152.0 M134.65 151.3 L135.0 159.0 134.0 159.0 134.0 151.0 134.65 151.3 M150.0 152.0 L150.0 151.0 154.0 150.0 154.0 151.0 150.0 152.0 M158.0 167.0 L157.0 167.0 158.0 161.0 Q159.45 163.85 158.0 167.0 M115.0 180.0 L121.0 182.0 126.0 180.0 125.65 185.0 124.0 188.0 123.0 188.0 125.0 183.0 Q123.15 184.6 121.0 185.65 116.55 184.35 115.0 180.0 M150.5 127.5 L148.0 128.0 150.0 123.0 150.5 127.5 M153.0 143.0 L153.65 143.3 Q152.85 145.9 150.0 146.65 145.35 147.95 142.0 151.0 L141.0 151.0 141.0 147.0 153.0 143.0 M160.0 147.0 L160.65 147.3 157.0 150.0 157.0 149.0 160.0 147.0 M158.0 122.0 L157.3 122.3 Q157.2 124.8 160.0 125.0 L158.0 122.0 M168.0 185.0 Q169.3 189.95 167.8 194.65 L165.0 196.0 161.0 185.0 168.0 185.0 M166.0 119.15 Q169.0 124.35 165.0 128.65 159.3 130.2 154.15 127.8 152.2 122.15 157.0 119.0 L157.0 118.3 Q161.65 117.6 166.0 119.15 M165.0 132.0 Q169.3 131.4 173.0 134.15 174.85 136.0 177.0 137.3 L183.0 136.0 180.0 132.0 Q182.05 133.05 183.5 135.0 183.45 135.6 183.0 136.0 182.45 139.8 178.0 139.8 173.2 136.95 169.0 134.8 166.25 135.55 164.0 137.3 L160.0 137.0 160.0 136.0 165.0 136.0 164.3 135.0 165.3 133.65 165.0 132.0" fill="#90671e" fill-rule="evenodd" stroke="none"/>
      <path d="M163.0 127.95 Q160.6 128.7 158.0 128.3 L155.0 128.5 Q152.75 125.05 154.3 121.15 156.9 119.8 160.0 119.65 L164.0 119.0 164.0 118.45 164.8 119.1 164.3 119.3 164.0 126.65 163.0 127.0 163.0 127.95 Q163.2 128.0 163.35 127.9 L164.8 127.5 Q167.1 123.65 165.3 119.6 168.35 122.85 166.8 127.65 165.2 128.2 163.35 127.9 L163.0 128.0 163.0 127.95 M165.0 201.0 L166.0 204.0 169.0 203.0 169.0 204.0 168.0 204.65 Q166.85 204.6 166.0 204.0 164.85 203.45 164.3 202.0 L165.0 201.0 M153.0 176.65 Q151.7 175.45 151.0 174.0 155.3 173.6 159.0 175.65 L165.0 176.0 159.0 168.0 Q164.1 172.0 167.0 178.0 159.9 179.05 153.0 176.65 M129.0 177.0 L134.65 176.3 135.0 177.0 129.0 178.0 129.0 177.0 M130.45 167.0 L130.0 164.0 135.0 168.0 139.0 167.0 Q136.6 170.3 133.0 172.0 L133.3 170.65 130.45 167.0 M134.0 151.0 L134.65 151.3 135.0 159.0 134.0 159.0 134.0 151.0 M154.0 150.0 L154.0 151.0 150.0 152.0 150.0 151.0 154.0 150.0 M158.0 167.0 L157.0 167.0 158.0 161.0 Q159.45 163.85 158.0 167.0 M115.0 180.0 L121.0 182.0 126.0 180.0 125.65 185.0 124.0 188.0 123.0 188.0 125.0 183.0 Q123.15 184.6 121.0 185.65 116.55 184.35 115.0 180.0 M160.0 147.0 L160.65 147.3 157.0 150.0 157.0 149.0 160.0 147.0 M141.0 148.0 L141.0 147.0 153.0 143.0 154.0 144.0 Q147.75 147.05 141.0 148.0 M157.0 121.3 L156.0 122.0 157.0 125.0 161.0 124.0 Q159.7 121.6 157.0 121.3 M150.0 123.0 L150.65 123.3 Q151.1 126.55 148.0 127.0 L150.0 123.0 M168.0 185.0 Q169.25 190.05 167.8 194.5 165.9 195.0 164.3 193.8 162.15 189.6 161.0 185.0 L168.0 185.0 M168.0 132.0 L165.0 133.0 165.0 132.0 Q166.55 131.8 168.0 132.0 170.6 132.4 173.0 134.15 174.85 136.0 177.0 137.3 L183.0 136.0 180.0 132.0 Q183.35 134.05 184.0 138.0 L178.0 140.0 177.0 140.0 172.0 135.3 168.0 133.0 168.0 132.0" fill="#ffe56f" fill-rule="evenodd" stroke="none"/>
      <path d="M163.0 127.95 Q160.6 128.7 158.0 128.3 L155.0 128.5 154.2 127.0 161.0 127.0 160.3 123.0 Q156.0 121.2 154.1 126.75 153.15 124.05 154.3 121.15 156.9 119.8 160.0 119.65 L164.0 119.0 164.0 118.45 164.8 119.1 164.3 119.3 164.0 126.65 163.0 127.0 163.0 127.95 Q163.2 128.0 163.35 127.9 L164.8 127.5 Q167.1 123.65 165.3 119.6 168.35 122.85 166.8 127.65 165.2 128.2 163.35 127.9 L163.0 128.0 163.0 127.95 M165.0 201.0 L166.0 204.0 169.0 203.0 169.0 204.0 168.0 204.65 Q166.85 204.6 166.0 204.0 164.85 203.45 164.3 202.0 L165.0 201.0 M151.0 174.0 L158.0 177.0 158.0 178.0 Q153.55 177.45 151.0 174.0 M129.0 177.0 L133.65 177.3 134.0 178.0 129.0 178.0 129.0 177.0 M138.0 167.0 L138.65 167.3 136.0 170.0 138.0 167.0 M158.0 161.0 Q159.45 163.85 158.0 167.0 L157.0 167.0 158.0 161.0 M154.0 150.0 L154.0 151.0 150.0 152.0 150.0 151.0 154.0 150.0 M115.0 180.0 L121.0 182.0 126.0 180.0 125.65 185.0 124.0 188.0 123.0 188.0 125.0 183.0 Q123.15 184.6 121.0 185.65 116.55 184.35 115.0 180.0 M160.0 147.0 L160.65 147.3 157.0 150.0 157.0 149.0 160.0 147.0 M148.0 127.0 L150.0 124.0 150.65 124.3 Q150.7 126.9 148.0 127.0 M165.0 192.0 L167.0 192.0 167.0 185.0 168.0 185.0 Q169.25 190.05 167.8 194.5 165.9 195.0 164.3 193.8 162.15 189.6 161.0 185.0 L165.0 192.0" fill="#e0b257" fill-rule="evenodd" stroke="none"/>
      <path d="M165.0 119.0 L165.05 119.1 166.0 119.15 Q168.55 123.2 166.8 127.65 163.9 129.1 161.0 128.0 L162.3 126.65 162.0 122.0 158.0 123.0 159.0 121.0 154.0 122.0 154.0 121.0 159.65 120.3 161.0 122.0 161.0 119.0 164.75 119.1 164.3 119.3 164.0 126.65 163.0 127.0 163.0 128.0 164.8 127.5 Q167.25 123.45 165.05 119.1 L164.75 119.1 165.0 119.0 M164.0 202.0 L168.0 204.0 168.0 205.0 164.0 202.0 M129.0 177.0 L133.65 177.3 134.0 178.0 129.0 178.0 129.0 177.0 M125.0 183.0 L125.65 183.3 124.0 188.0 123.0 188.0 125.0 183.0 M154.0 125.0 L154.65 125.3 154.65 126.3 157.0 128.0 157.0 129.0 Q154.4 128.45 153.3 126.0 L154.0 125.0" fill="#ca9234" fill-rule="evenodd" stroke="none"/>
      <path d="M164.0 202.0 L168.0 204.0 168.0 205.0 164.0 202.0 M129.0 177.0 L133.65 177.3 134.0 178.0 129.0 178.0 129.0 177.0 M125.0 183.0 L125.65 183.3 124.0 188.0 123.0 188.0 125.0 183.0 M153.0 126.0 L157.0 128.0 157.0 129.0 153.0 126.0 M159.65 120.3 L161.0 123.0 158.0 123.0 159.0 121.0 155.0 121.0 155.0 120.0 159.65 120.3 M162.0 128.0 L162.0 127.0 165.0 128.0 162.0 120.3 161.0 120.0 161.0 119.0 165.0 118.65 Q168.4 122.05 167.5 126.8 164.95 129.1 162.0 128.0 M165.0 119.0 L164.3 119.3 165.0 127.0 166.0 127.0 Q166.9 122.8 165.0 119.0" fill="#655839" fill-rule="evenodd" stroke="none"/>
      <path d="M129.0 177.0 L133.65 177.3 134.0 178.0 129.0 178.0 129.0 177.0 M155.0 120.0 L159.65 120.3 161.0 123.0 155.0 121.0 155.0 120.0 M163.8 119.45 L165.0 127.0 164.0 127.0 162.0 120.3 161.0 120.0 161.0 119.0 163.8 119.45" fill="#a58831" fill-rule="evenodd" stroke="none"/>
    </g>
  </defs>
</svg>
