<?xml version="1.0" encoding="UTF-8" standalone="no"?>
<svg xmlns:ffdec="https://www.free-decompiler.com/flash" xmlns:xlink="http://www.w3.org/1999/xlink" ffdec:objectType="frame" height="200.05px" width="123.0px" xmlns="http://www.w3.org/2000/svg">
  <g transform="matrix(1.0, 0.0, 0.0, 1.0, -61.0, -12.6)">
    <use ffdec:characterId="233" height="100.35" transform="matrix(1.0, 0.0, 0.0, 1.0, 0.0, 0.0)" width="89.0" xlink:href="#shape0"/>
  </g>
  <defs>
    <g id="shape0">
      <path d="M115.0 160.0 Q107.1 165.15 103.65 174.0 100.45 187.35 102.0 201.0 107.45 197.9 110.15 192.0 116.45 176.5 115.0 160.0 M134.0 130.0 L133.3 130.3 133.65 134.0 133.15 140.0 135.0 144.0 136.0 144.0 138.8 136.0 134.0 130.0 M162.45 142.0 L166.65 147.0 Q169.05 151.75 170.65 157.0 171.95 160.9 172.8 165.0 172.85 167.45 173.45 169.8 175.0 171.3 177.0 172.15 181.75 175.1 184.0 180.0 180.4 184.5 174.0 184.65 169.3 182.75 168.0 178.0 L168.3 172.65 166.3 167.0 Q164.1 159.1 158.0 154.15 L154.0 154.0 Q150.85 153.8 148.15 155.15 146.85 157.35 147.0 160.0 L147.0 178.0 146.65 181.65 Q143.3 182.7 140.0 181.15 138.0 180.05 136.3 178.65 134.35 173.35 136.3 168.15 138.45 166.65 141.0 166.0 L139.0 153.0 138.0 153.0 Q135.3 157.1 130.3 156.0 L130.0 155.0 129.0 155.0 Q126.3 160.35 124.3 166.0 121.65 176.55 118.3 187.0 115.95 193.7 112.65 200.0 105.55 207.05 97.3 203.0 94.6 195.35 95.0 187.0 97.0 175.5 101.8 165.0 105.9 158.25 113.0 155.0 L117.0 155.0 Q123.15 152.55 125.3 146.0 L127.5 141.0 127.0 136.0 Q127.95 130.3 130.0 125.0 L126.0 124.0 126.0 125.0 Q122.3 126.3 119.8 123.0 117.55 116.05 119.15 109.0 129.9 104.0 138.5 114.0 138.45 115.5 138.0 117.0 L142.0 117.0 Q147.05 119.0 151.0 123.0 154.2 125.95 155.65 130.0 L155.0 131.0 Q159.25 132.9 161.65 137.0 L162.45 142.0" fill="#f7f7eb" fill-rule="evenodd" stroke="none"/>
      <path d="M169.0 179.9 Q167.85 176.6 168.0 173.0 L168.65 173.3 169.0 179.9 M169.0 180.0 L183.0 180.0 181.0 176.0 Q184.4 178.7 182.8 182.65 181.45 183.45 180.0 183.8 174.15 185.25 169.3 182.0 169.0 181.05 169.0 180.0 M115.0 160.0 Q107.1 165.15 103.65 174.0 100.45 187.35 102.0 201.0 107.45 197.9 110.15 192.0 116.45 176.5 115.0 160.0 M154.0 131.0 L154.65 131.3 Q152.05 135.25 147.0 137.0 L147.45 134.45 150.0 133.65 154.0 131.0 M125.0 146.0 L130.0 147.0 132.0 139.0 133.0 139.0 136.0 146.0 Q132.15 147.3 130.15 151.0 130.25 152.95 131.0 155.0 L136.8 152.8 139.15 146.0 146.0 138.0 Q147.0 140.65 147.0 144.0 L147.65 155.0 147.0 158.0 147.0 169.0 Q146.05 174.35 143.0 179.0 L146.0 176.0 147.0 176.0 Q147.05 178.95 146.65 181.65 141.2 182.25 136.3 178.65 134.9 174.6 135.0 170.0 L138.0 174.0 139.0 174.0 141.0 171.0 141.0 170.0 136.0 169.0 136.0 168.0 141.0 166.0 139.0 153.0 138.0 153.0 Q135.3 157.1 130.3 156.0 L130.0 155.0 129.0 155.0 Q126.3 160.35 124.3 166.0 121.65 176.55 118.3 187.0 115.55 194.95 111.0 202.0 108.75 204.2 106.0 205.65 97.0 204.45 95.0 195.0 95.2 183.25 98.3 172.0 102.35 162.55 110.0 156.0 113.4 154.8 117.0 155.0 123.25 152.65 125.0 146.0 M134.3 109.0 L137.65 112.0 Q138.65 114.85 138.5 118.0 136.05 122.4 135.3 128.0 136.3 130.15 138.0 132.0 L138.0 127.0 139.0 127.0 141.5 136.0 139.0 140.0 138.0 140.0 138.3 136.0 133.0 130.0 134.0 138.0 133.0 138.0 132.65 137.0 128.0 137.0 129.0 141.0 128.0 141.0 Q127.8 139.0 128.0 137.0 127.8 130.9 130.0 125.0 L126.0 124.0 126.0 125.0 Q121.95 126.0 119.45 122.0 117.5 115.45 119.15 109.0 126.25 103.85 134.3 109.0 M172.0 163.0 L171.0 163.0 170.0 157.0 172.0 163.0 M167.0 168.0 L169.0 172.0 168.0 172.0 167.0 168.0 M168.15 150.0 Q169.3 152.35 169.3 155.0 167.1 157.1 165.45 160.0 L167.0 167.0 166.0 167.0 Q163.95 158.45 157.0 153.8 L150.0 154.0 150.0 153.0 Q158.65 150.85 162.0 143.0 165.9 145.7 168.15 150.0" fill="#111221" fill-rule="evenodd" stroke="none"/>
      <path d="M169.0 179.9 Q167.85 176.6 168.0 173.0 L168.65 173.3 169.0 179.9 M169.0 180.0 L183.0 180.0 181.0 176.0 Q184.4 178.7 182.8 182.65 181.45 183.45 180.0 183.8 174.15 185.25 169.3 182.0 169.0 181.05 169.0 180.0 M126.0 157.0 L126.65 157.3 123.0 170.0 122.0 170.0 122.3 163.0 126.0 157.0 M110.0 162.0 Q107.5 165.3 105.8 169.0 100.55 182.5 99.0 197.0 L98.0 197.0 95.3 193.0 Q94.85 187.9 96.0 183.0 97.75 173.6 101.8 165.0 104.2 160.6 108.0 157.3 111.3 155.65 115.0 155.0 L119.0 154.8 123.0 152.45 Q125.0 152.25 127.0 153.0 L126.5 155.0 Q123.05 157.3 119.0 157.0 113.9 158.4 110.0 162.0 M120.0 166.0 L120.65 166.3 Q121.1 169.6 121.0 173.0 118.75 185.5 113.15 197.0 111.15 200.1 108.65 202.65 105.7 203.15 103.0 202.0 L107.65 196.0 112.65 186.0 117.3 168.15 120.0 166.0 M154.0 131.0 L154.65 131.3 Q152.05 135.25 147.0 137.0 L147.45 134.45 150.0 133.65 154.0 131.0 M146.0 138.0 Q147.0 140.65 147.0 144.0 L147.65 155.0 147.0 158.0 147.0 169.0 Q146.05 174.35 143.0 179.0 L146.0 176.0 147.0 176.0 Q147.05 178.95 146.65 181.65 141.2 182.25 136.3 178.65 134.9 174.6 135.0 170.0 L138.0 174.0 139.0 174.0 141.0 171.0 141.0 170.0 136.0 169.0 136.0 168.0 141.0 166.0 139.0 153.0 138.0 153.0 Q135.7 156.8 131.15 156.5 130.1 155.4 130.0 154.0 134.15 154.4 137.5 152.0 L139.15 146.0 146.0 138.0 M132.0 146.0 L132.65 146.3 130.0 149.0 132.0 146.0 M131.0 146.0 L130.0 146.0 132.0 139.0 132.65 139.3 131.0 146.0 M125.65 124.3 L126.0 126.0 122.3 125.65 119.0 120.0 125.65 124.3 M135.0 118.0 L134.5 120.0 Q130.0 122.35 125.0 120.3 121.2 119.55 118.65 117.0 118.55 115.0 119.0 113.0 118.95 109.95 120.3 107.3 127.95 104.5 135.15 109.65 137.35 111.4 138.5 114.0 L138.5 118.0 Q136.25 122.25 135.15 127.0 136.05 129.75 138.0 132.0 L138.0 127.0 139.0 127.0 141.5 136.0 139.0 140.0 138.0 140.0 138.3 136.0 133.0 130.0 134.0 138.0 133.0 138.0 132.65 137.0 128.0 137.0 129.0 141.0 128.0 141.0 Q126.7 135.9 128.15 131.0 128.6 128.45 129.45 126.15 L133.0 123.0 Q135.05 120.75 136.0 118.0 L135.0 118.0 M124.0 116.0 L125.0 113.0 121.45 113.45 121.0 116.0 124.0 116.0 M172.0 163.0 L171.0 163.0 170.0 157.0 172.0 163.0 M167.0 168.0 L169.0 172.0 168.0 172.0 167.0 168.0 M168.15 150.0 Q169.3 152.35 169.3 155.0 167.1 157.1 165.45 160.0 L167.0 167.0 166.0 167.0 Q163.95 158.45 157.0 153.8 L150.0 154.0 150.0 153.0 Q158.65 150.85 162.0 143.0 165.9 145.7 168.15 150.0" fill="#2f304a" fill-rule="evenodd" stroke="none"/>
      <path d="M146.0 176.0 L146.65 176.3 Q147.05 181.35 142.0 182.0 L146.0 176.0 M124.0 160.0 L124.65 160.3 123.0 168.0 122.0 168.0 124.0 160.0 M120.0 173.0 Q118.55 183.85 114.15 194.0 112.05 198.15 108.0 199.65 L107.0 199.0 118.0 173.45 120.0 173.0 M105.0 161.15 L109.0 159.0 109.65 159.3 106.15 166.0 101.3 178.0 99.0 187.0 Q96.45 182.4 97.65 177.0 99.7 168.3 105.0 161.15 M154.0 131.0 L154.65 131.3 Q152.05 135.25 147.0 137.0 L147.45 134.45 150.0 133.65 154.0 131.0 M146.0 138.0 Q147.1 141.1 147.15 145.0 147.45 155.9 147.0 167.0 147.05 169.5 146.5 171.8 143.95 173.35 141.45 171.8 140.9 169.95 141.0 168.0 L140.0 163.0 140.0 159.0 139.0 153.0 138.0 153.0 Q135.7 156.8 131.15 156.5 130.1 155.4 130.0 154.0 134.15 154.4 137.5 152.0 L139.15 146.0 146.0 138.0 M132.0 146.0 L132.65 146.3 130.0 149.0 132.0 146.0 M131.0 146.0 L130.0 146.0 132.0 139.0 132.65 139.3 131.0 146.0 M125.65 124.3 L126.0 126.0 122.3 125.65 119.0 120.0 125.65 124.3 M124.0 105.3 Q126.5 105.05 129.0 106.0 136.9 109.75 138.5 118.0 136.05 122.4 135.3 128.0 136.3 130.15 138.0 132.0 L138.0 127.0 139.0 127.0 141.5 136.0 139.0 140.0 138.0 140.0 138.3 136.0 133.0 130.0 134.0 138.0 133.0 138.0 132.65 137.0 128.0 137.0 129.0 141.0 128.0 141.0 Q126.7 135.9 128.15 131.0 128.6 128.45 129.45 126.15 L134.0 122.0 Q136.35 117.8 136.0 113.0 L135.0 113.0 Q134.95 116.65 132.8 119.5 L125.0 119.0 121.15 118.5 Q119.95 116.95 120.0 115.0 L124.0 116.0 125.0 113.0 Q122.45 112.85 120.3 111.65 120.2 107.6 124.0 105.3 M168.65 173.3 L168.95 179.25 168.0 173.0 168.65 173.3 M176.0 181.0 L176.0 180.0 183.0 180.0 181.0 176.0 Q183.65 177.7 184.0 181.0 L176.0 181.0 M173.0 180.0 L173.0 181.0 169.15 180.5 169.1 180.0 173.0 180.0 M172.0 163.0 L171.0 163.0 170.0 157.0 172.0 163.0 M167.0 168.0 L169.0 172.0 168.0 172.0 167.0 168.0 M168.15 150.0 Q169.3 152.35 169.3 155.0 167.1 157.1 165.45 160.0 L167.0 167.0 166.0 167.0 Q163.95 158.45 157.0 153.8 L150.0 154.0 150.0 153.0 Q158.65 150.85 162.0 143.0 165.9 145.7 168.15 150.0" fill="#8c621c" fill-rule="evenodd" stroke="none"/>
      <path d="M146.0 176.0 L146.65 176.3 Q147.05 181.35 142.0 182.0 L146.0 176.0 M124.0 160.0 L124.65 160.3 123.0 168.0 122.0 168.0 124.0 160.0 M120.0 173.0 Q118.55 183.85 114.15 194.0 112.05 198.15 108.0 199.65 L107.0 199.0 118.0 173.45 120.0 173.0 M105.0 161.15 L109.0 159.0 109.65 159.3 106.15 166.0 101.3 178.0 99.0 187.0 Q96.45 182.4 97.65 177.0 99.7 168.3 105.0 161.15 M139.15 146.0 L146.0 138.0 148.0 154.0 Q142.95 153.1 139.0 150.0 138.85 152.5 137.65 154.65 133.8 156.45 130.0 155.0 L130.0 154.0 Q134.15 154.4 137.5 152.0 L139.15 146.0 M154.0 131.0 L154.65 131.3 Q152.05 135.25 147.0 137.0 L147.45 134.45 150.0 133.65 154.0 131.0 M132.0 146.0 L132.65 146.3 130.0 149.0 132.0 146.0 M140.0 147.0 L139.3 147.3 142.0 150.0 140.0 147.0 M131.0 146.0 L130.0 146.0 132.0 139.0 132.65 139.3 131.0 146.0 M139.0 118.0 L139.0 119.0 Q135.55 122.9 135.3 128.0 L137.0 132.0 138.0 132.0 138.0 127.0 139.0 127.0 140.65 133.3 142.0 134.0 139.0 140.0 138.0 140.0 Q138.4 137.9 138.3 136.0 134.65 131.0 133.0 125.0 134.3 121.5 136.3 119.3 L136.0 115.0 139.0 118.0 M134.0 112.0 L134.6 112.0 130.0 108.0 132.0 113.0 128.0 117.0 132.0 118.0 134.0 112.0 M124.3 106.0 L126.65 105.3 127.0 106.0 124.3 106.0 M124.0 106.15 L124.0 107.0 130.0 106.45 Q135.75 109.3 139.0 115.0 L138.0 115.0 135.0 112.35 134.8 116.0 Q134.45 117.5 133.65 118.8 129.4 120.3 125.0 118.65 L121.0 119.0 120.0 115.0 121.0 115.0 Q121.4 116.35 123.0 115.3 L124.0 116.0 125.0 113.0 Q122.45 112.85 120.3 111.65 120.55 107.75 124.0 106.15 M162.0 143.0 Q168.75 148.55 168.0 157.0 L160.0 153.15 150.0 154.0 150.0 153.0 155.0 151.8 159.0 149.45 164.0 150.0 162.0 143.0 M168.65 173.3 L169.0 178.0 168.0 178.0 168.0 173.0 168.65 173.3 M180.0 181.0 L180.0 180.0 181.0 180.0 Q182.2 178.2 181.0 176.0 183.65 177.7 184.0 181.0 L180.0 181.0 M172.0 163.0 L171.0 163.0 170.0 157.0 172.0 163.0 M167.0 167.0 L166.0 167.0 164.0 158.0 167.0 167.0 M167.0 168.0 L169.0 172.0 168.0 172.0 167.0 168.0" fill="#535fbd" fill-rule="evenodd" stroke="none"/>
      <path d="M146.0 176.0 L146.65 176.3 Q147.05 181.35 142.0 182.0 L146.0 176.0 M103.0 169.0 L103.65 169.3 102.0 175.0 101.0 175.0 103.0 169.0 M116.0 185.0 L116.65 185.3 115.0 191.0 114.0 191.0 116.0 185.0 M139.15 146.0 L146.0 138.0 148.0 154.0 Q142.95 153.1 139.0 150.0 138.85 152.5 137.65 154.65 133.8 156.45 130.0 155.0 L130.0 154.0 Q134.15 154.4 137.5 152.0 L139.15 146.0 M154.0 131.0 L154.65 131.3 Q152.05 135.25 147.0 137.0 L147.45 134.45 150.0 133.65 154.0 131.0 M132.0 146.0 L132.65 146.3 130.0 149.0 132.0 146.0 M140.0 147.0 L139.3 147.3 142.0 150.0 140.0 147.0 M131.0 146.0 L130.0 146.0 132.0 139.0 132.65 139.3 131.0 146.0 M139.0 118.0 L139.0 119.0 Q135.55 122.9 135.3 128.0 L137.0 132.0 138.0 132.0 138.0 127.0 139.0 127.0 140.65 133.3 142.0 134.0 139.0 140.0 138.0 140.0 Q138.4 137.9 138.3 136.0 134.65 131.0 133.0 125.0 134.3 121.5 136.3 119.3 L136.0 115.0 139.0 118.0 M134.0 112.0 L134.6 112.0 130.0 108.0 132.0 113.0 128.0 117.0 132.0 118.0 134.0 112.0 M124.3 106.0 L126.65 105.3 127.0 106.0 124.3 106.0 M124.0 106.15 L124.0 107.0 130.0 106.45 Q135.75 109.3 139.0 115.0 L138.0 115.0 135.0 112.35 134.8 116.0 Q134.45 117.5 133.65 118.8 129.4 120.3 125.0 118.65 L121.0 119.0 120.0 115.0 121.0 115.0 Q121.4 116.35 123.0 115.3 L124.0 116.0 125.0 113.0 Q122.45 112.85 120.3 111.65 120.55 107.75 124.0 106.15 M162.0 143.0 Q168.75 148.55 168.0 157.0 L160.0 153.15 150.0 154.0 150.0 153.0 155.0 151.8 159.0 149.45 164.0 150.0 162.0 143.0 M168.65 173.3 L169.0 178.0 168.0 178.0 168.0 173.0 168.65 173.3 M180.0 181.0 L180.0 180.0 181.0 180.0 Q182.2 178.2 181.0 176.0 183.65 177.7 184.0 181.0 L180.0 181.0 M172.0 163.0 L171.0 163.0 170.0 157.0 172.0 163.0 M167.0 167.0 L166.0 167.0 164.0 158.0 167.0 167.0 M167.0 168.0 L169.0 172.0 168.0 172.0 167.0 168.0" fill="#a7a9bf" fill-rule="evenodd" stroke="none"/>
      <path d="M138.0 149.0 L138.65 149.3 Q139.05 152.15 137.65 154.65 133.8 156.45 130.0 155.0 L130.0 154.0 Q134.15 154.4 137.5 152.0 137.95 150.5 138.0 149.0 M146.0 138.0 L146.65 138.3 Q143.8 144.5 138.0 148.0 L146.0 138.0 M138.0 127.0 L141.0 133.0 140.0 133.0 138.0 127.0 M132.0 139.0 L132.65 139.3 131.0 146.0 130.0 146.0 132.0 139.0 M132.0 146.0 L132.65 146.3 130.0 149.0 132.0 146.0 M134.0 112.0 L134.6 112.0 130.0 108.0 132.0 113.0 128.0 117.0 132.0 118.0 134.0 112.0 M124.3 106.0 L126.65 105.3 127.0 106.0 124.3 106.0 M124.0 106.15 L124.0 107.0 130.0 106.45 Q135.75 109.3 139.0 115.0 L138.0 115.0 135.0 112.35 134.8 116.0 Q134.45 117.5 133.65 118.8 129.4 120.3 125.0 118.65 L121.0 119.0 120.0 115.0 121.0 115.0 Q121.4 116.35 123.0 115.3 L124.0 116.0 125.0 113.0 Q122.45 112.85 120.3 111.65 120.55 107.75 124.0 106.15 M163.0 144.0 Q169.0 149.25 168.0 157.0 L160.0 153.0 Q161.0 150.05 164.0 150.0 L163.0 144.0 M172.0 163.0 L171.0 163.0 170.0 157.0 172.0 163.0 M167.0 167.0 L166.0 167.0 164.0 158.0 167.0 167.0 M167.0 168.0 L169.0 172.0 168.0 172.0 167.0 168.0" fill="#d7a439" fill-rule="evenodd" stroke="none"/>
      <path d="M138.0 149.0 L138.65 149.3 Q138.75 153.6 135.0 155.8 133.35 155.8 132.0 155.0 L132.0 154.0 Q136.95 153.75 138.0 149.0 M146.0 138.0 L146.65 138.3 Q143.7 144.3 138.0 148.0 L146.0 138.0 M132.0 139.0 L132.65 139.3 132.0 143.0 131.0 143.0 132.0 139.0 M122.0 115.0 L123.0 115.0 122.0 119.0 121.0 119.0 120.0 115.0 Q121.3 116.55 122.0 115.0 M134.0 108.0 L134.0 109.0 130.0 108.0 132.0 113.0 128.0 117.0 132.0 118.0 134.0 112.0 135.0 112.0 135.0 115.0 134.65 117.0 133.65 118.8 Q129.4 120.2 125.0 119.0 L125.3 117.3 Q127.15 115.8 128.0 114.0 128.95 112.0 128.65 109.65 L127.0 110.0 Q128.75 111.55 128.0 114.0 L125.0 113.0 127.0 108.0 120.0 112.0 Q119.9 109.9 120.45 108.0 123.0 105.3 126.65 105.3 L127.0 106.0 124.0 106.0 124.0 107.0 130.0 106.45 134.0 108.0 M163.0 144.0 Q167.75 147.95 167.0 154.0 L161.0 151.0 163.5 148.8 163.0 144.0 M169.0 155.0 L169.0 156.0 168.0 156.65 161.0 154.0 161.0 153.0 169.0 155.0" fill="#fee570" fill-rule="evenodd" stroke="none"/>
      <path d="M122.0 115.0 L123.0 115.0 122.0 119.0 121.0 119.0 120.0 115.0 Q121.3 116.55 122.0 115.0 M133.0 108.0 L133.0 109.0 130.0 108.0 132.0 113.0 128.0 117.0 132.0 118.0 134.0 112.0 135.0 112.0 135.0 115.0 134.65 117.0 133.65 118.8 Q129.4 120.2 125.0 119.0 L125.3 117.3 129.5 112.0 129.0 109.0 128.0 109.0 126.0 113.0 125.0 113.0 127.0 108.0 120.0 112.0 Q119.9 109.9 120.45 108.0 123.0 105.3 126.65 105.3 L127.0 106.0 124.0 106.0 124.0 107.0 130.0 106.45 133.0 108.0 M169.0 155.0 L169.0 156.0 168.0 156.65 161.0 154.0 161.0 153.0 169.0 155.0" fill="#65552d" fill-rule="evenodd" stroke="none"/>
      <path d="M129.0 109.0 L128.0 109.0 126.0 113.0 125.0 113.0 127.0 108.0 122.0 112.0 121.0 112.0 Q120.95 110.4 121.45 109.0 124.8 106.5 129.0 107.45 131.35 109.75 132.0 113.0 L125.0 118.0 125.0 117.0 Q129.4 114.05 129.0 109.0 M169.0 155.0 L169.0 156.0 168.0 156.65 161.0 154.0 161.0 153.0 169.0 155.0" fill="#a8892b" fill-rule="evenodd" stroke="none"/>
    </g>
  </defs>
</svg>
