<?xml version="1.0" encoding="UTF-8" standalone="no"?>
<svg xmlns:ffdec="https://www.free-decompiler.com/flash" xmlns:xlink="http://www.w3.org/1999/xlink" ffdec:objectType="frame" height="175.75px" width="176.0px" xmlns="http://www.w3.org/2000/svg">
  <g transform="matrix(1.0, 0.0, 0.0, 1.0, -38.0, -44.25)">
    <use ffdec:characterId="97" height="157.25" transform="matrix(1.0, 0.0, 0.0, 1.0, 0.0, 0.0)" width="59.0" xlink:href="#shape0"/>
  </g>
  <defs>
    <g id="shape0">
      <path d="M155.0 113.0 L146.0 122.0 148.0 124.5 157.0 124.0 155.0 113.0 M151.0 88.0 L145.0 92.0 151.0 94.0 151.0 88.0 M120.0 52.3 Q110.25 62.5 114.3 76.0 125.05 86.65 140.0 87.65 143.1 86.95 146.0 85.65 152.35 78.6 153.0 69.0 146.55 52.2 129.0 50.0 L129.0 49.15 Q124.35 50.35 120.0 52.3 M163.0 104.0 Q165.15 108.6 164.65 113.65 L162.0 115.0 Q163.25 119.0 164.0 123.0 160.0 130.3 151.0 131.0 150.7 133.55 149.8 136.0 148.9 136.9 148.65 138.3 L150.8 142.0 Q151.95 145.4 152.65 149.0 L153.0 154.0 155.0 163.0 155.0 168.0 156.65 175.0 158.15 184.0 Q162.4 189.8 166.0 196.0 L165.65 199.65 Q162.1 201.9 158.0 201.5 154.1 198.1 153.0 193.0 L153.0 189.0 147.65 169.0 Q146.5 164.75 144.0 161.45 142.5 160.95 141.0 161.0 141.95 167.0 143.65 173.0 L145.15 180.0 Q146.85 184.35 148.0 189.0 148.1 192.5 147.5 195.8 143.15 198.55 138.3 196.65 136.75 193.45 137.65 190.0 139.1 184.95 138.8 180.0 137.35 174.85 135.5 170.0 L132.3 165.0 130.5 159.0 128.3 155.0 Q127.8 151.5 128.0 148.0 128.7 144.3 130.3 141.0 L133.3 137.65 132.0 131.0 Q132.25 124.2 135.0 118.0 130.65 115.2 131.45 110.0 L133.5 107.0 Q134.15 104.5 135.3 102.3 136.55 101.5 138.0 101.15 146.55 100.9 152.0 108.0 145.8 97.05 132.0 93.65 120.25 89.2 111.15 81.0 107.0 72.5 107.0 63.0 107.9 59.3 109.8 56.0 123.7 42.5 143.0 46.8 147.35 48.6 151.0 52.0 154.55 57.05 156.65 63.0 L157.0 69.0 Q157.6 71.85 157.65 75.0 156.0 82.95 154.8 91.0 154.6 94.1 156.0 97.0 156.85 98.4 158.15 99.5 L161.65 101.15 163.0 104.0" fill="#f7f7ea" fill-rule="evenodd" stroke="none"/>
      <path d="M152.0 149.0 L152.65 149.3 153.0 156.0 152.0 156.0 152.0 149.0 M134.0 110.0 L133.3 110.3 135.0 114.0 136.0 114.0 134.0 110.0 M147.0 121.0 Q146.45 117.75 143.0 118.0 L143.0 119.0 147.0 121.0 146.0 122.0 148.0 125.0 Q140.5 125.3 133.0 123.0 L135.0 118.0 Q130.8 115.3 131.3 110.3 L133.65 107.0 Q134.15 104.5 135.3 102.3 141.7 99.85 148.0 103.15 150.55 105.55 151.0 109.0 L151.0 113.0 153.3 110.65 152.45 108.0 Q150.65 102.3 146.0 98.45 140.65 96.05 135.0 94.65 115.6 87.65 107.0 70.0 L107.0 66.0 Q107.0 61.75 108.8 58.0 110.2 54.8 112.15 52.0 126.4 42.55 143.0 46.8 L148.0 49.15 Q153.7 55.1 156.65 63.0 L157.0 69.0 Q157.6 71.85 157.65 75.0 L156.65 82.0 Q154.95 87.9 154.8 94.0 156.1 97.5 158.0 101.0 L155.15 103.0 156.0 114.0 154.65 113.65 147.0 121.0 M149.0 109.0 L142.3 109.3 140.0 111.65 137.0 113.0 139.0 117.0 142.5 114.5 144.15 112.3 149.0 110.0 149.0 109.0 M151.0 88.0 L145.0 92.0 151.0 94.0 151.0 88.0 M120.0 52.3 Q110.25 62.5 114.3 76.0 125.05 86.65 140.0 87.65 143.1 86.95 146.0 85.65 152.35 78.6 153.0 69.0 146.55 52.2 129.0 50.0 L129.0 49.15 Q124.35 50.35 120.0 52.3 M164.5 197.0 Q164.7 194.95 164.0 193.0 L165.0 193.0 Q166.2 196.2 165.65 199.65 L163.0 201.15 Q158.5 202.25 155.15 199.0 152.95 194.15 153.0 189.0 L148.0 170.0 Q146.7 165.25 144.0 161.45 142.5 160.95 141.0 161.0 141.95 167.0 143.65 173.0 L145.15 180.0 Q147.7 186.7 148.0 194.0 144.2 198.75 138.3 196.65 136.95 194.0 137.0 191.0 L138.0 191.0 Q140.95 196.1 145.5 194.0 146.05 192.0 146.0 190.0 145.9 185.9 145.0 182.0 L140.3 184.0 140.0 185.0 139.0 185.0 139.3 182.0 135.5 170.0 132.3 165.0 130.5 159.0 128.0 154.0 135.0 159.5 145.65 159.0 146.0 158.0 147.0 158.0 Q148.05 164.25 151.15 169.5 L154.0 170.0 154.0 163.0 153.0 157.0 154.0 157.0 155.0 162.0 155.0 168.0 159.0 187.0 158.0 187.0 156.65 183.0 155.0 171.0 150.0 172.0 153.3 182.0 156.0 188.0 154.0 188.0 Q155.95 193.9 159.15 198.8 162.3 199.9 164.5 197.0 M164.0 109.0 L164.65 113.65 161.0 115.0 164.0 109.0 M162.0 126.0 L162.65 126.3 Q157.9 130.7 151.0 131.0 L149.8 136.0 148.65 138.3 150.0 141.0 Q141.0 144.7 133.65 139.15 L133.15 136.0 Q132.2 131.55 132.0 127.0 L133.0 127.0 Q133.15 133.1 137.0 137.8 141.75 139.45 146.0 136.3 L148.3 134.3 Q147.65 132.55 146.3 131.0 145.35 129.05 145.0 127.0 L146.0 127.0 146.3 128.0 Q154.3 130.3 162.0 126.0" fill="#8995e9" fill-rule="evenodd" stroke="none"/>
      <path d="M159.3 200.8 Q163.8 198.75 165.0 194.0 L166.0 194.0 Q166.05 196.95 165.65 199.65 162.55 201.6 159.3 200.8 159.2 200.95 159.0 201.0 L158.85 200.65 Q157.4 200.75 156.0 200.0 152.95 194.95 153.0 189.0 L154.0 189.3 156.15 195.0 158.85 200.65 159.3 200.8 M164.0 109.0 L164.65 113.65 161.0 115.0 164.0 109.0 M162.0 126.0 L162.65 126.3 Q160.5 129.2 157.0 130.3 151.35 131.45 146.15 129.8 145.15 128.5 145.0 127.0 L146.0 127.0 146.3 128.0 Q154.3 130.3 162.0 126.0 M140.5 196.8 Q143.35 195.9 145.8 194.65 147.2 191.95 146.3 189.0 L145.0 182.0 140.3 184.0 140.0 185.0 139.0 185.0 139.3 182.0 135.5 170.0 132.3 165.0 131.3 159.3 128.0 154.0 134.15 159.5 141.0 161.0 Q141.95 167.0 143.65 173.0 L145.15 180.0 Q147.7 186.7 148.0 194.0 144.95 197.9 140.5 196.8 140.3 196.95 140.0 197.0 L140.1 196.75 Q139.2 197.0 138.3 196.65 136.95 194.0 137.0 191.0 L138.0 191.0 138.0 195.0 141.0 195.0 140.1 196.75 Q140.3 196.85 140.5 196.8 M146.0 158.0 L147.0 158.0 Q148.05 164.25 151.15 169.5 L154.0 170.0 154.0 163.0 153.0 157.0 Q155.2 162.1 155.0 168.0 L156.65 175.0 Q157.75 180.9 158.0 187.0 L157.0 187.0 155.0 171.0 150.0 172.0 153.3 182.0 156.0 188.0 153.3 187.65 Q151.8 185.0 151.15 182.0 L148.65 172.0 Q145.85 165.05 146.0 158.0 M152.0 149.0 L152.65 149.3 153.0 154.0 152.0 154.0 152.0 149.0 M148.0 134.0 L148.65 134.3 Q147.55 137.7 144.0 139.0 L148.0 134.0 M132.0 127.0 L132.65 127.3 133.3 132.0 Q134.95 136.4 139.0 138.8 L143.0 139.0 143.0 141.0 139.0 141.0 Q132.25 136.15 132.0 127.0 M134.0 110.0 L133.3 110.3 135.0 114.0 136.0 114.0 134.0 110.0 M147.0 121.0 Q146.45 117.75 143.0 118.0 L143.0 119.0 147.0 121.0 M149.0 109.0 L142.3 109.3 140.0 111.65 137.0 113.0 139.0 117.0 142.5 114.5 144.15 112.3 149.0 110.0 149.0 109.0 M139.0 91.0 L139.0 90.0 Q145.95 89.1 151.0 84.0 L151.65 84.3 152.0 91.0 151.0 91.0 150.5 88.95 145.0 92.0 151.65 95.15 153.0 98.0 147.0 94.3 139.0 91.0 M134.0 88.0 L138.65 88.3 139.0 89.0 134.0 89.0 134.0 88.0 M123.0 45.0 Q129.75 43.5 136.0 45.0 L129.0 45.0 123.0 46.0 123.0 45.0 M128.0 47.0 L134.0 47.0 Q148.2 51.85 154.0 66.0 L154.0 73.0 Q152.7 79.05 149.0 84.0 147.0 86.1 144.3 86.65 L144.0 86.0 Q147.2 83.9 149.8 81.0 153.9 63.95 141.0 51.8 135.25 49.05 129.0 49.3 118.35 52.9 112.3 62.0 111.65 70.75 117.0 78.0 123.75 84.8 133.0 87.0 L133.0 88.0 Q126.95 87.6 122.0 84.3 111.8 76.5 110.0 64.0 112.0 56.35 118.0 51.0 122.6 48.05 128.0 47.0 M113.1 53.1 Q110.8 56.35 109.3 60.0 108.4 62.9 108.0 66.0 108.25 69.05 109.3 72.0 117.25 84.35 131.0 90.65 L146.0 95.3 155.0 101.0 Q153.75 96.45 153.0 92.0 L153.8 88.0 Q155.25 81.0 156.0 74.0 L156.0 68.0 Q151.1 52.85 137.0 46.0 L137.0 45.0 Q151.4 50.35 157.0 65.0 L157.0 69.0 Q157.6 71.85 157.65 75.0 L156.65 82.0 Q154.95 87.9 154.8 94.0 156.1 97.5 158.0 101.0 L155.15 103.0 156.0 114.0 154.65 113.65 146.0 122.5 138.0 121.65 134.0 122.0 135.0 118.0 Q130.8 115.3 131.3 110.3 L133.65 107.0 Q134.15 104.5 135.3 102.3 141.7 99.85 148.0 103.15 150.55 105.55 151.0 109.0 L151.0 113.0 153.3 110.65 152.45 108.0 Q150.4 101.75 145.0 98.0 140.05 95.95 135.0 94.65 128.25 92.35 122.0 89.15 L117.0 86.65 Q108.15 77.55 107.0 65.0 108.7 58.2 113.1 53.1" fill="#0c0d1b" fill-rule="evenodd" stroke="none"/>
      <path d="M159.3 200.8 Q163.8 198.75 165.0 194.0 L166.0 194.0 Q166.05 196.95 165.65 199.65 162.55 201.6 159.3 200.8 159.2 200.95 159.0 201.0 L158.85 200.65 Q157.4 200.75 156.0 200.0 152.95 194.95 153.0 189.0 L154.0 189.3 156.15 195.0 158.85 200.65 159.3 200.8 M164.0 109.0 L164.65 109.3 161.0 113.0 164.0 109.0 M162.0 126.0 L162.65 126.3 Q160.5 129.2 157.0 130.3 151.35 131.45 146.15 129.8 145.15 128.5 145.0 127.0 L146.0 127.0 146.3 128.0 Q154.3 130.3 162.0 126.0 M140.5 196.8 Q143.35 195.9 145.8 194.65 147.2 191.95 146.3 189.0 L145.0 182.0 140.3 184.0 140.0 185.0 139.0 185.0 139.3 182.0 135.5 170.0 132.3 165.0 131.3 159.3 128.0 154.0 134.15 159.5 141.0 161.0 Q141.95 167.0 143.65 173.0 L145.15 180.0 Q147.7 186.7 148.0 194.0 144.95 197.9 140.5 196.8 140.3 196.95 140.0 197.0 L140.1 196.75 Q139.2 197.0 138.3 196.65 136.95 194.0 137.0 191.0 L138.0 191.0 138.0 195.0 141.0 195.0 140.1 196.75 Q140.3 196.85 140.5 196.8 M146.0 158.0 L147.0 158.0 Q148.05 164.25 151.15 169.5 L154.0 170.0 154.0 163.0 153.0 157.0 Q155.2 162.1 155.0 168.0 L156.65 175.0 Q157.75 180.9 158.0 187.0 L157.0 187.0 155.0 171.0 150.0 172.0 153.3 182.0 156.0 188.0 153.3 187.65 Q151.8 185.0 151.15 182.0 L148.65 172.0 Q145.85 165.05 146.0 158.0 M152.0 149.0 L152.65 149.3 153.0 154.0 152.0 154.0 152.0 149.0 M148.0 134.0 L148.65 134.3 Q147.55 137.7 144.0 139.0 L148.0 134.0 M132.0 127.0 L132.65 127.3 133.3 132.0 Q134.95 136.4 139.0 138.8 L143.0 139.0 143.0 141.0 139.0 141.0 Q132.25 136.15 132.0 127.0 M134.0 110.0 L133.3 110.3 135.0 114.0 136.0 114.0 134.0 110.0 M151.0 114.0 L147.0 116.0 147.0 117.0 151.0 115.0 151.0 114.0 M149.0 109.0 L142.0 109.45 137.0 113.0 Q140.75 118.65 147.0 121.0 L146.5 118.45 144.45 116.8 143.0 112.0 149.0 110.0 149.0 109.0 M153.3 110.65 L152.45 108.0 153.0 104.0 154.0 104.0 156.0 114.0 154.65 113.65 146.0 122.5 138.0 121.65 134.0 122.0 135.0 118.0 Q130.75 115.25 131.3 110.3 L133.5 108.0 Q134.05 105.0 135.3 102.3 136.55 101.5 138.0 101.15 145.3 100.5 150.15 106.0 150.85 109.35 151.0 113.0 L153.3 110.65 M144.0 96.0 L144.0 95.0 Q148.95 96.55 152.0 101.0 L144.0 96.0 M151.0 84.0 L151.65 84.3 152.0 91.0 151.0 91.0 151.0 86.0 Q148.05 89.15 144.0 90.0 L144.0 89.0 151.0 84.0 M138.0 94.0 L138.0 93.0 143.0 94.0 143.0 95.0 138.0 94.0 M139.0 91.0 L139.0 90.0 142.65 90.3 146.0 92.65 151.65 95.3 153.0 98.0 147.0 94.3 139.0 91.0 M138.65 88.3 L139.0 89.0 134.0 89.0 134.0 88.0 138.65 88.3 M149.75 58.35 Q152.25 61.75 154.0 66.0 L154.0 73.0 Q152.7 79.05 149.0 84.0 147.0 86.1 144.3 86.65 L144.0 86.0 Q154.55 73.9 149.75 58.35 M110.0 76.0 L118.0 83.65 130.0 90.0 130.0 91.0 Q121.2 87.95 114.0 82.0 111.25 79.3 110.0 76.0 M107.0 64.0 L107.65 64.3 108.3 69.0 110.0 75.0 109.0 75.0 107.0 64.0 M118.0 47.0 L118.65 47.3 Q116.3 50.55 113.15 53.0 110.0 57.55 109.0 63.0 L108.0 63.0 Q108.75 57.0 112.15 52.0 L118.0 47.0 M123.0 45.0 Q129.75 43.5 136.0 45.0 L129.0 45.0 123.0 46.0 123.0 45.0 M137.0 45.0 Q141.15 45.75 145.0 47.65 153.75 56.35 156.0 68.0 157.1 72.75 157.0 78.0 L154.3 93.0 156.0 98.0 155.0 98.0 Q153.45 95.15 153.0 92.0 L153.8 88.0 Q155.25 81.0 156.0 74.0 L156.0 68.0 Q151.1 52.85 137.0 46.0 L137.0 45.0 M140.35 50.05 Q139.85 49.75 139.2 49.5 137.2 48.5 135.0 48.0 122.35 48.75 113.8 58.0 111.9 60.8 111.0 64.0 111.2 68.1 112.8 72.0 120.4 83.05 133.0 87.0 L133.0 88.0 Q126.95 87.6 122.0 84.3 111.8 76.5 110.0 64.0 112.0 56.35 118.0 51.0 122.6 48.05 128.0 47.0 L134.0 47.0 Q136.85 48.0 139.2 49.5 L140.0 49.8 140.35 50.05" fill="#dca449" fill-rule="evenodd" stroke="none"/>
      <path d="M147.0 164.7 Q146.25 162.9 146.1 161.0 L147.0 161.0 147.0 164.7 147.05 165.0 149.0 165.0 148.0 168.0 150.0 168.0 149.0 171.0 155.0 169.0 Q153.1 172.05 149.0 173.0 147.45 169.1 147.05 165.0 L147.0 165.0 147.0 164.7 M146.0 158.0 L147.0 159.0 146.1 160.85 146.0 158.0 M152.0 149.0 L152.65 149.3 153.0 154.0 152.0 154.0 152.0 149.0 M146.65 136.3 L144.0 139.0 146.0 136.0 146.65 136.3 M156.0 129.0 L156.0 130.0 152.0 131.0 152.0 130.0 156.0 129.0 M157.0 129.0 L161.0 127.0 162.0 128.0 157.0 130.0 157.0 129.0 M135.3 138.65 L134.0 136.0 Q138.0 138.65 143.0 139.0 L143.0 140.0 135.3 138.65 M134.0 110.0 L133.3 110.3 135.0 114.0 136.0 114.0 134.0 110.0 M156.0 114.0 L154.65 113.65 146.0 122.5 138.0 121.65 134.0 122.0 135.0 118.0 Q131.7 116.45 131.0 113.0 L132.0 113.0 138.0 119.0 131.0 110.0 Q132.4 109.3 133.5 108.0 134.0 104.95 135.3 102.3 136.55 101.5 138.0 101.15 144.65 100.4 149.65 105.0 150.85 108.75 151.0 113.0 L155.0 111.0 156.0 114.0 M146.0 112.0 L146.0 113.0 147.3 114.3 147.0 117.0 Q151.5 116.0 154.0 112.0 L151.0 114.0 150.0 111.0 146.0 112.0 M149.0 109.0 L146.65 108.65 Q146.65 106.45 145.65 104.15 141.85 102.55 138.45 105.15 137.9 106.95 138.0 109.0 141.0 108.2 143.0 105.45 L145.0 105.0 146.0 108.0 137.0 113.0 139.3 116.8 144.0 121.0 139.0 119.0 139.0 120.0 142.0 121.65 Q146.3 121.3 149.0 118.0 143.95 117.4 143.0 112.0 L149.0 110.0 149.0 109.0 M153.0 104.0 Q155.0 106.55 155.0 110.0 L153.3 109.65 153.0 104.0 M144.0 96.0 L144.0 95.0 Q148.95 96.55 152.0 101.0 L144.0 96.0 M151.0 84.0 L151.65 84.3 152.0 91.0 151.0 91.0 151.0 86.0 Q148.05 89.15 144.0 90.0 L144.0 89.0 151.0 84.0 M138.0 94.0 L138.0 93.0 143.0 94.0 143.0 95.0 138.0 94.0 M139.0 91.0 L139.0 90.0 142.65 90.3 146.0 92.65 151.65 95.3 153.0 98.0 147.0 94.3 139.0 91.0 M138.65 88.3 L139.0 89.0 134.0 89.0 134.0 88.0 138.65 88.3 M149.75 58.35 Q152.25 61.75 154.0 66.0 L154.0 73.0 Q152.7 79.05 149.0 84.0 147.0 86.1 144.3 86.65 L144.0 86.0 Q154.55 73.9 149.75 58.35 M110.0 76.0 L118.0 83.65 130.0 90.0 130.0 91.0 Q121.2 87.95 114.0 82.0 111.25 79.3 110.0 76.0 M107.0 64.0 L107.65 64.3 108.3 69.0 110.0 75.0 109.0 75.0 107.0 64.0 M118.0 47.0 L118.65 47.3 Q116.3 50.55 113.15 53.0 110.0 57.55 109.0 63.0 L108.0 63.0 Q108.75 57.0 112.15 52.0 L118.0 47.0 M123.0 45.0 Q129.75 43.5 136.0 45.0 L129.0 45.0 123.0 46.0 123.0 45.0 M137.0 45.0 Q141.15 45.75 145.0 47.65 153.75 56.35 156.0 68.0 157.1 72.75 157.0 78.0 L154.3 93.0 156.0 98.0 155.0 98.0 Q153.45 95.15 153.0 92.0 L153.8 88.0 Q155.25 81.0 156.0 74.0 L156.0 68.0 Q151.1 52.85 137.0 46.0 L137.0 45.0 M164.0 109.0 L164.65 109.3 161.0 113.0 164.0 109.0 M158.85 200.7 Q157.4 200.75 156.0 200.0 152.95 194.95 153.0 189.0 L154.0 189.3 156.15 195.0 158.85 200.7 159.4 200.8 166.0 198.0 165.65 199.65 Q162.55 201.6 159.4 200.8 L159.0 201.0 158.85 200.7 M157.65 181.0 L157.0 182.0 156.0 182.0 155.0 173.0 157.65 181.0 M152.3 184.0 L153.0 183.0 152.0 183.0 152.0 180.0 156.0 187.0 153.0 188.0 153.3 186.65 152.3 184.0 M141.0 165.0 L140.0 165.0 139.0 169.0 135.45 165.0 133.0 161.0 132.3 161.3 Q133.75 165.35 136.3 168.8 138.95 170.35 140.8 168.0 L141.0 165.0 M131.3 159.3 L129.0 155.0 134.15 159.5 141.0 161.0 142.5 170.0 141.0 173.0 138.0 172.0 140.45 179.0 143.0 182.0 144.0 177.0 145.0 177.0 Q145.65 181.1 147.15 185.0 148.0 188.9 148.0 193.0 147.95 195.0 146.8 196.65 143.35 198.1 140.0 197.0 139.15 197.0 138.3 196.65 136.95 194.0 137.0 191.0 L138.0 191.0 138.0 195.0 141.0 195.0 140.0 197.0 Q143.1 196.2 145.8 194.8 147.2 192.0 146.3 189.0 L145.0 182.0 140.3 184.0 140.0 185.0 139.0 185.0 139.3 182.0 135.5 170.0 132.3 165.0 131.3 159.3 M154.0 162.0 L154.65 162.3 155.0 168.0 154.0 168.0 154.0 162.0 M140.35 50.05 Q139.85 49.75 139.2 49.5 137.2 48.5 135.0 48.0 122.35 48.75 113.8 58.0 111.9 60.8 111.0 64.0 111.2 68.1 112.8 72.0 120.4 83.05 133.0 87.0 L133.0 88.0 Q126.95 87.6 122.0 84.3 111.8 76.5 110.0 64.0 112.0 56.35 118.0 51.0 122.6 48.05 128.0 47.0 L134.0 47.0 Q136.85 48.0 139.2 49.5 L140.0 49.8 140.35 50.05" fill="#5c69ce" fill-rule="evenodd" stroke="none"/>
      <path d="M147.0 164.7 Q146.25 162.9 146.1 161.0 L147.0 161.0 147.0 164.7 147.05 165.0 149.0 165.0 148.0 168.0 150.0 168.0 149.0 171.0 155.0 169.0 Q153.1 172.05 149.0 173.0 147.45 169.1 147.05 165.0 L147.0 165.0 147.0 164.7 M146.0 158.0 L147.0 159.0 146.1 160.85 146.0 158.0 M152.0 149.0 L152.65 149.3 153.0 154.0 152.0 154.0 152.0 149.0 M146.65 136.3 L144.0 139.0 146.0 136.0 146.65 136.3 M156.0 129.0 L156.0 130.0 152.0 131.0 152.0 130.0 156.0 129.0 M157.0 129.0 L161.0 127.0 162.0 128.0 157.0 130.0 157.0 129.0 M135.3 138.65 L134.0 136.0 Q138.0 138.65 143.0 139.0 L143.0 140.0 135.3 138.65 M134.0 110.0 L133.3 110.3 135.0 114.0 136.0 114.0 134.0 110.0 M156.0 114.0 L154.65 113.65 146.0 122.5 138.0 121.65 134.0 122.0 135.0 118.0 Q131.7 116.45 131.0 113.0 L132.0 113.0 138.0 119.0 131.0 110.0 Q132.4 109.3 133.5 108.0 134.0 104.95 135.3 102.3 136.55 101.5 138.0 101.15 144.65 100.4 149.65 105.0 150.85 108.75 151.0 113.0 L155.0 111.0 156.0 114.0 M146.0 112.0 L146.0 113.0 147.3 114.3 147.0 117.0 Q151.5 116.0 154.0 112.0 L151.0 114.0 150.0 111.0 146.0 112.0 M149.0 109.0 L146.65 108.65 Q146.65 106.45 145.65 104.15 141.85 102.55 138.45 105.15 137.9 106.95 138.0 109.0 141.0 108.2 143.0 105.45 L145.0 105.0 146.0 108.0 137.0 113.0 139.3 116.8 144.0 121.0 139.0 119.0 139.0 120.0 142.0 121.65 Q146.3 121.3 149.0 118.0 143.95 117.4 143.0 112.0 L149.0 110.0 149.0 109.0 M153.0 104.0 Q155.0 106.55 155.0 110.0 L153.3 109.65 153.0 104.0 M150.0 57.0 L140.0 50.0 140.0 49.0 Q146.15 51.4 150.0 57.0 M153.65 68.3 L154.0 74.0 153.0 74.0 153.0 68.0 153.65 68.3 M156.65 63.3 L157.0 70.0 156.0 70.0 156.0 63.0 156.65 63.3 M119.0 86.0 L119.0 85.0 127.0 89.0 127.0 90.0 119.0 86.0 M107.0 64.0 L107.65 64.3 108.0 70.0 107.0 70.0 107.0 64.0 M117.0 52.0 L117.65 52.3 114.0 56.0 117.0 52.0 M113.0 57.0 L113.65 57.3 112.0 61.0 111.0 61.0 113.0 57.0 M127.0 47.0 L137.0 48.0 127.0 48.0 127.0 47.0 M164.0 109.0 L164.65 109.3 161.0 113.0 164.0 109.0 M140.2 196.95 Q143.2 196.2 145.8 194.8 147.2 192.0 146.3 189.0 L145.0 182.0 140.3 184.0 140.0 185.0 139.0 185.0 139.3 182.0 135.5 170.0 132.3 165.0 131.3 159.3 129.0 155.0 134.15 159.5 141.0 161.0 142.5 170.0 141.0 173.0 138.0 172.0 140.45 179.0 143.0 182.0 144.0 177.0 145.0 177.0 Q145.65 181.1 147.15 185.0 148.0 188.9 148.0 193.0 148.0 194.45 147.5 195.8 144.05 198.1 140.2 196.95 L140.0 197.0 140.05 196.9 Q139.2 197.0 138.3 196.65 L137.0 194.0 141.0 195.0 140.05 196.9 140.2 196.95 M154.0 162.0 L154.65 162.3 155.0 168.0 154.0 168.0 154.0 162.0 M158.85 200.7 Q157.4 200.75 156.0 200.0 152.95 194.95 153.0 189.0 L154.0 189.3 156.0 195.0 158.85 200.7 159.4 200.8 166.0 198.0 165.65 199.65 Q162.55 201.6 159.4 200.8 L159.0 201.0 158.85 200.7 M157.65 181.0 L157.0 182.0 156.0 182.0 155.0 173.0 157.65 181.0 M152.3 184.0 L153.0 183.0 152.0 183.0 152.0 180.0 156.0 187.0 153.0 188.0 153.3 186.65 152.3 184.0 M141.0 165.0 L140.0 165.0 139.0 169.0 135.45 165.0 133.0 161.0 132.3 161.3 Q133.75 165.35 136.3 168.8 138.95 170.35 140.8 168.0 L141.0 165.0" fill="#fedf6c" fill-rule="evenodd" stroke="none"/>
      <path d="M159.4 200.8 L166.0 198.0 165.65 199.65 Q162.55 201.6 159.4 200.8 L159.0 201.0 158.85 200.7 Q157.4 200.75 156.0 200.0 152.95 194.95 153.0 189.0 L158.85 200.7 159.4 200.8 M138.3 196.65 L137.0 194.0 141.0 196.15 143.0 196.15 146.5 194.0 146.0 183.0 Q148.2 188.05 148.0 194.0 144.3 198.75 138.3 196.65 M131.0 159.0 L141.0 161.0 143.0 170.0 138.0 172.0 140.45 179.0 143.0 182.0 144.0 177.0 145.0 177.0 144.5 181.8 139.0 184.0 135.5 170.0 133.3 167.0 131.0 159.0 M132.0 161.0 L133.8 165.0 Q135.15 167.5 137.15 169.5 140.05 169.9 141.0 167.0 140.5 164.8 139.0 163.15 135.7 161.3 132.0 161.0 M145.0 160.0 L146.0 160.3 150.15 170.5 152.0 171.0 152.0 172.0 149.15 171.5 145.0 160.0 M146.0 109.0 Q146.35 106.95 145.65 105.0 141.8 102.6 138.45 106.0 137.95 107.4 138.0 109.0 L142.0 109.0 136.0 115.0 134.0 110.3 133.0 110.0 Q133.8 105.8 135.3 102.3 136.55 101.5 138.0 101.15 146.4 100.7 151.0 108.0 L146.0 109.0 M154.0 111.0 L156.0 114.0 154.65 113.65 146.0 122.5 138.0 121.65 134.0 122.0 135.0 118.0 Q131.7 116.45 131.0 113.0 L132.0 113.0 Q135.95 118.15 142.0 121.0 145.55 121.1 148.3 118.65 L148.0 117.0 154.0 111.0 M150.0 57.0 L140.0 50.0 140.0 49.0 Q146.15 51.4 150.0 57.0 M153.65 68.3 L154.0 74.0 153.0 74.0 153.0 68.0 153.65 68.3 M156.65 63.3 L157.0 70.0 156.0 70.0 156.0 63.0 156.65 63.3 M119.0 86.0 L119.0 85.0 127.0 89.0 127.0 90.0 119.0 86.0 M107.0 64.0 L107.65 64.3 108.0 70.0 107.0 70.0 107.0 64.0 M117.0 52.0 L117.65 52.3 114.0 56.0 117.0 52.0 M113.0 57.0 L113.65 57.3 112.0 61.0 111.0 61.0 113.0 57.0 M127.0 47.0 L137.0 48.0 127.0 48.0 127.0 47.0" fill="#936822" fill-rule="evenodd" stroke="none"/>
      <path d="M159.4 200.8 L166.0 198.0 165.65 199.65 Q162.55 201.6 159.4 200.8 L159.0 201.0 158.85 200.7 Q157.4 200.75 156.0 200.0 152.95 194.95 153.0 189.0 L158.85 200.7 159.4 200.8 M143.0 182.0 L144.0 178.0 144.65 178.3 144.0 183.0 140.0 180.0 143.0 182.0 M140.0 179.0 L139.0 179.0 138.0 173.0 140.0 179.0 M137.0 194.0 L141.0 196.15 143.0 196.15 145.0 195.5 Q147.35 191.15 146.0 186.0 L147.0 186.3 Q148.55 191.6 146.8 196.65 142.6 198.45 138.3 196.65 L137.0 194.0 M151.0 108.0 L146.0 109.0 Q146.4 106.8 146.3 104.65 142.45 102.3 138.45 106.0 138.2 107.4 139.15 108.5 L141.0 109.0 136.0 115.0 134.0 110.3 133.0 110.0 135.3 103.65 135.0 102.0 138.65 101.3 139.0 102.0 137.0 104.0 Q139.15 102.35 141.65 101.3 147.9 102.1 151.0 108.0 M150.0 57.0 L140.0 50.0 140.0 49.0 Q146.15 51.4 150.0 57.0 M153.65 68.3 L154.0 74.0 153.0 74.0 153.0 68.0 153.65 68.3 M156.65 63.3 L157.0 70.0 156.0 70.0 156.0 63.0 156.65 63.3 M119.0 86.0 L119.0 85.0 127.0 89.0 127.0 90.0 119.0 86.0 M107.0 64.0 L107.65 64.3 108.0 70.0 107.0 70.0 107.0 64.0 M117.0 52.0 L117.65 52.3 114.0 56.0 117.0 52.0 M113.0 57.0 L113.65 57.3 112.0 61.0 111.0 61.0 113.0 57.0 M127.0 47.0 L137.0 48.0 127.0 48.0 127.0 47.0" fill="#303151" fill-rule="evenodd" stroke="none"/>
      <path d="M153.0 189.0 L159.0 201.0 Q154.25 196.0 153.0 189.0 M147.0 186.3 Q148.45 191.15 147.0 196.0 L146.0 196.0 147.0 192.0 146.0 186.0 147.0 186.3 M144.0 178.0 L144.65 178.3 144.0 183.0 140.0 180.0 143.0 182.0 144.0 178.0 M140.0 179.0 L139.0 179.0 138.0 173.0 140.0 179.0 M144.0 101.0 L144.0 102.0 138.45 106.0 138.0 109.0 141.0 110.0 135.0 113.0 Q134.55 106.75 137.0 101.0 L137.65 101.3 137.0 104.0 144.0 101.0 M146.0 103.0 L150.0 108.0 146.0 109.0 146.0 103.0" fill="#605740" fill-rule="evenodd" stroke="none"/>
      <path d="M138.0 173.0 L140.0 179.0 139.0 179.0 138.0 173.0 M144.0 178.0 L144.65 178.3 144.0 183.0 140.0 180.0 143.0 182.0 144.0 178.0 M142.8 101.8 L144.0 103.0 Q139.1 104.15 138.0 109.0 L141.0 109.0 141.0 110.0 137.3 109.65 Q135.35 106.0 136.0 102.0 L137.3 103.3 142.8 101.8 M147.0 105.3 L147.0 109.0 146.0 109.0 146.0 105.0 147.0 105.3" fill="#a4893b" fill-rule="evenodd" stroke="none"/>
    </g>
  </defs>
</svg>
